Lexend-ExtraBold.ufo
<glyph name="numbersign" format="2">
  <advance width="776"/>
  <unicode hex="0023"/>
  <outline>
    <contour>
      <point x="289" y="0" type="line"/>
      <point x="110" y="0" type="line"/>
      <point x="230" y="700" type="line"/>
      <point x="409" y="700" type="line"/>
    </contour>
    <contour>
      <point x="716" y="413" type="line"/>
      <point x="98" y="413" type="line"/>
      <point x="98" y="576" type="line"/>
      <point x="716" y="576" type="line"/>
    </contour>
    <contour>
      <point x="548" y="0" type="line"/>
      <point x="369" y="0" type="line"/>
      <point x="489" y="700" type="line"/>
      <point x="668" y="700" type="line"/>
    </contour>
    <contour>
      <point x="679" y="133" type="line"/>
      <point x="60" y="133" type="line"/>
      <point x="60" y="296" type="line"/>
      <point x="679" y="296" type="line"/>
    </contour>
  </outline>
</glyph>
<glyph name="quotesingle" format="2">
  <advance width="286"/>
  <unicode hex="0027"/>
  <outline>
    <contour>
      <point x="50" y="432" type="line"/>
      <point x="68" y="700" type="line"/>
      <point x="266" y="700" type="line"/>
      <point x="180" y="432" type="line"/>
    </contour>
  </outline>
</glyph>
<glyph name="parenleft" format="2">
  <advance width="407"/>
  <unicode hex="0028"/>
  <outline>
    <contour>
      <point x="40" y="258" type="qcurve"/>
      <point x="40" y="397"/>
      <point x="169" y="626"/>
      <point x="291" y="702" type="qcurve"/>
      <point x="407" y="600" type="line"/>
      <point x="322" y="542"/>
      <point x="244" y="360"/>
      <point x="244" y="258" type="qcurve"/>
      <point x="244" y="156"/>
      <point x="322" y="-26"/>
      <point x="407" y="-84" type="qcurve"/>
      <point x="290" y="-186" type="line"/>
      <point x="168" y="-110"/>
      <point x="40" y="118"/>
    </contour>
  </outline>
</glyph>
<glyph name="parenright" format="2">
  <advance width="407"/>
  <unicode hex="0029"/>
  <outline>
    <contour>
      <point x="367" y="258" type="qcurve"/>
      <point x="367" y="119"/>
      <point x="238" y="-110"/>
      <point x="116" y="-186" type="qcurve"/>
      <point x="0" y="-84" type="line"/>
      <point x="85" y="-26"/>
      <point x="163" y="156"/>
      <point x="163" y="258" type="qcurve"/>
      <point x="163" y="360"/>
      <point x="85" y="542"/>
      <point x="0" y="600" type="qcurve"/>
      <point x="117" y="702" type="line"/>
      <point x="239" y="626"/>
      <point x="367" y="398"/>
    </contour>
  </outline>
</glyph>
<glyph name="asterisk" format="2">
  <advance width="480"/>
  <unicode hex="002A"/>
  <outline>
    <contour>
      <point x="315" y="336" type="line"/>
      <point x="171" y="336" type="line"/>
      <point x="190" y="487" type="line"/>
      <point x="216" y="482" type="line"/>
      <point x="74" y="386" type="line"/>
      <point x="8" y="498" type="line"/>
      <point x="160" y="552" type="line"/>
      <point x="160" y="541" type="line"/>
      <point x="8" y="607" type="line"/>
      <point x="74" y="721" type="line"/>
      <point x="220" y="608" type="line"/>
      <point x="190" y="604" type="line"/>
      <point x="168" y="762" type="line"/>
      <point x="312" y="762" type="line"/>
      <point x="293" y="605" type="line"/>
      <point x="271" y="610" type="line"/>
      <point x="406" y="721" type="line"/>
      <point x="472" y="607" type="line"/>
      <point x="315" y="541" type="line"/>
      <point x="315" y="551" type="line"/>
      <point x="470" y="498" type="line"/>
      <point x="404" y="386" type="line"/>
      <point x="275" y="487" type="line"/>
      <point x="294" y="487" type="line"/>
    </contour>
  </outline>
</glyph>
<glyph name="comma" format="2">
  <advance width="302"/>
  <unicode hex="002C"/>
  <outline>
    <contour>
      <point x="149" y="140" type="qcurve"/>
      <point x="197" y="140"/>
      <point x="262" y="65"/>
      <point x="262" y="5" type="qcurve"/>
      <point x="262" y="-66"/>
      <point x="161" y="-194"/>
      <point x="82" y="-215" type="qcurve"/>
      <point x="30" y="-151" type="line"/>
      <point x="74" y="-134"/>
      <point x="126" y="-76"/>
      <point x="126" y="-56" type="qcurve"/>
      <point x="126" y="-47"/>
      <point x="117" y="-26"/>
      <point x="98" y="-15" type="qcurve"/>
      <point x="73" y="1"/>
      <point x="53" y="38"/>
      <point x="53" y="62" type="qcurve"/>
      <point x="53" y="98"/>
      <point x="107" y="140"/>
    </contour>
  </outline>
</glyph>
<glyph name="five" format="2">
  <advance width="617"/>
  <unicode hex="0035"/>
  <outline>
    <contour>
      <point x="572" y="238" type="qcurve"/>
      <point x="572" y="134"/>
      <point x="416" y="-7"/>
      <point x="301" y="-7" type="qcurve"/>
      <point x="214" y="-7"/>
      <point x="73" y="57"/>
      <point x="26" y="118" type="qcurve"/>
      <point x="141" y="243" type="line"/>
      <point x="177" y="203"/>
      <point x="247" y="173"/>
      <point x="291" y="173" type="qcurve"/>
      <point x="330" y="173"/>
      <point x="377" y="217"/>
      <point x="377" y="250" type="qcurve"/>
      <point x="377" y="284"/>
      <point x="327" y="329"/>
      <point x="287" y="329" type="qcurve"/>
      <point x="248" y="329"/>
      <point x="188" y="307"/>
      <point x="150" y="282" type="qcurve"/>
      <point x="66" y="392" type="line"/>
      <point x="111" y="710" type="line"/>
      <point x="531" y="710" type="line"/>
      <point x="531" y="535" type="line"/>
      <point x="201" y="535" type="line"/>
      <point x="262" y="619" type="line"/>
      <point x="229" y="397" type="line"/>
      <point x="144" y="411" type="line"/>
      <point x="182" y="442"/>
      <point x="280" y="483"/>
      <point x="332" y="483" type="qcurve"/>
      <point x="435" y="483"/>
      <point x="572" y="346"/>
    </contour>
  </outline>
</glyph>
<glyph name="six" format="2">
  <advance width="596"/>
  <unicode hex="0036"/>
  <outline>
    <contour>
      <point x="576" y="260" type="qcurve"/>
      <point x="576" y="149"/>
      <point x="419" y="0"/>
      <point x="302" y="0" type="qcurve"/>
      <point x="190" y="0"/>
      <point x="30" y="152"/>
      <point x="30" y="258" type="qcurve"/>
      <point x="30" y="344"/>
      <point x="90" y="465"/>
      <point x="134" y="538" type="qcurve"/>
      <point x="237" y="710" type="line"/>
      <point x="433" y="710" type="line"/>
      <point x="437" y="700" type="line"/>
      <point x="282" y="464" type="line"/>
      <point x="250" y="415"/>
      <point x="215" y="327"/>
      <point x="179" y="260" type="qcurve"/>
      <point x="141" y="303" type="line"/>
      <point x="148" y="382"/>
      <point x="293" y="489"/>
      <point x="355" y="489" type="qcurve"/>
      <point x="445" y="489"/>
      <point x="576" y="353"/>
    </contour>
    <contour>
      <point x="217" y="255" type="qcurve"/>
      <point x="217" y="218"/>
      <point x="267" y="170"/>
      <point x="306" y="170" type="qcurve"/>
      <point x="345" y="170"/>
      <point x="395" y="217"/>
      <point x="395" y="255" type="qcurve"/>
      <point x="395" y="288"/>
      <point x="343" y="339"/>
      <point x="306" y="339" type="qcurve"/>
      <point x="267" y="339"/>
      <point x="217" y="290"/>
    </contour>
  </outline>
</glyph>
<glyph name="eight" format="2">
  <advance width="613"/>
  <unicode hex="0038"/>
  <outline>
    <contour>
      <point x="555" y="529" type="qcurve"/>
      <point x="555" y="471"/>
      <point x="487" y="387"/>
      <point x="422" y="360" type="qcurve"/>
      <point x="409" y="411" type="line"/>
      <point x="485" y="398"/>
      <point x="583" y="301"/>
      <point x="583" y="209" type="qcurve"/>
      <point x="583" y="116"/>
      <point x="422" y="-3"/>
      <point x="306" y="-3" type="qcurve"/>
      <point x="191" y="-3"/>
      <point x="30" y="117"/>
      <point x="30" y="209" type="qcurve"/>
      <point x="30" y="300"/>
      <point x="121" y="397"/>
      <point x="205" y="415" type="qcurve"/>
      <point x="189" y="360" type="line"/>
      <point x="129" y="384"/>
      <point x="57" y="471"/>
      <point x="57" y="529" type="qcurve"/>
      <point x="57" y="614"/>
      <point x="203" y="720"/>
      <point x="306" y="720" type="qcurve"/>
      <point x="409" y="720"/>
      <point x="555" y="614"/>
    </contour>
    <contour>
      <point x="306" y="581" type="qcurve"/>
      <point x="277" y="581"/>
      <point x="240" y="545"/>
      <point x="240" y="518" type="qcurve"/>
      <point x="240" y="491"/>
      <point x="277" y="457"/>
      <point x="306" y="457" type="qcurve"/>
      <point x="335" y="457"/>
      <point x="372" y="491"/>
      <point x="372" y="518" type="qcurve"/>
      <point x="372" y="545"/>
      <point x="335" y="581"/>
    </contour>
    <contour>
      <point x="231" y="225" type="qcurve"/>
      <point x="231" y="195"/>
      <point x="275" y="156"/>
      <point x="306" y="156" type="qcurve"/>
      <point x="338" y="156"/>
      <point x="381" y="194"/>
      <point x="381" y="225" type="qcurve"/>
      <point x="381" y="255"/>
      <point x="339" y="294"/>
      <point x="306" y="294" type="qcurve"/>
      <point x="275" y="294"/>
      <point x="231" y="255"/>
    </contour>
  </outline>
</glyph>
<glyph name="colon" format="2">
  <advance width="281"/>
  <unicode hex="003A"/>
  <outline>
    <contour>
      <point x="238" y="89" type="qcurve"/>
      <point x="238" y="45"/>
      <point x="183" y="-11"/>
      <point x="139" y="-11" type="qcurve"/>
      <point x="92" y="-11"/>
      <point x="40" y="41"/>
      <point x="40" y="89" type="qcurve"/>
      <point x="40" y="133"/>
      <point x="95" y="189"/>
      <point x="139" y="189" type="qcurve"/>
      <point x="186" y="189"/>
      <point x="238" y="137"/>
    </contour>
    <contour>
      <point x="238" y="445" type="qcurve"/>
      <point x="238" y="401"/>
      <point x="183" y="345"/>
      <point x="139" y="345" type="qcurve"/>
      <point x="92" y="345"/>
      <point x="40" y="397"/>
      <point x="40" y="445" type="qcurve"/>
      <point x="40" y="489"/>
      <point x="95" y="545"/>
      <point x="139" y="545" type="qcurve"/>
      <point x="186" y="545"/>
      <point x="238" y="493"/>
    </contour>
  </outline>
</glyph>
<glyph name="semicolon" format="2">
  <advance width="305"/>
  <unicode hex="003B"/>
  <outline>
    <contour>
      <point x="160" y="140" type="qcurve"/>
      <point x="208" y="140"/>
      <point x="273" y="65"/>
      <point x="273" y="5" type="qcurve"/>
      <point x="273" y="-66"/>
      <point x="172" y="-194"/>
      <point x="93" y="-215" type="qcurve"/>
      <point x="41" y="-151" type="line"/>
      <point x="85" y="-134"/>
      <point x="137" y="-76"/>
      <point x="137" y="-56" type="qcurve"/>
      <point x="137" y="-47"/>
      <point x="128" y="-26"/>
      <point x="109" y="-15" type="qcurve"/>
      <point x="84" y="1"/>
      <point x="64" y="38"/>
      <point x="64" y="62" type="qcurve"/>
      <point x="64" y="98"/>
      <point x="118" y="140"/>
    </contour>
    <contour>
      <point x="252" y="446" type="qcurve"/>
      <point x="252" y="402"/>
      <point x="197" y="346"/>
      <point x="153" y="346" type="qcurve"/>
      <point x="106" y="346"/>
      <point x="54" y="398"/>
      <point x="54" y="446" type="qcurve"/>
      <point x="54" y="490"/>
      <point x="109" y="546"/>
      <point x="153" y="546" type="qcurve"/>
      <point x="200" y="546"/>
      <point x="252" y="494"/>
    </contour>
  </outline>
</glyph>
<glyph name="less" format="2">
  <advance width="526"/>
  <unicode hex="003C"/>
  <outline>
    <contour>
      <point x="196" y="226" type="line"/>
      <point x="196" y="297" type="line"/>
      <point x="521" y="139" type="line"/>
      <point x="443" y="-26" type="line"/>
      <point x="35" y="207" type="line"/>
      <point x="35" y="316" type="line"/>
      <point x="443" y="549" type="line"/>
      <point x="521" y="384" type="line"/>
    </contour>
  </outline>
</glyph>
<glyph name="equal" format="2">
  <advance width="666"/>
  <unicode hex="003D"/>
  <outline>
    <contour>
      <point x="586" y="321" type="line"/>
      <point x="80" y="321" type="line"/>
      <point x="80" y="481" type="line"/>
      <point x="586" y="481" type="line"/>
    </contour>
    <contour>
      <point x="586" y="82" type="line"/>
      <point x="80" y="82" type="line"/>
      <point x="80" y="242" type="line"/>
      <point x="586" y="242" type="line"/>
    </contour>
  </outline>
</glyph>
<glyph name="at" format="2">
  <advance width="965"/>
  <unicode hex="0040"/>
  <outline>
    <contour>
      <point x="925" y="396" type="qcurve"/>
      <point x="925" y="256"/>
      <point x="777" y="45"/>
      <point x="669" y="45" type="qcurve"/>
      <point x="607" y="45"/>
      <point x="527" y="104"/>
      <point x="528" y="151" type="qcurve"/>
      <point x="529" y="222" type="line"/>
      <point x="563" y="202" type="line"/>
      <point x="539" y="127"/>
      <point x="449" y="45"/>
      <point x="389" y="45" type="qcurve"/>
      <point x="317" y="45"/>
      <point x="221" y="152"/>
      <point x="221" y="237" type="qcurve"/>
      <point x="221" y="283"/>
      <point x="256" y="386"/>
      <point x="288" y="426" type="qcurve"/>
      <point x="326" y="475"/>
      <point x="414" y="530"/>
      <point x="466" y="530" type="qcurve"/>
      <point x="512" y="530"/>
      <point x="575" y="455"/>
      <point x="580" y="395" type="qcurve"/>
      <point x="545" y="391" type="line"/>
      <point x="576" y="517" type="line"/>
      <point x="752" y="517" type="line"/>
      <point x="688" y="201" type="line"/>
      <point x="686" y="185" type="line"/>
      <point x="684" y="171"/>
      <point x="704" y="157"/>
      <point x="720" y="157" type="qcurve"/>
      <point x="772" y="157"/>
      <point x="842" y="296"/>
      <point x="842" y="391" type="qcurve"/>
      <point x="842" y="504"/>
      <point x="697" y="633"/>
      <point x="568" y="633" type="qcurve"/>
      <point x="363" y="633"/>
      <point x="124" y="407"/>
      <point x="124" y="209" type="qcurve"/>
      <point x="124" y="72"/>
      <point x="276" y="-82"/>
      <point x="417" y="-82" type="qcurve"/>
      <point x="450" y="-82"/>
      <point x="505" y="-75"/>
      <point x="530" y="-68" type="qcurve"/>
      <point x="547" y="-63"/>
      <point x="582" y="-49"/>
      <point x="632" y="-22" type="qcurve"/>
      <point x="669" y="-89" type="line"/>
      <point x="581" y="-134"/>
      <point x="474" y="-162"/>
      <point x="414" y="-162" type="qcurve"/>
      <point x="239" y="-162"/>
      <point x="40" y="41"/>
      <point x="40" y="206" type="qcurve"/>
      <point x="40" y="318"/>
      <point x="120" y="506"/>
      <point x="196" y="575" type="qcurve"/>
      <point x="269" y="640"/>
      <point x="465" y="710"/>
      <point x="576" y="710" type="qcurve"/>
      <point x="735" y="710"/>
      <point x="925" y="536"/>
    </contour>
    <contour>
      <point x="410" y="249" type="qcurve"/>
      <point x="410" y="223"/>
      <point x="429" y="192"/>
      <point x="445" y="192" type="qcurve"/>
      <point x="475" y="192"/>
      <point x="531" y="251"/>
      <point x="540" y="301" type="qcurve"/>
      <point x="543" y="318"/>
      <point x="546" y="346"/>
      <point x="544" y="358" type="qcurve"/>
      <point x="542" y="375"/>
      <point x="519" y="394"/>
      <point x="501" y="394" type="qcurve"/>
      <point x="461" y="394"/>
      <point x="410" y="309"/>
    </contour>
  </outline>
</glyph>
<glyph name="P" format="2">
  <advance width="673"/>
  <unicode hex="0050"/>
  <outline>
    <contour>
      <point x="70" y="700" type="line"/>
      <point x="385" y="700" type="line"/>
      <point x="493" y="700"/>
      <point x="633" y="565"/>
      <point x="633" y="460" type="qcurve"/>
      <point x="633" y="350"/>
      <point x="493" y="208"/>
      <point x="385" y="208" type="qcurve"/>
      <point x="250" y="208" type="line"/>
      <point x="286" y="242" type="line"/>
      <point x="286" y="0" type="line"/>
      <point x="70" y="0" type="line"/>
    </contour>
    <contour>
      <point x="249" y="392" type="line"/>
      <point x="345" y="392" type="line"/>
      <point x="374" y="392"/>
      <point x="411" y="425"/>
      <point x="411" y="456" type="qcurve"/>
      <point x="411" y="487"/>
      <point x="374" y="516"/>
      <point x="345" y="516" type="qcurve"/>
      <point x="249" y="516" type="line"/>
      <point x="282" y="551" type="line"/>
      <point x="282" y="358" type="line"/>
    </contour>
  </outline>
</glyph>
<glyph name="Q" format="2">
  <advance width="834"/>
  <unicode hex="0051"/>
  <outline>
    <contour>
      <point x="417" y="720" type="qcurve"/>
      <point x="582" y="720"/>
      <point x="794" y="514"/>
      <point x="794" y="355" type="qcurve"/>
      <point x="794" y="196"/>
      <point x="582" y="-3"/>
      <point x="417" y="-3" type="qcurve"/>
      <point x="252" y="-3"/>
      <point x="40" y="196"/>
      <point x="40" y="355" type="qcurve"/>
      <point x="40" y="514"/>
      <point x="252" y="720"/>
    </contour>
    <contour>
      <point x="417" y="184" type="qcurve"/>
      <point x="486" y="184"/>
      <point x="575" y="283"/>
      <point x="575" y="358" type="qcurve"/>
      <point x="575" y="430"/>
      <point x="486" y="522"/>
      <point x="417" y="522" type="qcurve"/>
      <point x="348" y="522"/>
      <point x="259" y="430"/>
      <point x="259" y="358" type="qcurve"/>
      <point x="259" y="283"/>
      <point x="348" y="184"/>
    </contour>
    <contour>
      <point x="498" y="372" type="line"/>
      <point x="765" y="1" type="line"/>
      <point x="617" y="-110" type="line"/>
      <point x="347" y="264" type="line"/>
    </contour>
  </outline>
</glyph>
<glyph name="asciicircum" format="2">
  <advance width="602"/>
  <unicode hex="005E"/>
  <outline>
    <contour>
      <point x="193" y="356" type="line"/>
      <point x="0" y="356" type="line"/>
      <point x="226" y="737" type="line"/>
      <point x="376" y="737" type="line"/>
      <point x="602" y="356" type="line"/>
      <point x="406" y="356" type="line"/>
      <point x="236" y="653" type="line"/>
      <point x="367" y="654" type="line"/>
    </contour>
  </outline>
</glyph>
<glyph name="grave" format="2">
  <advance width="336"/>
  <unicode hex="0060"/>
  <outline>
    <contour>
      <point x="302" y="643" type="line"/>
      <point x="244" y="554" type="line"/>
      <point x="16" y="676" type="line"/>
      <point x="96" y="797" type="line"/>
    </contour>
  </outline>
</glyph>
<glyph name="b" format="2">
  <advance width="679"/>
  <unicode hex="0062"/>
  <outline>
    <contour>
      <point x="416" y="546" type="qcurve"/>
      <point x="518" y="546"/>
      <point x="649" y="388"/>
      <point x="649" y="267" type="qcurve"/>
      <point x="649" y="144"/>
      <point x="520" y="-11"/>
      <point x="421" y="-11" type="qcurve"/>
      <point x="347" y="-11"/>
      <point x="238" y="57"/>
      <point x="228" y="109" type="qcurve"/>
      <point x="269" y="118" type="line"/>
      <point x="253" y="0" type="line"/>
      <point x="70" y="0" type="line"/>
      <point x="70" y="740" type="line"/>
      <point x="274" y="740" type="line"/>
      <point x="274" y="404" type="line"/>
      <point x="229" y="418" type="line"/>
      <point x="242" y="473"/>
      <point x="348" y="546"/>
    </contour>
    <contour>
      <point x="450" y="267" type="qcurve"/>
      <point x="450" y="321"/>
      <point x="403" y="380"/>
      <point x="360" y="380" type="qcurve"/>
      <point x="316" y="380"/>
      <point x="269" y="321"/>
      <point x="269" y="267" type="qcurve"/>
      <point x="269" y="213"/>
      <point x="316" y="154"/>
      <point x="360" y="154" type="qcurve"/>
      <point x="403" y="154"/>
      <point x="450" y="213"/>
    </contour>
  </outline>
</glyph>
<glyph name="c" format="2">
  <advance width="553"/>
  <unicode hex="0063"/>
  <outline>
    <contour>
      <point x="329" y="373" type="qcurve"/>
      <point x="284" y="373"/>
      <point x="230" y="315"/>
      <point x="230" y="269" type="qcurve"/>
      <point x="230" y="224"/>
      <point x="282" y="164"/>
      <point x="329" y="164" type="qcurve"/>
      <point x="366" y="164"/>
      <point x="416" y="187"/>
      <point x="433" y="206" type="qcurve"/>
      <point x="542" y="75" type="line"/>
      <point x="505" y="34"/>
      <point x="383" y="-10"/>
      <point x="311" y="-10" type="qcurve"/>
      <point x="189" y="-10"/>
      <point x="30" y="147"/>
      <point x="30" y="268" type="qcurve"/>
      <point x="30" y="389"/>
      <point x="189" y="546"/>
      <point x="311" y="546" type="qcurve"/>
      <point x="383" y="546"/>
      <point x="505" y="502"/>
      <point x="543" y="460" type="qcurve"/>
      <point x="433" y="330" type="line"/>
      <point x="416" y="348"/>
      <point x="366" y="373"/>
    </contour>
  </outline>
</glyph>
<glyph name="d" format="2">
  <advance width="669"/>
  <unicode hex="0064"/>
  <outline>
    <contour>
      <point x="405" y="740" type="line"/>
      <point x="609" y="740" type="line"/>
      <point x="609" y="0" type="line"/>
      <point x="426" y="0" type="line"/>
      <point x="410" y="118" type="line"/>
      <point x="451" y="109" type="line"/>
      <point x="441" y="57"/>
      <point x="332" y="-11"/>
      <point x="258" y="-11" type="qcurve"/>
      <point x="159" y="-11"/>
      <point x="30" y="144"/>
      <point x="30" y="267" type="qcurve"/>
      <point x="30" y="388"/>
      <point x="161" y="546"/>
      <point x="263" y="546" type="qcurve"/>
      <point x="331" y="546"/>
      <point x="437" y="473"/>
      <point x="450" y="418" type="qcurve"/>
      <point x="405" y="404" type="line"/>
    </contour>
    <contour>
      <point x="229" y="267" type="qcurve"/>
      <point x="229" y="213"/>
      <point x="276" y="154"/>
      <point x="319" y="154" type="qcurve"/>
      <point x="363" y="154"/>
      <point x="410" y="213"/>
      <point x="410" y="267" type="qcurve"/>
      <point x="410" y="321"/>
      <point x="363" y="380"/>
      <point x="319" y="380" type="qcurve"/>
      <point x="276" y="380"/>
      <point x="229" y="321"/>
    </contour>
  </outline>
</glyph>
<glyph name="j" format="2">
  <advance width="369"/>
  <unicode hex="006A"/>
  <outline>
    <contour>
      <point x="283" y="535" type="line"/>
      <point x="283" y="23" type="line"/>
      <point x="283" y="-111"/>
      <point x="159" y="-219"/>
      <point x="34" y="-219" type="qcurve"/>
      <point x="-43" y="-62" type="line"/>
      <point x="33" y="-62"/>
      <point x="80" y="-11"/>
      <point x="80" y="71" type="qcurve"/>
      <point x="80" y="535" type="line"/>
    </contour>
    <contour>
      <point x="294" y="692" type="qcurve"/>
      <point x="294" y="650"/>
      <point x="232" y="596"/>
      <point x="179" y="596" type="qcurve"/>
      <point x="125" y="596"/>
      <point x="64" y="646"/>
      <point x="64" y="692" type="qcurve"/>
      <point x="64" y="734"/>
      <point x="126" y="788"/>
      <point x="179" y="788" type="qcurve"/>
      <point x="233" y="788"/>
      <point x="294" y="738"/>
    </contour>
  </outline>
</glyph>
<glyph name="l" format="2">
  <advance width="343"/>
  <unicode hex="006C"/>
  <outline>
    <contour>
      <point x="273" y="0" type="line"/>
      <point x="70" y="0" type="line"/>
      <point x="70" y="740" type="line"/>
      <point x="273" y="740" type="line"/>
    </contour>
  </outline>
</glyph>
<glyph name="m" format="2">
  <advance width="993"/>
  <unicode hex="006D"/>
  <outline>
    <contour>
      <point x="408" y="546" type="qcurve"/>
      <point x="461" y="546"/>
      <point x="535" y="501"/>
      <point x="572" y="434" type="qcurve"/>
      <point x="541" y="435" type="line"/>
      <point x="551" y="449" type="line"/>
      <point x="593" y="506"/>
      <point x="686" y="546"/>
      <point x="740" y="546" type="qcurve"/>
      <point x="833" y="546"/>
      <point x="933" y="434"/>
      <point x="933" y="330" type="qcurve"/>
      <point x="933" y="0" type="line"/>
      <point x="730" y="0" type="line"/>
      <point x="730" y="313" type="line"/>
      <point x="730" y="346"/>
      <point x="698" y="381"/>
      <point x="670" y="381" type="qcurve"/>
      <point x="640" y="381"/>
      <point x="603" y="345"/>
      <point x="603" y="318" type="qcurve"/>
      <point x="603" y="0" type="line"/>
      <point x="400" y="0" type="line"/>
      <point x="400" y="313" type="line"/>
      <point x="400" y="346"/>
      <point x="368" y="381"/>
      <point x="340" y="381" type="qcurve"/>
      <point x="310" y="381"/>
      <point x="273" y="345"/>
      <point x="273" y="318" type="qcurve"/>
      <point x="273" y="0" type="line"/>
      <point x="70" y="0" type="line"/>
      <point x="70" y="535" type="line"/>
      <point x="258" y="535" type="line"/>
      <point x="266" y="451" type="line"/>
      <point x="243" y="459" type="line"/>
      <point x="290" y="510"/>
      <point x="365" y="546"/>
    </contour>
  </outline>
</glyph>
<glyph name="x" format="2">
  <advance width="639"/>
  <unicode hex="0078"/>
  <outline>
    <contour>
      <point x="29" y="535" type="line"/>
      <point x="267" y="535" type="line"/>
      <point x="333" y="413" type="line"/>
      <point x="434" y="273" type="line"/>
      <point x="619" y="0" type="line"/>
      <point x="381" y="0" type="line"/>
      <point x="310" y="134" type="line"/>
      <point x="209" y="274" type="line"/>
    </contour>
    <contour>
      <point x="258" y="0" type="line"/>
      <point x="20" y="0" type="line"/>
      <point x="239" y="319" type="line"/>
      <point x="344" y="194" type="line"/>
    </contour>
    <contour>
      <point x="376" y="535" type="line"/>
      <point x="614" y="535" type="line"/>
      <point x="394" y="214" type="line"/>
      <point x="289" y="339" type="line"/>
    </contour>
  </outline>
</glyph>
<glyph name="asciitilde" format="2">
  <advance width="594"/>
  <unicode hex="007E"/>
  <outline>
    <contour>
      <point x="403" y="185" type="qcurve"/>
      <point x="387" y="185"/>
      <point x="340" y="196"/>
      <point x="281" y="218" type="qcurve"/>
      <point x="244" y="233"/>
      <point x="220" y="240"/>
      <point x="212" y="240" type="qcurve"/>
      <point x="192" y="240"/>
      <point x="171" y="206"/>
      <point x="171" y="173" type="qcurve"/>
      <point x="26" y="173" type="line"/>
      <point x="26" y="289"/>
      <point x="109" y="413"/>
      <point x="200" y="413" type="qcurve"/>
      <point x="216" y="413"/>
      <point x="260" y="401"/>
      <point x="314" y="379" type="qcurve"/>
      <point x="349" y="365"/>
      <point x="370" y="357"/>
      <point x="378" y="357" type="qcurve"/>
      <point x="397" y="357"/>
      <point x="421" y="396"/>
      <point x="419" y="424" type="qcurve"/>
      <point x="564" y="424" type="line"/>
      <point x="564" y="306"/>
      <point x="483" y="185"/>
    </contour>
  </outline>
</glyph>
<glyph name="exclamdown" format="2">
  <advance width="364"/>
  <unicode hex="00A1"/>
  <outline>
    <contour>
      <point x="117" y="264" type="qcurve"/>
      <point x="247" y="264" type="line"/>
      <point x="261" y="175"/>
      <point x="289" y="-16"/>
      <point x="289" y="-105" type="qcurve"/>
      <point x="289" y="-190" type="line"/>
      <point x="75" y="-190" type="line"/>
      <point x="75" y="-105" type="line"/>
      <point x="75" y="-17"/>
      <point x="103" y="176"/>
    </contour>
    <contour>
      <point x="82" y="441" type="qcurve"/>
      <point x="82" y="485"/>
      <point x="137" y="541"/>
      <point x="181" y="541" type="qcurve"/>
      <point x="228" y="541"/>
      <point x="280" y="489"/>
      <point x="280" y="441" type="qcurve"/>
      <point x="280" y="397"/>
      <point x="225" y="341"/>
      <point x="181" y="341" type="qcurve"/>
      <point x="134" y="341"/>
      <point x="82" y="393"/>
    </contour>
  </outline>
</glyph>
<glyph name="copyright" format="2">
  <advance width="794"/>
  <unicode hex="00A9"/>
  <outline>
    <contour>
      <point x="773" y="350" type="qcurve"/>
      <point x="773" y="192"/>
      <point x="553" y="-27"/>
      <point x="396" y="-27" type="qcurve"/>
      <point x="238" y="-27"/>
      <point x="19" y="192"/>
      <point x="19" y="350" type="qcurve"/>
      <point x="19" y="508"/>
      <point x="238" y="727"/>
      <point x="396" y="727" type="qcurve"/>
      <point x="553" y="727"/>
      <point x="773" y="508"/>
    </contour>
    <contour>
      <point x="93" y="350" type="qcurve"/>
      <point x="93" y="224"/>
      <point x="269" y="47"/>
      <point x="396" y="47" type="qcurve"/>
      <point x="522" y="47"/>
      <point x="699" y="224"/>
      <point x="699" y="350" type="qcurve"/>
      <point x="699" y="477"/>
      <point x="522" y="653"/>
      <point x="396" y="653" type="qcurve"/>
      <point x="270" y="653"/>
      <point x="93" y="477"/>
    </contour>
    <contour>
      <point x="410" y="144" type="qcurve"/>
      <point x="322" y="144"/>
      <point x="199" y="261"/>
      <point x="199" y="349" type="qcurve"/>
      <point x="199" y="435"/>
      <point x="322" y="557"/>
      <point x="410" y="557" type="qcurve"/>
      <point x="447" y="557"/>
      <point x="516" y="531"/>
      <point x="550" y="506" type="qcurve"/>
      <point x="492" y="379" type="line"/>
      <point x="475" y="391"/>
      <point x="444" y="401"/>
      <point x="431" y="401" type="qcurve"/>
      <point x="406" y="401"/>
      <point x="374" y="371"/>
      <point x="374" y="349" type="qcurve"/>
      <point x="374" y="326"/>
      <point x="406" y="296"/>
      <point x="431" y="296" type="qcurve"/>
      <point x="444" y="296"/>
      <point x="477" y="305"/>
      <point x="494" y="318" type="qcurve"/>
      <point x="554" y="189" type="line"/>
      <point x="521" y="166"/>
      <point x="448" y="144"/>
    </contour>
  </outline>
</glyph>
<glyph name="degree" format="2">
  <advance width="532"/>
  <unicode hex="00B0"/>
  <outline>
    <contour>
      <point x="442" y="554" type="qcurve"/>
      <point x="442" y="485"/>
      <point x="340" y="389"/>
      <point x="266" y="389" type="qcurve"/>
      <point x="192" y="389"/>
      <point x="90" y="485"/>
      <point x="90" y="553" type="qcurve"/>
      <point x="90" y="623"/>
      <point x="190" y="719"/>
      <point x="266" y="719" type="qcurve"/>
      <point x="342" y="719"/>
      <point x="442" y="623"/>
    </contour>
    <contour>
      <point x="221" y="553" type="qcurve"/>
      <point x="221" y="533"/>
      <point x="247" y="506"/>
      <point x="266" y="506" type="qcurve"/>
      <point x="285" y="506"/>
      <point x="311" y="534"/>
      <point x="311" y="554" type="qcurve"/>
      <point x="311" y="574"/>
      <point x="285" y="601"/>
      <point x="266" y="601" type="qcurve"/>
      <point x="246" y="601"/>
      <point x="221" y="573"/>
    </contour>
  </outline>
</glyph>
<glyph name="uni00B2" format="2">
  <advance width="383"/>
  <unicode hex="00B2"/>
  <outline>
    <contour>
      <point x="353" y="418" type="line"/>
      <point x="52" y="418" type="line"/>
      <point x="35" y="511" type="line"/>
      <point x="140" y="582" type="line"/>
      <point x="154" y="592"/>
      <point x="179" y="613"/>
      <point x="194" y="628" type="qcurve"/>
      <point x="203" y="637"/>
      <point x="211" y="656"/>
      <point x="211" y="665" type="qcurve"/>
      <point x="211" y="673"/>
      <point x="196" y="690"/>
      <point x="182" y="690" type="qcurve"/>
      <point x="171" y="690"/>
      <point x="145" y="668"/>
      <point x="126" y="638" type="qcurve"/>
      <point x="30" y="706" type="line"/>
      <point x="68" y="757"/>
      <point x="146" y="807"/>
      <point x="200" y="807" type="qcurve"/>
      <point x="264" y="807"/>
      <point x="340" y="737"/>
      <point x="340" y="691" type="qcurve"/>
      <point x="340" y="617"/>
      <point x="245" y="538"/>
      <point x="189" y="510" type="qcurve"/>
      <point x="145" y="488" type="line"/>
      <point x="145" y="525" type="line"/>
      <point x="353" y="525" type="line"/>
    </contour>
  </outline>
</glyph>
<glyph name="uni00B3" format="2">
  <advance width="366"/>
  <unicode hex="00B3"/>
  <outline>
    <contour>
      <point x="336" y="535" type="qcurve"/>
      <point x="336" y="480"/>
      <point x="250" y="412"/>
      <point x="196" y="412" type="qcurve"/>
      <point x="144" y="412"/>
      <point x="75" y="427"/>
      <point x="30" y="446" type="qcurve"/>
      <point x="84" y="541" type="line"/>
      <point x="100" y="533"/>
      <point x="138" y="523"/>
      <point x="158" y="523" type="qcurve"/>
      <point x="177" y="523"/>
      <point x="201" y="539"/>
      <point x="201" y="551" type="qcurve"/>
      <point x="201" y="562"/>
      <point x="179" y="576"/>
      <point x="158" y="576" type="qcurve"/>
      <point x="144" y="576"/>
      <point x="117" y="571"/>
      <point x="102" y="568" type="qcurve"/>
      <point x="77" y="632" type="line"/>
      <point x="250" y="739" type="line"/>
      <point x="250" y="694" type="line"/>
      <point x="62" y="694" type="line"/>
      <point x="62" y="801" type="line"/>
      <point x="304" y="801" type="line"/>
      <point x="316" y="703" type="line"/>
      <point x="181" y="614" type="line"/>
      <point x="181" y="620" type="line"/>
      <point x="195" y="629"/>
      <point x="225" y="638"/>
      <point x="235" y="638" type="qcurve"/>
      <point x="275" y="638"/>
      <point x="336" y="581"/>
    </contour>
  </outline>
</glyph>
<glyph name="acute" format="2">
  <advance width="336"/>
  <unicode hex="00B4"/>
  <outline>
    <contour>
      <point x="296" y="676" type="line"/>
      <point x="68" y="554" type="line"/>
      <point x="10" y="643" type="line"/>
      <point x="216" y="797" type="line"/>
    </contour>
  </outline>
</glyph>
<glyph name="uni00B5" format="2">
  <advance width="679"/>
  <unicode hex="00B5"/>
  <outline>
    <contour>
      <point x="404" y="535" type="line"/>
      <point x="607" y="535" type="line"/>
      <point x="607" y="0" type="line"/>
      <point x="421" y="0" type="line"/>
      <point x="410" y="89" type="line"/>
      <point x="432" y="83" type="line"/>
      <point x="393" y="31"/>
      <point x="323" y="-6"/>
      <point x="261" y="-12" type="qcurve"/>
      <point x="257" y="-12"/>
      <point x="248" y="-13"/>
      <point x="243" y="-13" type="qcurve"/>
      <point x="263" y="69" type="line"/>
      <point x="273" y="-165" type="line"/>
      <point x="70" y="-165" type="line"/>
      <point x="70" y="535" type="line"/>
      <point x="273" y="535" type="line"/>
      <point x="273" y="222" type="line"/>
      <point x="273" y="189"/>
      <point x="306" y="154"/>
      <point x="336" y="154" type="qcurve"/>
      <point x="366" y="154"/>
      <point x="404" y="190"/>
      <point x="404" y="217" type="qcurve"/>
    </contour>
  </outline>
</glyph>
<glyph name="paragraph" format="2">
  <advance width="796"/>
  <unicode hex="00B6"/>
  <outline>
    <contour>
      <point x="726" y="0" type="line"/>
      <point x="518" y="0" type="line"/>
      <point x="518" y="660" type="line"/>
      <point x="594" y="596" type="line"/>
      <point x="357" y="596" type="line"/>
      <point x="461" y="652" type="line"/>
      <point x="461" y="0" type="line"/>
      <point x="253" y="0" type="line"/>
      <point x="253" y="314" type="line"/>
      <point x="317" y="269" type="line"/>
      <point x="233" y="269" type="line"/>
      <point x="152" y="269"/>
      <point x="45" y="389"/>
      <point x="45" y="481" type="qcurve"/>
      <point x="45" y="580"/>
      <point x="168" y="700"/>
      <point x="270" y="700" type="qcurve"/>
      <point x="726" y="700" type="line"/>
    </contour>
  </outline>
</glyph>
<glyph name="cedilla" format="2">
  <advance width="303"/>
  <unicode hex="00B8"/>
  <outline>
    <contour>
      <point x="123" y="-87" type="line"/>
      <point x="40" y="-80" type="line"/>
      <point x="107" y="24" type="line"/>
      <point x="206" y="24" type="line"/>
    </contour>
    <contour>
      <point x="263" y="-139" type="qcurve"/>
      <point x="263" y="-163"/>
      <point x="227" y="-213"/>
      <point x="195" y="-228" type="qcurve"/>
      <point x="164" y="-241"/>
      <point x="86" y="-248"/>
      <point x="43" y="-247" type="qcurve"/>
      <point x="32" y="-156" type="line"/>
      <point x="59" y="-156"/>
      <point x="118" y="-142"/>
      <point x="118" y="-125" type="qcurve"/>
      <point x="118" y="-110"/>
      <point x="86" y="-96"/>
      <point x="61" y="-96" type="qcurve"/>
      <point x="40" y="-82" type="line"/>
      <point x="40" y="-80" type="line"/>
      <point x="143" y="-39" type="line"/>
      <point x="205" y="-39"/>
      <point x="263" y="-98"/>
    </contour>
  </outline>
</glyph>
<glyph name="guillemotright" format="2">
  <advance width="615"/>
  <unicode hex="00BB"/>
  <outline>
    <contour>
      <point x="434" y="288" type="line"/>
      <point x="434" y="237" type="line"/>
      <point x="309" y="435" type="line"/>
      <point x="422" y="512" type="line"/>
      <point x="610" y="273" type="line"/>
      <point x="610" y="252" type="line"/>
      <point x="422" y="13" type="line"/>
      <point x="309" y="90" type="line"/>
    </contour>
    <contour>
      <point x="160" y="288" type="line"/>
      <point x="160" y="237" type="line"/>
      <point x="35" y="435" type="line"/>
      <point x="148" y="512" type="line"/>
      <point x="336" y="273" type="line"/>
      <point x="336" y="252" type="line"/>
      <point x="148" y="13" type="line"/>
      <point x="35" y="90" type="line"/>
    </contour>
  </outline>
</glyph>
<glyph name="onehalf" format="2">
  <advance width="858"/>
  <unicode hex="00BD"/>
  <outline>
    <contour>
      <point x="261" y="740" type="line"/>
      <point x="261" y="361" type="line"/>
      <point x="222" y="361"/>
      <point x="157" y="361"/>
      <point x="118" y="361" type="qcurve"/>
      <point x="118" y="666" type="line"/>
      <point x="144" y="608" type="line"/>
      <point x="74" y="566" type="line"/>
      <point x="20" y="662" type="line"/>
      <point x="152" y="740" type="line"/>
    </contour>
    <contour>
      <point x="250" y="0" type="line"/>
      <point x="72" y="0" type="line"/>
      <point x="335" y="393" type="line"/>
      <point x="535" y="700" type="line"/>
      <point x="718" y="700" type="line"/>
      <point x="455" y="307" type="line"/>
    </contour>
    <contour>
      <point x="818" y="0" type="line"/>
      <point x="517" y="0" type="line"/>
      <point x="500" y="93" type="line"/>
      <point x="605" y="164" type="line"/>
      <point x="619" y="174"/>
      <point x="644" y="195"/>
      <point x="659" y="210" type="qcurve"/>
      <point x="668" y="219"/>
      <point x="676" y="238"/>
      <point x="676" y="247" type="qcurve"/>
      <point x="676" y="255"/>
      <point x="661" y="272"/>
      <point x="647" y="272" type="qcurve"/>
      <point x="636" y="272"/>
      <point x="610" y="250"/>
      <point x="591" y="220" type="qcurve"/>
      <point x="495" y="288" type="line"/>
      <point x="533" y="339"/>
      <point x="611" y="389"/>
      <point x="665" y="389" type="qcurve"/>
      <point x="729" y="389"/>
      <point x="805" y="319"/>
      <point x="805" y="273" type="qcurve"/>
      <point x="805" y="199"/>
      <point x="710" y="120"/>
      <point x="654" y="92" type="qcurve"/>
      <point x="610" y="70" type="line"/>
      <point x="610" y="107" type="line"/>
      <point x="818" y="107" type="line"/>
    </contour>
  </outline>
</glyph>
<glyph name="Agrave" format="2">
  <advance width="690"/>
  <unicode hex="00C0"/>
  <outline>
    <contour>
      <point x="327" y="496" type="qcurve"/>
      <point x="361" y="496" type="line"/>
      <point x="348" y="433"/>
      <point x="326" y="367"/>
      <point x="302" y="306" type="qcurve"/>
      <point x="190" y="0" type="line"/>
      <point x="-20" y="0" type="line"/>
      <point x="261" y="700" type="line"/>
      <point x="431" y="700" type="line"/>
      <point x="710" y="0" type="line"/>
      <point x="496" y="0" type="line"/>
      <point x="384" y="306" type="line"/>
      <point x="361" y="368"/>
      <point x="340" y="433"/>
    </contour>
    <contour>
      <point x="346" y="104" type="line"/>
      <point x="120" y="104" type="line"/>
      <point x="183" y="251" type="line"/>
      <point x="346" y="251" type="line"/>
    </contour>
    <contour>
      <point x="565" y="104" type="line"/>
      <point x="346" y="104" type="line"/>
      <point x="346" y="251" type="line"/>
      <point x="508" y="251" type="line"/>
    </contour>
    <contour>
      <point x="448" y="863" type="line"/>
      <point x="388" y="770" type="line"/>
      <point x="160" y="892" type="line"/>
      <point x="243" y="1017" type="line"/>
    </contour>
  </outline>
</glyph>
<glyph name="Adieresis" format="2">
  <advance width="690"/>
  <unicode hex="00C4"/>
  <outline>
    <contour>
      <point x="327" y="496" type="qcurve"/>
      <point x="361" y="496" type="line"/>
      <point x="348" y="433"/>
      <point x="326" y="367"/>
      <point x="302" y="306" type="qcurve"/>
      <point x="190" y="0" type="line"/>
      <point x="-20" y="0" type="line"/>
      <point x="261" y="700" type="line"/>
      <point x="431" y="700" type="line"/>
      <point x="710" y="0" type="line"/>
      <point x="496" y="0" type="line"/>
      <point x="384" y="306" type="line"/>
      <point x="361" y="368"/>
      <point x="340" y="433"/>
    </contour>
    <contour>
      <point x="346" y="104" type="line"/>
      <point x="120" y="104" type="line"/>
      <point x="183" y="251" type="line"/>
      <point x="346" y="251" type="line"/>
    </contour>
    <contour>
      <point x="565" y="104" type="line"/>
      <point x="346" y="104" type="line"/>
      <point x="346" y="251" type="line"/>
      <point x="508" y="251" type="line"/>
    </contour>
    <contour>
      <point x="310" y="870" type="qcurve"/>
      <point x="310" y="826"/>
      <point x="256" y="770"/>
      <point x="210" y="770" type="qcurve"/>
      <point x="162" y="770"/>
      <point x="110" y="822"/>
      <point x="110" y="870" type="qcurve"/>
      <point x="110" y="914"/>
      <point x="164" y="970"/>
      <point x="210" y="970" type="qcurve"/>
      <point x="258" y="970"/>
      <point x="310" y="919"/>
    </contour>
    <contour>
      <point x="580" y="870" type="qcurve"/>
      <point x="580" y="826"/>
      <point x="526" y="770"/>
      <point x="480" y="770" type="qcurve"/>
      <point x="432" y="770"/>
      <point x="380" y="822"/>
      <point x="380" y="870" type="qcurve"/>
      <point x="380" y="914"/>
      <point x="434" y="970"/>
      <point x="480" y="970" type="qcurve"/>
      <point x="528" y="970"/>
      <point x="580" y="919"/>
    </contour>
  </outline>
</glyph>
<glyph name="Ccedilla" format="2">
  <advance width="695"/>
  <unicode hex="00C7"/>
  <outline>
    <contour>
      <point x="590" y="249" type="qcurve"/>
      <point x="693" y="87" type="line"/>
      <point x="654" y="45"/>
      <point x="503" y="-10"/>
      <point x="424" y="-10" type="qcurve"/>
      <point x="255" y="-10"/>
      <point x="40" y="195"/>
      <point x="40" y="355" type="qcurve"/>
      <point x="40" y="515"/>
      <point x="258" y="720"/>
      <point x="430" y="720" type="qcurve"/>
      <point x="503" y="720"/>
      <point x="642" y="668"/>
      <point x="694" y="614" type="qcurve"/>
      <point x="565" y="463" type="line"/>
      <point x="544" y="489"/>
      <point x="477" y="525"/>
      <point x="428" y="525" type="qcurve"/>
      <point x="359" y="525"/>
      <point x="262" y="435"/>
      <point x="262" y="352" type="qcurve"/>
      <point x="262" y="276"/>
      <point x="362" y="184"/>
      <point x="446" y="184" type="qcurve"/>
      <point x="491" y="184"/>
      <point x="566" y="222"/>
    </contour>
    <contour>
      <point x="394" y="-82" type="line"/>
      <point x="311" y="-75" type="line"/>
      <point x="378" y="29" type="line"/>
      <point x="477" y="29" type="line"/>
    </contour>
    <contour>
      <point x="534" y="-134" type="qcurve"/>
      <point x="534" y="-158"/>
      <point x="498" y="-208"/>
      <point x="466" y="-223" type="qcurve"/>
      <point x="435" y="-236"/>
      <point x="357" y="-243"/>
      <point x="314" y="-242" type="qcurve"/>
      <point x="303" y="-151" type="line"/>
      <point x="330" y="-151"/>
      <point x="389" y="-137"/>
      <point x="389" y="-120" type="qcurve"/>
      <point x="389" y="-105"/>
      <point x="357" y="-91"/>
      <point x="332" y="-91" type="qcurve"/>
      <point x="311" y="-77" type="line"/>
      <point x="311" y="-75" type="line"/>
      <point x="414" y="-34" type="line"/>
      <point x="476" y="-34"/>
      <point x="534" y="-93"/>
    </contour>
  </outline>
</glyph>
<glyph name="Ecircumflex" format="2">
  <advance width="668"/>
  <unicode hex="00CA"/>
  <outline>
    <contour>
      <point x="287" y="0" type="line"/>
      <point x="80" y="0" type="line"/>
      <point x="80" y="700" type="line"/>
      <point x="287" y="700" type="line"/>
    </contour>
    <contour>
      <point x="621" y="0" type="line"/>
      <point x="183" y="0" type="line"/>
      <point x="183" y="175" type="line"/>
      <point x="621" y="175" type="line"/>
    </contour>
    <contour>
      <point x="566" y="272" type="line"/>
      <point x="183" y="272" type="line"/>
      <point x="183" y="436" type="line"/>
      <point x="566" y="436" type="line"/>
    </contour>
    <contour>
      <point x="603" y="525" type="line"/>
      <point x="183" y="525" type="line"/>
      <point x="183" y="700" type="line"/>
      <point x="603" y="700" type="line"/>
    </contour>
    <contour>
      <point x="488" y="777" type="line"/>
      <point x="335" y="863" type="line"/>
      <point x="365" y="863" type="line"/>
      <point x="212" y="777" type="line"/>
      <point x="144" y="845" type="line"/>
      <point x="299" y="971" type="line"/>
      <point x="401" y="971" type="line"/>
      <point x="556" y="845" type="line"/>
    </contour>
  </outline>
</glyph>
<glyph name="Edieresis" format="2">
  <advance width="668"/>
  <unicode hex="00CB"/>
  <outline>
    <contour>
      <point x="287" y="0" type="line"/>
      <point x="80" y="0" type="line"/>
      <point x="80" y="700" type="line"/>
      <point x="287" y="700" type="line"/>
    </contour>
    <contour>
      <point x="621" y="0" type="line"/>
      <point x="183" y="0" type="line"/>
      <point x="183" y="175" type="line"/>
      <point x="621" y="175" type="line"/>
    </contour>
    <contour>
      <point x="566" y="272" type="line"/>
      <point x="183" y="272" type="line"/>
      <point x="183" y="436" type="line"/>
      <point x="566" y="436" type="line"/>
    </contour>
    <contour>
      <point x="603" y="525" type="line"/>
      <point x="183" y="525" type="line"/>
      <point x="183" y="700" type="line"/>
      <point x="603" y="700" type="line"/>
    </contour>
    <contour>
      <point x="314" y="870" type="qcurve"/>
      <point x="314" y="826"/>
      <point x="260" y="770"/>
      <point x="214" y="770" type="qcurve"/>
      <point x="166" y="770"/>
      <point x="114" y="822"/>
      <point x="114" y="870" type="qcurve"/>
      <point x="114" y="914"/>
      <point x="168" y="970"/>
      <point x="214" y="970" type="qcurve"/>
      <point x="262" y="970"/>
      <point x="314" y="919"/>
    </contour>
    <contour>
      <point x="584" y="870" type="qcurve"/>
      <point x="584" y="826"/>
      <point x="530" y="770"/>
      <point x="484" y="770" type="qcurve"/>
      <point x="436" y="770"/>
      <point x="384" y="822"/>
      <point x="384" y="870" type="qcurve"/>
      <point x="384" y="914"/>
      <point x="438" y="970"/>
      <point x="484" y="970" type="qcurve"/>
      <point x="532" y="970"/>
      <point x="584" y="919"/>
    </contour>
  </outline>
</glyph>
<glyph name="Icircumflex" format="2">
  <advance width="602"/>
  <unicode hex="00CE"/>
  <outline>
    <contour>
      <point x="414" y="700" type="qcurve"/>
      <point x="414" y="0" type="line"/>
      <point x="198" y="0" type="line"/>
      <point x="198" y="700" type="line"/>
      <point x="225" y="700"/>
      <point x="387" y="700"/>
    </contour>
    <contour>
      <point x="537" y="700" type="line"/>
      <point x="537" y="525" type="line"/>
      <point x="75" y="525" type="line"/>
      <point x="75" y="700" type="line"/>
    </contour>
    <contour>
      <point x="537" y="175" type="line"/>
      <point x="537" y="0" type="line"/>
      <point x="75" y="0" type="line"/>
      <point x="75" y="175" type="line"/>
    </contour>
    <contour>
      <point x="440" y="777" type="line"/>
      <point x="287" y="863" type="line"/>
      <point x="317" y="863" type="line"/>
      <point x="164" y="777" type="line"/>
      <point x="96" y="845" type="line"/>
      <point x="251" y="971" type="line"/>
      <point x="353" y="971" type="line"/>
      <point x="508" y="845" type="line"/>
    </contour>
  </outline>
</glyph>
<glyph name="Ntilde" format="2">
  <advance width="797"/>
  <unicode hex="00D1"/>
  <outline>
    <contour>
      <point x="519" y="570" type="qcurve"/>
      <point x="519" y="700" type="line"/>
      <point x="727" y="700" type="line"/>
      <point x="727" y="0" type="line"/>
      <point x="532" y="0" type="line"/>
      <point x="177" y="490" type="line"/>
      <point x="258" y="466" type="line"/>
      <point x="270" y="374"/>
      <point x="278" y="283"/>
      <point x="278" y="191" type="qcurve"/>
      <point x="278" y="0" type="line"/>
      <point x="70" y="0" type="line"/>
      <point x="70" y="700" type="line"/>
      <point x="263" y="700" type="line"/>
      <point x="585" y="255" type="line"/>
      <point x="539" y="269" type="line"/>
      <point x="527" y="369"/>
      <point x="518" y="470"/>
    </contour>
    <contour>
      <point x="314" y="771" type="qcurve"/>
      <point x="197" y="771" type="line"/>
      <point x="197" y="846"/>
      <point x="270" y="934"/>
      <point x="333" y="934" type="qcurve"/>
      <point x="348" y="934"/>
      <point x="382" y="925"/>
      <point x="414" y="911" type="qcurve"/>
      <point x="435" y="902"/>
      <point x="452" y="894"/>
      <point x="459" y="894" type="qcurve"/>
      <point x="472" y="894"/>
      <point x="485" y="916"/>
      <point x="484" y="934" type="qcurve"/>
      <point x="600" y="934" type="line"/>
      <point x="600" y="864"/>
      <point x="532" y="770"/>
      <point x="478" y="770" type="qcurve"/>
      <point x="461" y="770"/>
      <point x="422" y="780"/>
      <point x="385" y="794" type="qcurve"/>
      <point x="364" y="802"/>
      <point x="347" y="810"/>
      <point x="341" y="810" type="qcurve"/>
      <point x="329" y="810"/>
      <point x="314" y="789"/>
    </contour>
  </outline>
</glyph>
<glyph name="Ograve" format="2">
  <advance width="834"/>
  <unicode hex="00D2"/>
  <outline>
    <contour>
      <point x="417" y="720" type="qcurve"/>
      <point x="582" y="720"/>
      <point x="794" y="514"/>
      <point x="794" y="355" type="qcurve"/>
      <point x="794" y="196"/>
      <point x="582" y="-10"/>
      <point x="417" y="-10" type="qcurve"/>
      <point x="252" y="-10"/>
      <point x="40" y="196"/>
      <point x="40" y="355" type="qcurve"/>
      <point x="40" y="514"/>
      <point x="252" y="720"/>
    </contour>
    <contour>
      <point x="417" y="190" type="qcurve"/>
      <point x="485" y="190"/>
      <point x="574" y="283"/>
      <point x="574" y="355" type="qcurve"/>
      <point x="574" y="427"/>
      <point x="485" y="520"/>
      <point x="417" y="520" type="qcurve"/>
      <point x="349" y="520"/>
      <point x="260" y="427"/>
      <point x="260" y="355" type="qcurve"/>
      <point x="260" y="283"/>
      <point x="349" y="190"/>
    </contour>
    <contour>
      <point x="530" y="863" type="line"/>
      <point x="470" y="770" type="line"/>
      <point x="242" y="892" type="line"/>
      <point x="325" y="1017" type="line"/>
    </contour>
  </outline>
</glyph>
<glyph name="adieresis" format="2">
  <advance width="679"/>
  <unicode hex="00E4"/>
  <outline>
    <contour>
      <point x="410" y="535" type="line"/>
      <point x="609" y="535" type="line"/>
      <point x="609" y="0" type="line"/>
      <point x="405" y="0" type="line"/>
      <point x="405" y="131" type="line"/>
      <point x="450" y="127" type="line"/>
      <point x="429" y="69"/>
      <point x="333" y="-9"/>
      <point x="261" y="-9" type="qcurve"/>
      <point x="161" y="-9"/>
      <point x="30" y="147"/>
      <point x="30" y="268" type="qcurve"/>
      <point x="30" y="391"/>
      <point x="159" y="546"/>
      <point x="263" y="546" type="qcurve"/>
      <point x="336" y="546"/>
      <point x="428" y="470"/>
      <point x="451" y="416" type="qcurve"/>
      <point x="410" y="417" type="line"/>
    </contour>
    <contour>
      <point x="229" y="268" type="qcurve"/>
      <point x="229" y="214"/>
      <point x="276" y="156"/>
      <point x="319" y="156" type="qcurve"/>
      <point x="363" y="156"/>
      <point x="410" y="214"/>
      <point x="410" y="268" type="qcurve"/>
      <point x="410" y="322"/>
      <point x="363" y="381"/>
      <point x="319" y="381" type="qcurve"/>
      <point x="276" y="381"/>
      <point x="229" y="322"/>
    </contour>
    <contour>
      <point x="324" y="715" type="qcurve"/>
      <point x="324" y="671"/>
      <point x="270" y="615"/>
      <point x="224" y="615" type="qcurve"/>
      <point x="176" y="615"/>
      <point x="124" y="667"/>
      <point x="124" y="715" type="qcurve"/>
      <point x="124" y="759"/>
      <point x="178" y="815"/>
      <point x="224" y="815" type="qcurve"/>
      <point x="272" y="815"/>
      <point x="324" y="764"/>
    </contour>
    <contour>
      <point x="595" y="715" type="qcurve"/>
      <point x="595" y="671"/>
      <point x="541" y="615"/>
      <point x="495" y="615" type="qcurve"/>
      <point x="447" y="615"/>
      <point x="395" y="667"/>
      <point x="395" y="715" type="qcurve"/>
      <point x="395" y="759"/>
      <point x="449" y="815"/>
      <point x="495" y="815" type="qcurve"/>
      <point x="543" y="815"/>
      <point x="595" y="764"/>
    </contour>
  </outline>
</glyph>
<glyph name="aring" format="2">
  <advance width="679"/>
  <unicode hex="00E5"/>
  <outline>
    <contour>
      <point x="410" y="535" type="line"/>
      <point x="609" y="535" type="line"/>
      <point x="609" y="0" type="line"/>
      <point x="405" y="0" type="line"/>
      <point x="405" y="131" type="line"/>
      <point x="450" y="127" type="line"/>
      <point x="429" y="69"/>
      <point x="333" y="-9"/>
      <point x="261" y="-9" type="qcurve"/>
      <point x="161" y="-9"/>
      <point x="30" y="147"/>
      <point x="30" y="268" type="qcurve"/>
      <point x="30" y="391"/>
      <point x="159" y="546"/>
      <point x="263" y="546" type="qcurve"/>
      <point x="336" y="546"/>
      <point x="428" y="470"/>
      <point x="451" y="416" type="qcurve"/>
      <point x="410" y="417" type="line"/>
    </contour>
    <contour>
      <point x="229" y="268" type="qcurve"/>
      <point x="229" y="214"/>
      <point x="276" y="156"/>
      <point x="319" y="156" type="qcurve"/>
      <point x="363" y="156"/>
      <point x="410" y="214"/>
      <point x="410" y="268" type="qcurve"/>
      <point x="410" y="322"/>
      <point x="363" y="381"/>
      <point x="319" y="381" type="qcurve"/>
      <point x="276" y="381"/>
      <point x="229" y="322"/>
    </contour>
    <contour>
      <point x="468" y="739" type="qcurve"/>
      <point x="468" y="688"/>
      <point x="391" y="615"/>
      <point x="339" y="615" type="qcurve"/>
      <point x="287" y="615"/>
      <point x="210" y="688"/>
      <point x="210" y="739" type="qcurve"/>
      <point x="210" y="791"/>
      <point x="286" y="865"/>
      <point x="339" y="865" type="qcurve"/>
      <point x="392" y="865"/>
      <point x="468" y="791"/>
    </contour>
    <contour>
      <point x="311" y="740" type="qcurve"/>
      <point x="311" y="727"/>
      <point x="327" y="711"/>
      <point x="339" y="711" type="qcurve"/>
      <point x="351" y="711"/>
      <point x="367" y="727"/>
      <point x="367" y="739" type="qcurve"/>
      <point x="367" y="752"/>
      <point x="351" y="769"/>
      <point x="339" y="769" type="qcurve"/>
      <point x="327" y="769"/>
      <point x="311" y="753"/>
    </contour>
  </outline>
</glyph>
<glyph name="ccedilla" format="2">
  <advance width="563"/>
  <unicode hex="00E7"/>
  <outline>
    <contour>
      <point x="329" y="373" type="qcurve"/>
      <point x="284" y="373"/>
      <point x="230" y="315"/>
      <point x="230" y="269" type="qcurve"/>
      <point x="230" y="224"/>
      <point x="282" y="164"/>
      <point x="329" y="164" type="qcurve"/>
      <point x="366" y="164"/>
      <point x="416" y="187"/>
      <point x="433" y="206" type="qcurve"/>
      <point x="542" y="75" type="line"/>
      <point x="505" y="34"/>
      <point x="383" y="-10"/>
      <point x="311" y="-10" type="qcurve"/>
      <point x="189" y="-10"/>
      <point x="30" y="147"/>
      <point x="30" y="268" type="qcurve"/>
      <point x="30" y="389"/>
      <point x="189" y="546"/>
      <point x="311" y="546" type="qcurve"/>
      <point x="383" y="546"/>
      <point x="505" y="502"/>
      <point x="543" y="460" type="qcurve"/>
      <point x="433" y="330" type="line"/>
      <point x="416" y="348"/>
      <point x="366" y="373"/>
    </contour>
    <contour>
      <point x="305" y="-86" type="line"/>
      <point x="222" y="-79" type="line"/>
      <point x="289" y="25" type="line"/>
      <point x="388" y="25" type="line"/>
    </contour>
    <contour>
      <point x="445" y="-138" type="qcurve"/>
      <point x="445" y="-162"/>
      <point x="409" y="-212"/>
      <point x="377" y="-227" type="qcurve"/>
      <point x="346" y="-240"/>
      <point x="268" y="-247"/>
      <point x="225" y="-246" type="qcurve"/>
      <point x="214" y="-155" type="line"/>
      <point x="241" y="-155"/>
      <point x="300" y="-141"/>
      <point x="300" y="-124" type="qcurve"/>
      <point x="300" y="-109"/>
      <point x="268" y="-95"/>
      <point x="243" y="-95" type="qcurve"/>
      <point x="222" y="-81" type="line"/>
      <point x="222" y="-79" type="line"/>
      <point x="325" y="-38" type="line"/>
      <point x="387" y="-38"/>
      <point x="445" y="-97"/>
    </contour>
  </outline>
</glyph>
<glyph name="edieresis" format="2">
  <advance width="586"/>
  <unicode hex="00EB"/>
  <outline>
    <contour>
      <point x="449" y="196" type="qcurve"/>
      <point x="542" y="65" type="line"/>
      <point x="486" y="22"/>
      <point x="383" y="-10"/>
      <point x="329" y="-10" type="qcurve"/>
      <point x="189" y="-10"/>
      <point x="30" y="147"/>
      <point x="30" y="268" type="qcurve"/>
      <point x="30" y="389"/>
      <point x="183" y="546"/>
      <point x="301" y="546" type="qcurve"/>
      <point x="419" y="546"/>
      <point x="562" y="389"/>
      <point x="562" y="268" type="qcurve"/>
      <point x="561" y="226" type="line"/>
      <point x="142" y="226" type="line"/>
      <point x="119" y="321" type="line"/>
      <point x="400" y="321" type="line"/>
      <point x="381" y="301" type="line"/>
      <point x="381" y="319" type="line"/>
      <point x="381" y="348"/>
      <point x="340" y="383"/>
      <point x="305" y="383" type="qcurve"/>
      <point x="261" y="383"/>
      <point x="215" y="330"/>
      <point x="215" y="284" type="qcurve"/>
      <point x="215" y="230"/>
      <point x="284" y="164"/>
      <point x="352" y="164" type="qcurve"/>
      <point x="382" y="164"/>
      <point x="425" y="179"/>
    </contour>
    <contour>
      <point x="260" y="715" type="qcurve"/>
      <point x="260" y="671"/>
      <point x="206" y="615"/>
      <point x="160" y="615" type="qcurve"/>
      <point x="112" y="615"/>
      <point x="60" y="667"/>
      <point x="60" y="715" type="qcurve"/>
      <point x="60" y="759"/>
      <point x="114" y="815"/>
      <point x="160" y="815" type="qcurve"/>
      <point x="208" y="815"/>
      <point x="260" y="764"/>
    </contour>
    <contour>
      <point x="532" y="715" type="qcurve"/>
      <point x="532" y="671"/>
      <point x="478" y="615"/>
      <point x="432" y="615" type="qcurve"/>
      <point x="384" y="615"/>
      <point x="332" y="667"/>
      <point x="332" y="715" type="qcurve"/>
      <point x="332" y="759"/>
      <point x="386" y="815"/>
      <point x="432" y="815" type="qcurve"/>
      <point x="480" y="815"/>
      <point x="532" y="764"/>
    </contour>
  </outline>
</glyph>
<glyph name="igrave" format="2">
  <advance width="323"/>
  <unicode hex="00EC"/>
  <outline>
    <contour>
      <point x="263" y="535" type="line"/>
      <point x="263" y="0" type="line"/>
      <point x="60" y="0" type="line"/>
      <point x="60" y="535" type="line"/>
    </contour>
    <contour>
      <point x="280" y="704" type="line"/>
      <point x="222" y="615" type="line"/>
      <point x="-6" y="737" type="line"/>
      <point x="74" y="858" type="line"/>
    </contour>
  </outline>
</glyph>
<glyph name="idieresis" format="2">
  <advance width="323"/>
  <unicode hex="00EF"/>
  <outline>
    <contour>
      <point x="263" y="535" type="line"/>
      <point x="263" y="0" type="line"/>
      <point x="60" y="0" type="line"/>
      <point x="60" y="535" type="line"/>
    </contour>
    <contour>
      <point x="126" y="715" type="qcurve"/>
      <point x="126" y="671"/>
      <point x="72" y="615"/>
      <point x="26" y="615" type="qcurve"/>
      <point x="-22" y="615"/>
      <point x="-74" y="667"/>
      <point x="-74" y="715" type="qcurve"/>
      <point x="-74" y="759"/>
      <point x="-20" y="815"/>
      <point x="26" y="815" type="qcurve"/>
      <point x="74" y="815"/>
      <point x="126" y="764"/>
    </contour>
    <contour>
      <point x="397" y="715" type="qcurve"/>
      <point x="397" y="671"/>
      <point x="343" y="615"/>
      <point x="297" y="615" type="qcurve"/>
      <point x="249" y="615"/>
      <point x="197" y="667"/>
      <point x="197" y="715" type="qcurve"/>
      <point x="197" y="759"/>
      <point x="251" y="815"/>
      <point x="297" y="815" type="qcurve"/>
      <point x="345" y="815"/>
      <point x="397" y="764"/>
    </contour>
  </outline>
</glyph>
<glyph name="ocircumflex" format="2">
  <advance width="660"/>
  <unicode hex="00F4"/>
  <outline>
    <contour>
      <point x="331" y="546" type="qcurve"/>
      <point x="461" y="546"/>
      <point x="630" y="389"/>
      <point x="630" y="268" type="qcurve"/>
      <point x="630" y="147"/>
      <point x="461" y="-10"/>
      <point x="331" y="-10" type="qcurve"/>
      <point x="200" y="-10"/>
      <point x="30" y="147"/>
      <point x="30" y="268" type="qcurve"/>
      <point x="30" y="389"/>
      <point x="200" y="546"/>
    </contour>
    <contour>
      <point x="331" y="160" type="qcurve"/>
      <point x="372" y="160"/>
      <point x="425" y="221"/>
      <point x="425" y="268" type="qcurve"/>
      <point x="425" y="316"/>
      <point x="372" y="377"/>
      <point x="331" y="377" type="qcurve"/>
      <point x="289" y="377"/>
      <point x="235" y="316"/>
      <point x="235" y="268" type="qcurve"/>
      <point x="235" y="221"/>
      <point x="289" y="160"/>
    </contour>
    <contour>
      <point x="475" y="615" type="line"/>
      <point x="315" y="711" type="line"/>
      <point x="345" y="711" type="line"/>
      <point x="185" y="615" type="line"/>
      <point x="113" y="677" type="line"/>
      <point x="279" y="819" type="line"/>
      <point x="381" y="819" type="line"/>
      <point x="547" y="677" type="line"/>
    </contour>
  </outline>
</glyph>
<glyph name="otilde" format="2">
  <advance width="660"/>
  <unicode hex="00F5"/>
  <outline>
    <contour>
      <point x="331" y="546" type="qcurve"/>
      <point x="461" y="546"/>
      <point x="630" y="389"/>
      <point x="630" y="268" type="qcurve"/>
      <point x="630" y="147"/>
      <point x="461" y="-10"/>
      <point x="331" y="-10" type="qcurve"/>
      <point x="200" y="-10"/>
      <point x="30" y="147"/>
      <point x="30" y="268" type="qcurve"/>
      <point x="30" y="389"/>
      <point x="200" y="546"/>
    </contour>
    <contour>
      <point x="331" y="160" type="qcurve"/>
      <point x="372" y="160"/>
      <point x="425" y="221"/>
      <point x="425" y="268" type="qcurve"/>
      <point x="425" y="316"/>
      <point x="372" y="377"/>
      <point x="331" y="377" type="qcurve"/>
      <point x="289" y="377"/>
      <point x="235" y="316"/>
      <point x="235" y="268" type="qcurve"/>
      <point x="235" y="221"/>
      <point x="289" y="160"/>
    </contour>
    <contour>
      <point x="247" y="621" type="qcurve"/>
      <point x="142" y="635" type="line"/>
      <point x="142" y="697"/>
      <point x="206" y="782"/>
      <point x="261" y="782" type="qcurve"/>
      <point x="276" y="782"/>
      <point x="315" y="774"/>
      <point x="343" y="756" type="qcurve"/>
      <point x="365" y="742"/>
      <point x="383" y="734"/>
      <point x="392" y="734" type="qcurve"/>
      <point x="406" y="734"/>
      <point x="428" y="754"/>
      <point x="429" y="774" type="qcurve"/>
      <point x="534" y="759" type="line"/>
      <point x="534" y="701"/>
      <point x="470" y="612"/>
      <point x="419" y="612" type="qcurve"/>
      <point x="404" y="612"/>
      <point x="363" y="621"/>
      <point x="334" y="640" type="qcurve"/>
      <point x="317" y="652"/>
      <point x="294" y="661"/>
      <point x="287" y="661" type="qcurve"/>
      <point x="272" y="661"/>
      <point x="249" y="642"/>
    </contour>
  </outline>
</glyph>
<glyph name="odieresis" format="2">
  <advance width="660"/>
  <unicode hex="00F6"/>
  <outline>
    <contour>
      <point x="331" y="546" type="qcurve"/>
      <point x="461" y="546"/>
      <point x="630" y="389"/>
      <point x="630" y="268" type="qcurve"/>
      <point x="630" y="147"/>
      <point x="461" y="-10"/>
      <point x="331" y="-10" type="qcurve"/>
      <point x="200" y="-10"/>
      <point x="30" y="147"/>
      <point x="30" y="268" type="qcurve"/>
      <point x="30" y="389"/>
      <point x="200" y="546"/>
    </contour>
    <contour>
      <point x="331" y="160" type="qcurve"/>
      <point x="372" y="160"/>
      <point x="425" y="221"/>
      <point x="425" y="268" type="qcurve"/>
      <point x="425" y="316"/>
      <point x="372" y="377"/>
      <point x="331" y="377" type="qcurve"/>
      <point x="289" y="377"/>
      <point x="235" y="316"/>
      <point x="235" y="268" type="qcurve"/>
      <point x="235" y="221"/>
      <point x="289" y="160"/>
    </contour>
    <contour>
      <point x="294" y="715" type="qcurve"/>
      <point x="294" y="671"/>
      <point x="240" y="615"/>
      <point x="194" y="615" type="qcurve"/>
      <point x="146" y="615"/>
      <point x="94" y="667"/>
      <point x="94" y="715" type="qcurve"/>
      <point x="94" y="759"/>
      <point x="148" y="815"/>
      <point x="194" y="815" type="qcurve"/>
      <point x="242" y="815"/>
      <point x="294" y="764"/>
    </contour>
    <contour>
      <point x="566" y="715" type="qcurve"/>
      <point x="566" y="671"/>
      <point x="512" y="615"/>
      <point x="466" y="615" type="qcurve"/>
      <point x="418" y="615"/>
      <point x="366" y="667"/>
      <point x="366" y="715" type="qcurve"/>
      <point x="366" y="759"/>
      <point x="420" y="815"/>
      <point x="466" y="815" type="qcurve"/>
      <point x="514" y="815"/>
      <point x="566" y="764"/>
    </contour>
  </outline>
</glyph>
<glyph name="ucircumflex" format="2">
  <advance width="669"/>
  <unicode hex="00FB"/>
  <outline>
    <contour>
      <point x="326" y="154" type="qcurve"/>
      <point x="356" y="154"/>
      <point x="394" y="190"/>
      <point x="394" y="217" type="qcurve"/>
      <point x="394" y="535" type="line"/>
      <point x="597" y="535" type="line"/>
      <point x="597" y="0" type="line"/>
      <point x="411" y="0" type="line"/>
      <point x="399" y="108" type="line"/>
      <point x="437" y="120" type="line"/>
      <point x="421" y="63"/>
      <point x="315" y="-11"/>
      <point x="249" y="-11" type="qcurve"/>
      <point x="158" y="-11"/>
      <point x="60" y="101"/>
      <point x="60" y="205" type="qcurve"/>
      <point x="60" y="535" type="line"/>
      <point x="263" y="535" type="line"/>
      <point x="263" y="222" type="line"/>
      <point x="263" y="189"/>
      <point x="296" y="154"/>
    </contour>
    <contour>
      <point x="474" y="615" type="line"/>
      <point x="314" y="711" type="line"/>
      <point x="344" y="711" type="line"/>
      <point x="184" y="615" type="line"/>
      <point x="112" y="677" type="line"/>
      <point x="278" y="819" type="line"/>
      <point x="380" y="819" type="line"/>
      <point x="546" y="677" type="line"/>
    </contour>
  </outline>
</glyph>
<glyph name="thorn" format="2">
  <advance width="679"/>
  <unicode hex="00FE"/>
  <outline>
    <contour>
      <point x="421" y="546" type="qcurve"/>
      <point x="520" y="546"/>
      <point x="649" y="391"/>
      <point x="649" y="268" type="qcurve"/>
      <point x="649" y="147"/>
      <point x="518" y="-9"/>
      <point x="416" y="-9" type="qcurve"/>
      <point x="348" y="-9"/>
      <point x="242" y="62"/>
      <point x="229" y="117" type="qcurve"/>
      <point x="274" y="131" type="line"/>
      <point x="274" y="-220" type="line"/>
      <point x="70" y="-220" type="line"/>
      <point x="70" y="740" type="line"/>
      <point x="274" y="740" type="line"/>
      <point x="274" y="417" type="line"/>
      <point x="228" y="426" type="line"/>
      <point x="238" y="478"/>
      <point x="347" y="546"/>
    </contour>
    <contour>
      <point x="450" y="268" type="qcurve"/>
      <point x="450" y="322"/>
      <point x="403" y="381"/>
      <point x="360" y="381" type="qcurve"/>
      <point x="316" y="381"/>
      <point x="269" y="322"/>
      <point x="269" y="268" type="qcurve"/>
      <point x="269" y="214"/>
      <point x="316" y="156"/>
      <point x="360" y="156" type="qcurve"/>
      <point x="403" y="156"/>
      <point x="450" y="214"/>
    </contour>
  </outline>
</glyph>
<glyph name="Abreve" format="2">
  <advance width="690"/>
  <unicode hex="0102"/>
  <outline>
    <contour>
      <point x="327" y="496" type="qcurve"/>
      <point x="361" y="496" type="line"/>
      <point x="348" y="433"/>
      <point x="326" y="367"/>
      <point x="302" y="306" type="qcurve"/>
      <point x="190" y="0" type="line"/>
      <point x="-20" y="0" type="line"/>
      <point x="261" y="700" type="line"/>
      <point x="431" y="700" type="line"/>
      <point x="710" y="0" type="line"/>
      <point x="496" y="0" type="line"/>
      <point x="384" y="306" type="line"/>
      <point x="361" y="368"/>
      <point x="340" y="433"/>
    </contour>
    <contour>
      <point x="346" y="104" type="line"/>
      <point x="120" y="104" type="line"/>
      <point x="183" y="251" type="line"/>
      <point x="346" y="251" type="line"/>
    </contour>
    <contour>
      <point x="565" y="104" type="line"/>
      <point x="346" y="104" type="line"/>
      <point x="346" y="251" type="line"/>
      <point x="508" y="251" type="line"/>
    </contour>
    <contour>
      <point x="345" y="770" type="qcurve"/>
      <point x="272" y="770"/>
      <point x="168" y="857"/>
      <point x="153" y="934" type="qcurve"/>
      <point x="277" y="946" type="line"/>
      <point x="286" y="920"/>
      <point x="324" y="891"/>
      <point x="345" y="891" type="qcurve"/>
      <point x="366" y="891"/>
      <point x="404" y="920"/>
      <point x="413" y="946" type="qcurve"/>
      <point x="537" y="934" type="line"/>
      <point x="522" y="857"/>
      <point x="418" y="770"/>
    </contour>
  </outline>
</glyph>
<glyph name="abreve" format="2">
  <advance width="679"/>
  <unicode hex="0103"/>
  <outline>
    <contour>
      <point x="410" y="535" type="line"/>
      <point x="609" y="535" type="line"/>
      <point x="609" y="0" type="line"/>
      <point x="405" y="0" type="line"/>
      <point x="405" y="131" type="line"/>
      <point x="450" y="127" type="line"/>
      <point x="429" y="69"/>
      <point x="333" y="-9"/>
      <point x="261" y="-9" type="qcurve"/>
      <point x="161" y="-9"/>
      <point x="30" y="147"/>
      <point x="30" y="268" type="qcurve"/>
      <point x="30" y="391"/>
      <point x="159" y="546"/>
      <point x="263" y="546" type="qcurve"/>
      <point x="336" y="546"/>
      <point x="428" y="470"/>
      <point x="451" y="416" type="qcurve"/>
      <point x="410" y="417" type="line"/>
    </contour>
    <contour>
      <point x="229" y="268" type="qcurve"/>
      <point x="229" y="214"/>
      <point x="276" y="156"/>
      <point x="319" y="156" type="qcurve"/>
      <point x="363" y="156"/>
      <point x="410" y="214"/>
      <point x="410" y="268" type="qcurve"/>
      <point x="410" y="322"/>
      <point x="363" y="381"/>
      <point x="319" y="381" type="qcurve"/>
      <point x="276" y="381"/>
      <point x="229" y="322"/>
    </contour>
    <contour>
      <point x="339" y="615" type="qcurve"/>
      <point x="266" y="615"/>
      <point x="162" y="702"/>
      <point x="147" y="779" type="qcurve"/>
      <point x="271" y="791" type="line"/>
      <point x="280" y="765"/>
      <point x="318" y="736"/>
      <point x="339" y="736" type="qcurve"/>
      <point x="360" y="736"/>
      <point x="398" y="765"/>
      <point x="407" y="791" type="qcurve"/>
      <point x="531" y="779" type="line"/>
      <point x="516" y="702"/>
      <point x="412" y="615"/>
    </contour>
  </outline>
</glyph>
<glyph name="Ccircumflex" format="2">
  <advance width="695"/>
  <unicode hex="0108"/>
  <outline>
    <contour>
      <point x="590" y="249" type="qcurve"/>
      <point x="693" y="87" type="line"/>
      <point x="654" y="45"/>
      <point x="503" y="-10"/>
      <point x="424" y="-10" type="qcurve"/>
      <point x="255" y="-10"/>
      <point x="40" y="195"/>
      <point x="40" y="355" type="qcurve"/>
      <point x="40" y="515"/>
      <point x="258" y="720"/>
      <point x="430" y="720" type="qcurve"/>
      <point x="503" y="720"/>
      <point x="642" y="668"/>
      <point x="694" y="614" type="qcurve"/>
      <point x="565" y="463" type="line"/>
      <point x="544" y="489"/>
      <point x="477" y="525"/>
      <point x="428" y="525" type="qcurve"/>
      <point x="359" y="525"/>
      <point x="262" y="435"/>
      <point x="262" y="352" type="qcurve"/>
      <point x="262" y="276"/>
      <point x="362" y="184"/>
      <point x="446" y="184" type="qcurve"/>
      <point x="491" y="184"/>
      <point x="566" y="222"/>
    </contour>
    <contour>
      <point x="532" y="777" type="line"/>
      <point x="379" y="863" type="line"/>
      <point x="409" y="863" type="line"/>
      <point x="256" y="777" type="line"/>
      <point x="188" y="845" type="line"/>
      <point x="343" y="971" type="line"/>
      <point x="445" y="971" type="line"/>
      <point x="600" y="845" type="line"/>
    </contour>
  </outline>
</glyph>
<glyph name="ccircumflex" format="2">
  <advance width="563"/>
  <unicode hex="0109"/>
  <outline>
    <contour>
      <point x="329" y="373" type="qcurve"/>
      <point x="284" y="373"/>
      <point x="230" y="315"/>
      <point x="230" y="269" type="qcurve"/>
      <point x="230" y="224"/>
      <point x="282" y="164"/>
      <point x="329" y="164" type="qcurve"/>
      <point x="366" y="164"/>
      <point x="416" y="187"/>
      <point x="433" y="206" type="qcurve"/>
      <point x="542" y="75" type="line"/>
      <point x="505" y="34"/>
      <point x="383" y="-10"/>
      <point x="311" y="-10" type="qcurve"/>
      <point x="189" y="-10"/>
      <point x="30" y="147"/>
      <point x="30" y="268" type="qcurve"/>
      <point x="30" y="389"/>
      <point x="189" y="546"/>
      <point x="311" y="546" type="qcurve"/>
      <point x="383" y="546"/>
      <point x="505" y="502"/>
      <point x="543" y="460" type="qcurve"/>
      <point x="433" y="330" type="line"/>
      <point x="416" y="348"/>
      <point x="366" y="373"/>
    </contour>
    <contour>
      <point x="474" y="615" type="line"/>
      <point x="314" y="711" type="line"/>
      <point x="344" y="711" type="line"/>
      <point x="184" y="615" type="line"/>
      <point x="112" y="677" type="line"/>
      <point x="278" y="819" type="line"/>
      <point x="380" y="819" type="line"/>
      <point x="546" y="677" type="line"/>
    </contour>
  </outline>
</glyph>
<glyph name="Emacron" format="2">
  <advance width="668"/>
  <unicode hex="0112"/>
  <outline>
    <contour>
      <point x="287" y="0" type="line"/>
      <point x="80" y="0" type="line"/>
      <point x="80" y="700" type="line"/>
      <point x="287" y="700" type="line"/>
    </contour>
    <contour>
      <point x="621" y="0" type="line"/>
      <point x="183" y="0" type="line"/>
      <point x="183" y="175" type="line"/>
      <point x="621" y="175" type="line"/>
    </contour>
    <contour>
      <point x="566" y="272" type="line"/>
      <point x="183" y="272" type="line"/>
      <point x="183" y="436" type="line"/>
      <point x="566" y="436" type="line"/>
    </contour>
    <contour>
      <point x="603" y="525" type="line"/>
      <point x="183" y="525" type="line"/>
      <point x="183" y="700" type="line"/>
      <point x="603" y="700" type="line"/>
    </contour>
    <contour>
      <point x="531" y="770" type="line"/>
      <point x="152" y="770" type="line"/>
      <point x="152" y="890" type="line"/>
      <point x="531" y="890" type="line"/>
    </contour>
  </outline>
</glyph>
<glyph name="edotaccent" format="2">
  <advance width="586"/>
  <unicode hex="0117"/>
  <outline>
    <contour>
      <point x="449" y="196" type="qcurve"/>
      <point x="542" y="65" type="line"/>
      <point x="486" y="22"/>
      <point x="383" y="-10"/>
      <point x="329" y="-10" type="qcurve"/>
      <point x="189" y="-10"/>
      <point x="30" y="147"/>
      <point x="30" y="268" type="qcurve"/>
      <point x="30" y="389"/>
      <point x="183" y="546"/>
      <point x="301" y="546" type="qcurve"/>
      <point x="419" y="546"/>
      <point x="562" y="389"/>
      <point x="562" y="268" type="qcurve"/>
      <point x="561" y="226" type="line"/>
      <point x="142" y="226" type="line"/>
      <point x="119" y="321" type="line"/>
      <point x="400" y="321" type="line"/>
      <point x="381" y="301" type="line"/>
      <point x="381" y="319" type="line"/>
      <point x="381" y="348"/>
      <point x="340" y="383"/>
      <point x="305" y="383" type="qcurve"/>
      <point x="261" y="383"/>
      <point x="215" y="330"/>
      <point x="215" y="284" type="qcurve"/>
      <point x="215" y="230"/>
      <point x="284" y="164"/>
      <point x="352" y="164" type="qcurve"/>
      <point x="382" y="164"/>
      <point x="425" y="179"/>
    </contour>
    <contour>
      <point x="426" y="711" type="qcurve"/>
      <point x="426" y="669"/>
      <point x="364" y="615"/>
      <point x="311" y="615" type="qcurve"/>
      <point x="257" y="615"/>
      <point x="196" y="665"/>
      <point x="196" y="711" type="qcurve"/>
      <point x="196" y="753"/>
      <point x="258" y="807"/>
      <point x="311" y="807" type="qcurve"/>
      <point x="365" y="807"/>
      <point x="426" y="757"/>
    </contour>
  </outline>
</glyph>
<glyph name="Eogonek" format="2">
  <advance width="668"/>
  <unicode hex="0118"/>
  <outline>
    <contour>
      <point x="287" y="0" type="line"/>
      <point x="80" y="0" type="line"/>
      <point x="80" y="700" type="line"/>
      <point x="287" y="700" type="line"/>
    </contour>
    <contour>
      <point x="621" y="0" type="line"/>
      <point x="183" y="0" type="line"/>
      <point x="183" y="175" type="line"/>
      <point x="621" y="175" type="line"/>
    </contour>
    <contour>
      <point x="566" y="272" type="line"/>
      <point x="183" y="272" type="line"/>
      <point x="183" y="436" type="line"/>
      <point x="566" y="436" type="line"/>
    </contour>
    <contour>
      <point x="603" y="525" type="line"/>
      <point x="183" y="525" type="line"/>
      <point x="183" y="700" type="line"/>
      <point x="603" y="700" type="line"/>
    </contour>
    <contour>
      <point x="521" y="-220" type="qcurve"/>
      <point x="465" y="-220"/>
      <point x="392" y="-153"/>
      <point x="392" y="-103" type="qcurve"/>
      <point x="392" y="-51"/>
      <point x="486" y="27"/>
      <point x="567" y="49" type="qcurve"/>
      <point x="578" y="44" type="line"/>
      <point x="611" y="0" type="line"/>
      <point x="573" y="-9"/>
      <point x="518" y="-50"/>
      <point x="518" y="-75" type="qcurve"/>
      <point x="518" y="-85"/>
      <point x="530" y="-97"/>
      <point x="541" y="-97" type="qcurve"/>
      <point x="550" y="-97"/>
      <point x="562" y="-86"/>
      <point x="570" y="-74" type="qcurve"/>
      <point x="650" y="-133" type="line"/>
      <point x="632" y="-163"/>
      <point x="564" y="-220"/>
    </contour>
  </outline>
</glyph>
<glyph name="Gbreve" format="2">
  <advance width="793"/>
  <unicode hex="011E"/>
  <outline>
    <contour>
      <point x="40" y="355" type="qcurve"/>
      <point x="40" y="514"/>
      <point x="254" y="720"/>
      <point x="430" y="720" type="qcurve"/>
      <point x="521" y="720"/>
      <point x="666" y="655"/>
      <point x="712" y="607" type="qcurve"/>
      <point x="584" y="471" type="line"/>
      <point x="554" y="499"/>
      <point x="480" y="536"/>
      <point x="427" y="536" type="qcurve"/>
      <point x="356" y="536"/>
      <point x="262" y="434"/>
      <point x="262" y="355" type="qcurve"/>
      <point x="262" y="276"/>
      <point x="360" y="174"/>
      <point x="436" y="174" type="qcurve"/>
      <point x="487" y="174"/>
      <point x="554" y="237"/>
      <point x="554" y="285" type="qcurve"/>
      <point x="554" y="314" type="line"/>
      <point x="582" y="266" type="line"/>
      <point x="404" y="266" type="line"/>
      <point x="404" y="418" type="line"/>
      <point x="748" y="418" type="line"/>
      <point x="750" y="401"/>
      <point x="753" y="313"/>
      <point x="753" y="299" type="qcurve"/>
      <point x="753" y="164"/>
      <point x="562" y="-10"/>
      <point x="414" y="-10" type="qcurve"/>
      <point x="234" y="-10"/>
      <point x="40" y="196"/>
    </contour>
    <contour>
      <point x="418" y="770" type="qcurve"/>
      <point x="345" y="770"/>
      <point x="241" y="857"/>
      <point x="226" y="934" type="qcurve"/>
      <point x="350" y="946" type="line"/>
      <point x="359" y="920"/>
      <point x="397" y="891"/>
      <point x="418" y="891" type="qcurve"/>
      <point x="439" y="891"/>
      <point x="477" y="920"/>
      <point x="486" y="946" type="qcurve"/>
      <point x="610" y="934" type="line"/>
      <point x="595" y="857"/>
      <point x="491" y="770"/>
    </contour>
  </outline>
</glyph>
<glyph name="Gdotaccent" format="2">
  <advance width="793"/>
  <unicode hex="0120"/>
  <outline>
    <contour>
      <point x="40" y="355" type="qcurve"/>
      <point x="40" y="514"/>
      <point x="254" y="720"/>
      <point x="430" y="720" type="qcurve"/>
      <point x="521" y="720"/>
      <point x="666" y="655"/>
      <point x="712" y="607" type="qcurve"/>
      <point x="584" y="471" type="line"/>
      <point x="554" y="499"/>
      <point x="480" y="536"/>
      <point x="427" y="536" type="qcurve"/>
      <point x="356" y="536"/>
      <point x="262" y="434"/>
      <point x="262" y="355" type="qcurve"/>
      <point x="262" y="276"/>
      <point x="360" y="174"/>
      <point x="436" y="174" type="qcurve"/>
      <point x="487" y="174"/>
      <point x="554" y="237"/>
      <point x="554" y="285" type="qcurve"/>
      <point x="554" y="314" type="line"/>
      <point x="582" y="266" type="line"/>
      <point x="404" y="266" type="line"/>
      <point x="404" y="418" type="line"/>
      <point x="748" y="418" type="line"/>
      <point x="750" y="401"/>
      <point x="753" y="313"/>
      <point x="753" y="299" type="qcurve"/>
      <point x="753" y="164"/>
      <point x="562" y="-10"/>
      <point x="414" y="-10" type="qcurve"/>
      <point x="234" y="-10"/>
      <point x="40" y="196"/>
    </contour>
    <contour>
      <point x="512" y="866" type="qcurve"/>
      <point x="512" y="824"/>
      <point x="450" y="770"/>
      <point x="396" y="770" type="qcurve"/>
      <point x="342" y="770"/>
      <point x="282" y="820"/>
      <point x="282" y="866" type="qcurve"/>
      <point x="282" y="908"/>
      <point x="343" y="962"/>
      <point x="396" y="962" type="qcurve"/>
      <point x="451" y="962"/>
      <point x="512" y="912"/>
    </contour>
  </outline>
</glyph>
<glyph name="uni0122" format="2">
  <advance width="793"/>
  <unicode hex="0122"/>
  <outline>
    <contour>
      <point x="40" y="355" type="qcurve"/>
      <point x="40" y="514"/>
      <point x="254" y="720"/>
      <point x="430" y="720" type="qcurve"/>
      <point x="521" y="720"/>
      <point x="666" y="655"/>
      <point x="712" y="607" type="qcurve"/>
      <point x="584" y="471" type="line"/>
      <point x="554" y="499"/>
      <point x="480" y="536"/>
      <point x="427" y="536" type="qcurve"/>
      <point x="356" y="536"/>
      <point x="262" y="434"/>
      <point x="262" y="355" type="qcurve"/>
      <point x="262" y="276"/>
      <point x="360" y="174"/>
      <point x="436" y="174" type="qcurve"/>
      <point x="487" y="174"/>
      <point x="554" y="237"/>
      <point x="554" y="285" type="qcurve"/>
      <point x="554" y="314" type="line"/>
      <point x="582" y="266" type="line"/>
      <point x="404" y="266" type="line"/>
      <point x="404" y="418" type="line"/>
      <point x="748" y="418" type="line"/>
      <point x="750" y="401"/>
      <point x="753" y="313"/>
      <point x="753" y="299" type="qcurve"/>
      <point x="753" y="164"/>
      <point x="562" y="-10"/>
      <point x="414" y="-10" type="qcurve"/>
      <point x="234" y="-10"/>
      <point x="40" y="196"/>
    </contour>
    <contour>
      <point x="334" y="-361" type="qcurve"/>
      <point x="282" y="-297" type="line"/>
      <point x="326" y="-280"/>
      <point x="368" y="-252"/>
      <point x="368" y="-235" type="qcurve"/>
      <point x="368" y="-225"/>
      <point x="353" y="-215"/>
      <point x="340" y="-208" type="qcurve"/>
      <point x="317" y="-197"/>
      <point x="295" y="-167"/>
      <point x="295" y="-143" type="qcurve"/>
      <point x="295" y="-103"/>
      <point x="348" y="-66"/>
      <point x="387" y="-66" type="qcurve"/>
      <point x="436" y="-66"/>
      <point x="504" y="-120"/>
      <point x="504" y="-178" type="qcurve"/>
      <point x="504" y="-251"/>
      <point x="413" y="-340"/>
    </contour>
  </outline>
</glyph>
<glyph name="Hcircumflex" format="2">
  <advance width="793"/>
  <unicode hex="0124"/>
  <outline>
    <contour>
      <point x="80" y="700" type="line"/>
      <point x="296" y="700" type="line"/>
      <point x="296" y="0" type="line"/>
      <point x="80" y="0" type="line"/>
    </contour>
    <contour>
      <point x="497" y="700" type="line"/>
      <point x="713" y="700" type="line"/>
      <point x="713" y="0" type="line"/>
      <point x="497" y="0" type="line"/>
    </contour>
    <contour>
      <point x="161" y="255" type="line"/>
      <point x="162" y="443" type="line"/>
      <point x="619" y="443" type="line"/>
      <point x="619" y="255" type="line"/>
    </contour>
    <contour>
      <point x="531" y="777" type="line"/>
      <point x="378" y="863" type="line"/>
      <point x="408" y="863" type="line"/>
      <point x="255" y="777" type="line"/>
      <point x="187" y="845" type="line"/>
      <point x="342" y="971" type="line"/>
      <point x="444" y="971" type="line"/>
      <point x="599" y="845" type="line"/>
    </contour>
  </outline>
</glyph>
<glyph name="Imacron" format="2">
  <advance width="602"/>
  <unicode hex="012A"/>
  <outline>
    <contour>
      <point x="414" y="700" type="qcurve"/>
      <point x="414" y="0" type="line"/>
      <point x="198" y="0" type="line"/>
      <point x="198" y="700" type="line"/>
      <point x="225" y="700"/>
      <point x="387" y="700"/>
    </contour>
    <contour>
      <point x="537" y="700" type="line"/>
      <point x="537" y="525" type="line"/>
      <point x="75" y="525" type="line"/>
      <point x="75" y="700" type="line"/>
    </contour>
    <contour>
      <point x="537" y="175" type="line"/>
      <point x="537" y="0" type="line"/>
      <point x="75" y="0" type="line"/>
      <point x="75" y="175" type="line"/>
    </contour>
    <contour>
      <point x="490" y="770" type="line"/>
      <point x="112" y="770" type="line"/>
      <point x="112" y="890" type="line"/>
      <point x="490" y="890" type="line"/>
    </contour>
  </outline>
</glyph>
<glyph name="Ibreve" format="2">
  <advance width="602"/>
  <unicode hex="012C"/>
  <outline>
    <contour>
      <point x="414" y="700" type="qcurve"/>
      <point x="414" y="0" type="line"/>
      <point x="198" y="0" type="line"/>
      <point x="198" y="700" type="line"/>
      <point x="225" y="700"/>
      <point x="387" y="700"/>
    </contour>
    <contour>
      <point x="537" y="700" type="line"/>
      <point x="537" y="525" type="line"/>
      <point x="75" y="525" type="line"/>
      <point x="75" y="700" type="line"/>
    </contour>
    <contour>
      <point x="537" y="175" type="line"/>
      <point x="537" y="0" type="line"/>
      <point x="75" y="0" type="line"/>
      <point x="75" y="175" type="line"/>
    </contour>
    <contour>
      <point x="301" y="770" type="qcurve"/>
      <point x="228" y="770"/>
      <point x="124" y="857"/>
      <point x="109" y="934" type="qcurve"/>
      <point x="233" y="946" type="line"/>
      <point x="242" y="920"/>
      <point x="280" y="891"/>
      <point x="301" y="891" type="qcurve"/>
      <point x="322" y="891"/>
      <point x="360" y="920"/>
      <point x="369" y="946" type="qcurve"/>
      <point x="493" y="934" type="line"/>
      <point x="478" y="857"/>
      <point x="374" y="770"/>
    </contour>
  </outline>
</glyph>
<glyph name="ibreve" format="2">
  <advance width="323"/>
  <unicode hex="012D"/>
  <outline>
    <contour>
      <point x="263" y="535" type="line"/>
      <point x="263" y="0" type="line"/>
      <point x="60" y="0" type="line"/>
      <point x="60" y="535" type="line"/>
    </contour>
    <contour>
      <point x="162" y="615" type="qcurve"/>
      <point x="88" y="615"/>
      <point x="-16" y="702"/>
      <point x="-30" y="779" type="qcurve"/>
      <point x="94" y="791" type="line"/>
      <point x="102" y="765"/>
      <point x="140" y="736"/>
      <point x="162" y="736" type="qcurve"/>
      <point x="182" y="736"/>
      <point x="220" y="765"/>
      <point x="230" y="791" type="qcurve"/>
      <point x="354" y="779" type="line"/>
      <point x="338" y="702"/>
      <point x="234" y="615"/>
    </contour>
  </outline>
</glyph>
<glyph name="Iogonek" format="2">
  <advance width="602"/>
  <unicode hex="012E"/>
  <outline>
    <contour>
      <point x="414" y="700" type="qcurve"/>
      <point x="414" y="0" type="line"/>
      <point x="198" y="0" type="line"/>
      <point x="198" y="700" type="line"/>
      <point x="225" y="700"/>
      <point x="387" y="700"/>
    </contour>
    <contour>
      <point x="537" y="700" type="line"/>
      <point x="537" y="525" type="line"/>
      <point x="75" y="525" type="line"/>
      <point x="75" y="700" type="line"/>
    </contour>
    <contour>
      <point x="537" y="175" type="line"/>
      <point x="537" y="0" type="line"/>
      <point x="75" y="0" type="line"/>
      <point x="75" y="175" type="line"/>
    </contour>
    <contour>
      <point x="410" y="-216" type="qcurve"/>
      <point x="354" y="-216"/>
      <point x="281" y="-149"/>
      <point x="281" y="-99" type="qcurve"/>
      <point x="281" y="-47"/>
      <point x="375" y="31"/>
      <point x="456" y="53" type="qcurve"/>
      <point x="467" y="48" type="line"/>
      <point x="500" y="4" type="line"/>
      <point x="462" y="-5"/>
      <point x="407" y="-46"/>
      <point x="407" y="-71" type="qcurve"/>
      <point x="407" y="-81"/>
      <point x="419" y="-93"/>
      <point x="430" y="-93" type="qcurve"/>
      <point x="439" y="-93"/>
      <point x="451" y="-82"/>
      <point x="459" y="-70" type="qcurve"/>
      <point x="539" y="-129" type="line"/>
      <point x="521" y="-159"/>
      <point x="453" y="-216"/>
    </contour>
  </outline>
</glyph>
<glyph name="Idotaccent" format="2">
  <advance width="602"/>
  <unicode hex="0130"/>
  <outline>
    <contour>
      <point x="414" y="700" type="qcurve"/>
      <point x="414" y="0" type="line"/>
      <point x="198" y="0" type="line"/>
      <point x="198" y="700" type="line"/>
      <point x="225" y="700"/>
      <point x="387" y="700"/>
    </contour>
    <contour>
      <point x="537" y="700" type="line"/>
      <point x="537" y="525" type="line"/>
      <point x="75" y="525" type="line"/>
      <point x="75" y="700" type="line"/>
    </contour>
    <contour>
      <point x="537" y="175" type="line"/>
      <point x="537" y="0" type="line"/>
      <point x="75" y="0" type="line"/>
      <point x="75" y="175" type="line"/>
    </contour>
    <contour>
      <point x="416" y="866" type="qcurve"/>
      <point x="416" y="824"/>
      <point x="354" y="770"/>
      <point x="301" y="770" type="qcurve"/>
      <point x="247" y="770"/>
      <point x="186" y="820"/>
      <point x="186" y="866" type="qcurve"/>
      <point x="186" y="908"/>
      <point x="248" y="962"/>
      <point x="301" y="962" type="qcurve"/>
      <point x="355" y="962"/>
      <point x="416" y="912"/>
    </contour>
  </outline>
</glyph>
<glyph name="dotlessi" format="2">
  <advance width="323"/>
  <unicode hex="0131"/>
  <outline>
    <contour>
      <point x="263" y="535" type="line"/>
      <point x="263" y="0" type="line"/>
      <point x="60" y="0" type="line"/>
      <point x="60" y="535" type="line"/>
    </contour>
  </outline>
</glyph>
<glyph name="jcircumflex" format="2">
  <advance width="263"/>
  <unicode hex="0135"/>
  <outline>
    <contour>
      <point x="242" y="535" type="line"/>
      <point x="242" y="23" type="line"/>
      <point x="242" y="-111"/>
      <point x="118" y="-219"/>
      <point x="-7" y="-219" type="qcurve"/>
      <point x="-84" y="-62" type="line"/>
      <point x="-8" y="-62"/>
      <point x="39" y="-11"/>
      <point x="39" y="71" type="qcurve"/>
      <point x="39" y="535" type="line"/>
    </contour>
    <contour>
      <point x="283" y="615" type="line"/>
      <point x="123" y="711" type="line"/>
      <point x="153" y="711" type="line"/>
      <point x="-7" y="615" type="line"/>
      <point x="-79" y="677" type="line"/>
      <point x="87" y="819" type="line"/>
      <point x="189" y="819" type="line"/>
      <point x="355" y="677" type="line"/>
    </contour>
  </outline>
</glyph>
<glyph name="kgreenlandic" format="2">
  <advance width="669"/>
  <unicode hex="0138"/>
  <outline>
    <contour>
      <point x="273" y="0" type="line"/>
      <point x="70" y="0" type="line"/>
      <point x="70" y="535" type="line"/>
      <point x="273" y="535" type="line"/>
    </contour>
    <contour>
      <point x="416" y="535" type="line"/>
      <point x="680" y="535" type="line"/>
      <point x="389" y="241" type="line"/>
      <point x="269" y="120" type="line"/>
      <point x="169" y="246" type="line"/>
    </contour>
    <contour>
      <point x="666" y="0" type="line"/>
      <point x="434" y="0" type="line"/>
      <point x="266" y="251" type="line"/>
      <point x="408" y="353" type="line"/>
    </contour>
  </outline>
</glyph>
<glyph name="Lacute" format="2">
  <advance width="616"/>
  <unicode hex="0139"/>
  <outline>
    <contour>
      <point x="190" y="184" type="line"/>
      <point x="596" y="184" type="line"/>
      <point x="596" y="0" type="line"/>
      <point x="80" y="0" type="line"/>
      <point x="80" y="700" type="line"/>
      <point x="296" y="700" type="line"/>
      <point x="296" y="78" type="line"/>
    </contour>
    <contour>
      <point x="321" y="892" type="line"/>
      <point x="93" y="770" type="line"/>
      <point x="33" y="863" type="line"/>
      <point x="238" y="1017" type="line"/>
    </contour>
  </outline>
</glyph>
<glyph name="uni013B" format="2">
  <advance width="616"/>
  <unicode hex="013B"/>
  <outline>
    <contour>
      <point x="190" y="184" type="line"/>
      <point x="596" y="184" type="line"/>
      <point x="596" y="0" type="line"/>
      <point x="80" y="0" type="line"/>
      <point x="80" y="700" type="line"/>
      <point x="296" y="700" type="line"/>
      <point x="296" y="78" type="line"/>
    </contour>
    <contour>
      <point x="264" y="-361" type="qcurve"/>
      <point x="212" y="-297" type="line"/>
      <point x="256" y="-280"/>
      <point x="298" y="-252"/>
      <point x="298" y="-235" type="qcurve"/>
      <point x="298" y="-225"/>
      <point x="283" y="-215"/>
      <point x="270" y="-208" type="qcurve"/>
      <point x="247" y="-197"/>
      <point x="225" y="-167"/>
      <point x="225" y="-143" type="qcurve"/>
      <point x="225" y="-103"/>
      <point x="278" y="-66"/>
      <point x="317" y="-66" type="qcurve"/>
      <point x="366" y="-66"/>
      <point x="434" y="-120"/>
      <point x="434" y="-178" type="qcurve"/>
      <point x="434" y="-251"/>
      <point x="343" y="-340"/>
    </contour>
  </outline>
</glyph>
<glyph name="uni013C" format="2">
  <advance width="343"/>
  <unicode hex="013C"/>
  <outline>
    <contour>
      <point x="273" y="0" type="line"/>
      <point x="70" y="0" type="line"/>
      <point x="70" y="740" type="line"/>
      <point x="273" y="740" type="line"/>
    </contour>
    <contour>
      <point x="101" y="-361" type="qcurve"/>
      <point x="49" y="-297" type="line"/>
      <point x="93" y="-280"/>
      <point x="135" y="-252"/>
      <point x="135" y="-235" type="qcurve"/>
      <point x="135" y="-225"/>
      <point x="120" y="-215"/>
      <point x="107" y="-208" type="qcurve"/>
      <point x="84" y="-197"/>
      <point x="62" y="-167"/>
      <point x="62" y="-143" type="qcurve"/>
      <point x="62" y="-103"/>
      <point x="118" y="-66"/>
      <point x="159" y="-66" type="qcurve"/>
      <point x="206" y="-66"/>
      <point x="271" y="-123"/>
      <point x="271" y="-183" type="qcurve"/>
      <point x="271" y="-245"/>
      <point x="180" y="-331"/>
    </contour>
  </outline>
</glyph>
<glyph name="Lcaron" format="2">
  <advance width="616"/>
  <unicode hex="013D"/>
  <outline>
    <contour>
      <point x="190" y="184" type="line"/>
      <point x="596" y="184" type="line"/>
      <point x="596" y="0" type="line"/>
      <point x="80" y="0" type="line"/>
      <point x="80" y="700" type="line"/>
      <point x="296" y="700" type="line"/>
      <point x="296" y="78" type="line"/>
    </contour>
    <contour>
      <point x="519" y="740" type="qcurve"/>
      <point x="567" y="740"/>
      <point x="632" y="665"/>
      <point x="632" y="605" type="qcurve"/>
      <point x="632" y="534"/>
      <point x="531" y="406"/>
      <point x="452" y="385" type="qcurve"/>
      <point x="400" y="449" type="line"/>
      <point x="444" y="466"/>
      <point x="496" y="524"/>
      <point x="496" y="544" type="qcurve"/>
      <point x="496" y="553"/>
      <point x="487" y="574"/>
      <point x="468" y="585" type="qcurve"/>
      <point x="443" y="601"/>
      <point x="423" y="638"/>
      <point x="423" y="662" type="qcurve"/>
      <point x="423" y="698"/>
      <point x="477" y="740"/>
    </contour>
  </outline>
</glyph>
<glyph name="Ldot" format="2">
  <advance width="616"/>
  <unicode hex="013F"/>
  <outline>
    <contour>
      <point x="190" y="184" type="line"/>
      <point x="596" y="184" type="line"/>
      <point x="596" y="0" type="line"/>
      <point x="80" y="0" type="line"/>
      <point x="80" y="700" type="line"/>
      <point x="296" y="700" type="line"/>
      <point x="296" y="78" type="line"/>
    </contour>
    <contour>
      <point x="578" y="399" type="qcurve"/>
      <point x="578" y="355"/>
      <point x="523" y="299"/>
      <point x="479" y="299" type="qcurve"/>
      <point x="432" y="299"/>
      <point x="380" y="351"/>
      <point x="380" y="399" type="qcurve"/>
      <point x="380" y="443"/>
      <point x="435" y="499"/>
      <point x="479" y="499" type="qcurve"/>
      <point x="526" y="499"/>
      <point x="578" y="447"/>
    </contour>
  </outline>
</glyph>
<glyph name="ldot" format="2">
  <advance width="558"/>
  <unicode hex="0140"/>
  <outline>
    <contour>
      <point x="273" y="0" type="line"/>
      <point x="70" y="0" type="line"/>
      <point x="70" y="740" type="line"/>
      <point x="273" y="740" type="line"/>
    </contour>
    <contour>
      <point x="538" y="353" type="qcurve"/>
      <point x="538" y="309"/>
      <point x="483" y="253"/>
      <point x="439" y="253" type="qcurve"/>
      <point x="392" y="253"/>
      <point x="340" y="305"/>
      <point x="340" y="353" type="qcurve"/>
      <point x="340" y="397"/>
      <point x="395" y="453"/>
      <point x="439" y="453" type="qcurve"/>
      <point x="486" y="453"/>
      <point x="538" y="401"/>
    </contour>
  </outline>
</glyph>
<glyph name="Lslash" format="2">
  <advance width="616"/>
  <unicode hex="0141"/>
  <outline>
    <contour>
      <point x="190" y="184" type="line"/>
      <point x="596" y="184" type="line"/>
      <point x="596" y="0" type="line"/>
      <point x="80" y="0" type="line"/>
      <point x="80" y="700" type="line"/>
      <point x="296" y="700" type="line"/>
      <point x="296" y="78" type="line"/>
    </contour>
    <contour>
      <point x="18" y="224" type="line"/>
      <point x="-44" y="387" type="line"/>
      <point x="363" y="564" type="line"/>
      <point x="425" y="401" type="line"/>
    </contour>
  </outline>
</glyph>
<glyph name="Nacute" format="2">
  <advance width="797"/>
  <unicode hex="0143"/>
  <outline>
    <contour>
      <point x="519" y="570" type="qcurve"/>
      <point x="519" y="700" type="line"/>
      <point x="727" y="700" type="line"/>
      <point x="727" y="0" type="line"/>
      <point x="532" y="0" type="line"/>
      <point x="177" y="490" type="line"/>
      <point x="258" y="466" type="line"/>
      <point x="270" y="374"/>
      <point x="278" y="283"/>
      <point x="278" y="191" type="qcurve"/>
      <point x="278" y="0" type="line"/>
      <point x="70" y="0" type="line"/>
      <point x="70" y="700" type="line"/>
      <point x="263" y="700" type="line"/>
      <point x="585" y="255" type="line"/>
      <point x="539" y="269" type="line"/>
      <point x="527" y="369"/>
      <point x="518" y="470"/>
    </contour>
    <contour>
      <point x="567" y="892" type="line"/>
      <point x="339" y="770" type="line"/>
      <point x="279" y="863" type="line"/>
      <point x="484" y="1017" type="line"/>
    </contour>
  </outline>
</glyph>
<glyph name="uni0145" format="2">
  <advance width="797"/>
  <unicode hex="0145"/>
  <outline>
    <contour>
      <point x="519" y="570" type="qcurve"/>
      <point x="519" y="700" type="line"/>
      <point x="727" y="700" type="line"/>
      <point x="727" y="0" type="line"/>
      <point x="532" y="0" type="line"/>
      <point x="177" y="490" type="line"/>
      <point x="258" y="466" type="line"/>
      <point x="270" y="374"/>
      <point x="278" y="283"/>
      <point x="278" y="191" type="qcurve"/>
      <point x="278" y="0" type="line"/>
      <point x="70" y="0" type="line"/>
      <point x="70" y="700" type="line"/>
      <point x="263" y="700" type="line"/>
      <point x="585" y="255" type="line"/>
      <point x="539" y="269" type="line"/>
      <point x="527" y="369"/>
      <point x="518" y="470"/>
    </contour>
    <contour>
      <point x="340" y="-361" type="qcurve"/>
      <point x="288" y="-297" type="line"/>
      <point x="332" y="-280"/>
      <point x="374" y="-252"/>
      <point x="374" y="-235" type="qcurve"/>
      <point x="374" y="-225"/>
      <point x="359" y="-215"/>
      <point x="346" y="-208" type="qcurve"/>
      <point x="323" y="-197"/>
      <point x="301" y="-167"/>
      <point x="301" y="-143" type="qcurve"/>
      <point x="301" y="-103"/>
      <point x="354" y="-66"/>
      <point x="393" y="-66" type="qcurve"/>
      <point x="442" y="-66"/>
      <point x="510" y="-120"/>
      <point x="510" y="-178" type="qcurve"/>
      <point x="510" y="-251"/>
      <point x="419" y="-340"/>
    </contour>
  </outline>
</glyph>
<glyph name="uni0146" format="2">
  <advance width="665"/>
  <unicode hex="0146"/>
  <outline>
    <contour>
      <point x="418" y="546" type="qcurve"/>
      <point x="508" y="546"/>
      <point x="605" y="434"/>
      <point x="605" y="330" type="qcurve"/>
      <point x="605" y="0" type="line"/>
      <point x="402" y="0" type="line"/>
      <point x="402" y="313" type="line"/>
      <point x="402" y="346"/>
      <point x="370" y="381"/>
      <point x="341" y="381" type="qcurve"/>
      <point x="311" y="381"/>
      <point x="273" y="345"/>
      <point x="273" y="318" type="qcurve"/>
      <point x="273" y="0" type="line"/>
      <point x="247" y="0"/>
      <point x="96" y="0"/>
      <point x="70" y="0" type="qcurve"/>
      <point x="70" y="535" type="line"/>
      <point x="258" y="535" type="line"/>
      <point x="268" y="427" type="line"/>
      <point x="225" y="415" type="line"/>
      <point x="241" y="472"/>
      <point x="350" y="546"/>
    </contour>
    <contour>
      <point x="279" y="-361" type="qcurve"/>
      <point x="227" y="-297" type="line"/>
      <point x="271" y="-280"/>
      <point x="313" y="-252"/>
      <point x="313" y="-235" type="qcurve"/>
      <point x="313" y="-225"/>
      <point x="298" y="-215"/>
      <point x="285" y="-208" type="qcurve"/>
      <point x="262" y="-197"/>
      <point x="240" y="-167"/>
      <point x="240" y="-143" type="qcurve"/>
      <point x="240" y="-103"/>
      <point x="296" y="-66"/>
      <point x="337" y="-66" type="qcurve"/>
      <point x="384" y="-66"/>
      <point x="449" y="-123"/>
      <point x="449" y="-183" type="qcurve"/>
      <point x="449" y="-245"/>
      <point x="358" y="-331"/>
    </contour>
  </outline>
</glyph>
<glyph name="Ncaron" format="2">
  <advance width="797"/>
  <unicode hex="0147"/>
  <outline>
    <contour>
      <point x="519" y="570" type="qcurve"/>
      <point x="519" y="700" type="line"/>
      <point x="727" y="700" type="line"/>
      <point x="727" y="0" type="line"/>
      <point x="532" y="0" type="line"/>
      <point x="177" y="490" type="line"/>
      <point x="258" y="466" type="line"/>
      <point x="270" y="374"/>
      <point x="278" y="283"/>
      <point x="278" y="191" type="qcurve"/>
      <point x="278" y="0" type="line"/>
      <point x="70" y="0" type="line"/>
      <point x="70" y="700" type="line"/>
      <point x="263" y="700" type="line"/>
      <point x="585" y="255" type="line"/>
      <point x="539" y="269" type="line"/>
      <point x="527" y="369"/>
      <point x="518" y="470"/>
    </contour>
    <contour>
      <point x="534" y="974" type="line"/>
      <point x="374" y="878" type="line"/>
      <point x="404" y="878" type="line"/>
      <point x="244" y="974" type="line"/>
      <point x="172" y="912" type="line"/>
      <point x="338" y="770" type="line"/>
      <point x="440" y="770" type="line"/>
      <point x="606" y="912" type="line"/>
    </contour>
  </outline>
</glyph>
<glyph name="napostrophe" format="2">
  <advance width="841"/>
  <unicode hex="0149"/>
  <outline>
    <contour>
      <point x="30" y="432" type="line"/>
      <point x="48" y="700" type="line"/>
      <point x="246" y="700" type="line"/>
      <point x="160" y="432" type="line"/>
    </contour>
    <contour>
      <point x="594" y="546" type="qcurve"/>
      <point x="684" y="546"/>
      <point x="781" y="434"/>
      <point x="781" y="330" type="qcurve"/>
      <point x="781" y="0" type="line"/>
      <point x="578" y="0" type="line"/>
      <point x="578" y="313" type="line"/>
      <point x="578" y="346"/>
      <point x="546" y="381"/>
      <point x="517" y="381" type="qcurve"/>
      <point x="487" y="381"/>
      <point x="449" y="345"/>
      <point x="449" y="318" type="qcurve"/>
      <point x="449" y="0" type="line"/>
      <point x="423" y="0"/>
      <point x="272" y="0"/>
      <point x="246" y="0" type="qcurve"/>
      <point x="246" y="535" type="line"/>
      <point x="434" y="535" type="line"/>
      <point x="444" y="427" type="line"/>
      <point x="401" y="415" type="line"/>
      <point x="417" y="472"/>
      <point x="526" y="546"/>
    </contour>
  </outline>
</glyph>
<glyph name="Obreve" format="2">
  <advance width="834"/>
  <unicode hex="014E"/>
  <outline>
    <contour>
      <point x="417" y="720" type="qcurve"/>
      <point x="582" y="720"/>
      <point x="794" y="514"/>
      <point x="794" y="355" type="qcurve"/>
      <point x="794" y="196"/>
      <point x="582" y="-10"/>
      <point x="417" y="-10" type="qcurve"/>
      <point x="252" y="-10"/>
      <point x="40" y="196"/>
      <point x="40" y="355" type="qcurve"/>
      <point x="40" y="514"/>
      <point x="252" y="720"/>
    </contour>
    <contour>
      <point x="417" y="190" type="qcurve"/>
      <point x="485" y="190"/>
      <point x="574" y="283"/>
      <point x="574" y="355" type="qcurve"/>
      <point x="574" y="427"/>
      <point x="485" y="520"/>
      <point x="417" y="520" type="qcurve"/>
      <point x="349" y="520"/>
      <point x="260" y="427"/>
      <point x="260" y="355" type="qcurve"/>
      <point x="260" y="283"/>
      <point x="349" y="190"/>
    </contour>
    <contour>
      <point x="417" y="770" type="qcurve"/>
      <point x="344" y="770"/>
      <point x="240" y="857"/>
      <point x="225" y="934" type="qcurve"/>
      <point x="349" y="946" type="line"/>
      <point x="358" y="920"/>
      <point x="396" y="891"/>
      <point x="417" y="891" type="qcurve"/>
      <point x="438" y="891"/>
      <point x="476" y="920"/>
      <point x="485" y="946" type="qcurve"/>
      <point x="609" y="934" type="line"/>
      <point x="594" y="857"/>
      <point x="490" y="770"/>
    </contour>
  </outline>
</glyph>
<glyph name="obreve" format="2">
  <advance width="660"/>
  <unicode hex="014F"/>
  <outline>
    <contour>
      <point x="331" y="546" type="qcurve"/>
      <point x="461" y="546"/>
      <point x="630" y="389"/>
      <point x="630" y="268" type="qcurve"/>
      <point x="630" y="147"/>
      <point x="461" y="-10"/>
      <point x="331" y="-10" type="qcurve"/>
      <point x="200" y="-10"/>
      <point x="30" y="147"/>
      <point x="30" y="268" type="qcurve"/>
      <point x="30" y="389"/>
      <point x="200" y="546"/>
    </contour>
    <contour>
      <point x="331" y="160" type="qcurve"/>
      <point x="372" y="160"/>
      <point x="425" y="221"/>
      <point x="425" y="268" type="qcurve"/>
      <point x="425" y="316"/>
      <point x="372" y="377"/>
      <point x="331" y="377" type="qcurve"/>
      <point x="289" y="377"/>
      <point x="235" y="316"/>
      <point x="235" y="268" type="qcurve"/>
      <point x="235" y="221"/>
      <point x="289" y="160"/>
    </contour>
    <contour>
      <point x="330" y="615" type="qcurve"/>
      <point x="257" y="615"/>
      <point x="153" y="702"/>
      <point x="138" y="779" type="qcurve"/>
      <point x="262" y="791" type="line"/>
      <point x="271" y="765"/>
      <point x="309" y="736"/>
      <point x="330" y="736" type="qcurve"/>
      <point x="351" y="736"/>
      <point x="389" y="765"/>
      <point x="398" y="791" type="qcurve"/>
      <point x="522" y="779" type="line"/>
      <point x="507" y="702"/>
      <point x="403" y="615"/>
    </contour>
  </outline>
</glyph>
<glyph name="oe" format="2">
  <advance width="1019"/>
  <unicode hex="0153"/>
  <outline>
    <contour>
      <point x="331" y="546" type="qcurve"/>
      <point x="461" y="546"/>
      <point x="630" y="389"/>
      <point x="630" y="268" type="qcurve"/>
      <point x="630" y="147"/>
      <point x="461" y="-10"/>
      <point x="331" y="-10" type="qcurve"/>
      <point x="200" y="-10"/>
      <point x="30" y="147"/>
      <point x="30" y="268" type="qcurve"/>
      <point x="30" y="389"/>
      <point x="200" y="546"/>
    </contour>
    <contour>
      <point x="331" y="160" type="qcurve"/>
      <point x="372" y="160"/>
      <point x="425" y="221"/>
      <point x="425" y="268" type="qcurve"/>
      <point x="425" y="316"/>
      <point x="372" y="377"/>
      <point x="331" y="377" type="qcurve"/>
      <point x="289" y="377"/>
      <point x="235" y="316"/>
      <point x="235" y="268" type="qcurve"/>
      <point x="235" y="221"/>
      <point x="289" y="160"/>
    </contour>
    <contour>
      <point x="882" y="196" type="qcurve"/>
      <point x="975" y="65" type="line"/>
      <point x="919" y="22"/>
      <point x="816" y="-10"/>
      <point x="762" y="-10" type="qcurve"/>
      <point x="622" y="-10"/>
      <point x="463" y="147"/>
      <point x="463" y="268" type="qcurve"/>
      <point x="463" y="389"/>
      <point x="616" y="546"/>
      <point x="734" y="546" type="qcurve"/>
      <point x="852" y="546"/>
      <point x="995" y="389"/>
      <point x="995" y="268" type="qcurve"/>
      <point x="994" y="226" type="line"/>
      <point x="575" y="226" type="line"/>
      <point x="552" y="321" type="line"/>
      <point x="833" y="321" type="line"/>
      <point x="814" y="301" type="line"/>
      <point x="814" y="319" type="line"/>
      <point x="814" y="348"/>
      <point x="773" y="383"/>
      <point x="738" y="383" type="qcurve"/>
      <point x="694" y="383"/>
      <point x="648" y="330"/>
      <point x="648" y="284" type="qcurve"/>
      <point x="648" y="230"/>
      <point x="717" y="164"/>
      <point x="785" y="164" type="qcurve"/>
      <point x="815" y="164"/>
      <point x="858" y="179"/>
    </contour>
  </outline>
</glyph>
<glyph name="racute" format="2">
  <advance width="493"/>
  <unicode hex="0155"/>
  <outline>
    <contour>
      <point x="483" y="537" type="qcurve"/>
      <point x="427" y="312" type="line"/>
      <point x="417" y="319"/>
      <point x="374" y="331"/>
      <point x="349" y="331" type="qcurve"/>
      <point x="312" y="331"/>
      <point x="273" y="287"/>
      <point x="273" y="248" type="qcurve"/>
      <point x="273" y="0" type="line"/>
      <point x="70" y="0" type="line"/>
      <point x="70" y="535" type="line"/>
      <point x="258" y="535" type="line"/>
      <point x="270" y="357" type="line"/>
      <point x="225" y="385" type="line"/>
      <point x="244" y="454"/>
      <point x="350" y="546"/>
      <point x="418" y="546" type="qcurve"/>
      <point x="436" y="546"/>
      <point x="468" y="541"/>
    </contour>
    <contour>
      <point x="420" y="737" type="line"/>
      <point x="192" y="615" type="line"/>
      <point x="134" y="704" type="line"/>
      <point x="340" y="858" type="line"/>
    </contour>
  </outline>
</glyph>
<glyph name="uni0157" format="2">
  <advance width="493"/>
  <unicode hex="0157"/>
  <outline>
    <contour>
      <point x="483" y="537" type="qcurve"/>
      <point x="427" y="312" type="line"/>
      <point x="417" y="319"/>
      <point x="374" y="331"/>
      <point x="349" y="331" type="qcurve"/>
      <point x="312" y="331"/>
      <point x="273" y="287"/>
      <point x="273" y="248" type="qcurve"/>
      <point x="273" y="0" type="line"/>
      <point x="70" y="0" type="line"/>
      <point x="70" y="535" type="line"/>
      <point x="258" y="535" type="line"/>
      <point x="270" y="357" type="line"/>
      <point x="225" y="385" type="line"/>
      <point x="244" y="454"/>
      <point x="350" y="546"/>
      <point x="418" y="546" type="qcurve"/>
      <point x="436" y="546"/>
      <point x="468" y="541"/>
    </contour>
    <contour>
      <point x="109" y="-361" type="qcurve"/>
      <point x="57" y="-297" type="line"/>
      <point x="101" y="-280"/>
      <point x="143" y="-252"/>
      <point x="143" y="-235" type="qcurve"/>
      <point x="143" y="-225"/>
      <point x="128" y="-215"/>
      <point x="115" y="-208" type="qcurve"/>
      <point x="92" y="-197"/>
      <point x="70" y="-167"/>
      <point x="70" y="-143" type="qcurve"/>
      <point x="70" y="-103"/>
      <point x="126" y="-66"/>
      <point x="167" y="-66" type="qcurve"/>
      <point x="214" y="-66"/>
      <point x="279" y="-123"/>
      <point x="279" y="-183" type="qcurve"/>
      <point x="279" y="-245"/>
      <point x="188" y="-331"/>
    </contour>
  </outline>
</glyph>
<glyph name="Scircumflex" format="2">
  <advance width="641"/>
  <unicode hex="015C"/>
  <outline>
    <contour>
      <point x="-2" y="132" type="qcurve"/>
      <point x="123" y="272" type="line"/>
      <point x="173" y="208"/>
      <point x="282" y="167"/>
      <point x="330" y="167" type="qcurve"/>
      <point x="359" y="167"/>
      <point x="395" y="183"/>
      <point x="395" y="204" type="qcurve"/>
      <point x="395" y="229"/>
      <point x="337" y="251"/>
      <point x="274" y="266" type="qcurve"/>
      <point x="153" y="294"/>
      <point x="35" y="402"/>
      <point x="35" y="493" type="qcurve"/>
      <point x="35" y="596"/>
      <point x="208" y="720"/>
      <point x="316" y="720" type="qcurve"/>
      <point x="434" y="720"/>
      <point x="560" y="655"/>
      <point x="599" y="601" type="qcurve"/>
      <point x="473" y="480" type="line"/>
      <point x="440" y="512"/>
      <point x="365" y="541"/>
      <point x="327" y="541" type="qcurve"/>
      <point x="293" y="541"/>
      <point x="254" y="525"/>
      <point x="254" y="506" type="qcurve"/>
      <point x="254" y="490"/>
      <point x="296" y="467"/>
      <point x="359" y="455" type="qcurve"/>
      <point x="469" y="434"/>
      <point x="612" y="333"/>
      <point x="612" y="224" type="qcurve"/>
      <point x="612" y="109"/>
      <point x="445" y="-10"/>
      <point x="325" y="-10" type="qcurve"/>
      <point x="206" y="-10"/>
      <point x="52" y="67"/>
    </contour>
    <contour>
      <point x="464" y="777" type="line"/>
      <point x="311" y="863" type="line"/>
      <point x="341" y="863" type="line"/>
      <point x="188" y="777" type="line"/>
      <point x="120" y="845" type="line"/>
      <point x="275" y="971" type="line"/>
      <point x="377" y="971" type="line"/>
      <point x="532" y="845" type="line"/>
    </contour>
  </outline>
</glyph>
<glyph name="scedilla" format="2">
  <advance width="507"/>
  <unicode hex="015F"/>
  <outline>
    <contour>
      <point x="1" y="83" type="qcurve"/>
      <point x="119" y="184" type="line"/>
      <point x="156" y="150"/>
      <point x="236" y="129"/>
      <point x="270" y="129" type="qcurve"/>
      <point x="284" y="129"/>
      <point x="301" y="142"/>
      <point x="301" y="153" type="qcurve"/>
      <point x="301" y="168"/>
      <point x="268" y="182"/>
      <point x="202" y="199" type="qcurve"/>
      <point x="123" y="219"/>
      <point x="24" y="302"/>
      <point x="24" y="372" type="qcurve"/>
      <point x="24" y="453"/>
      <point x="166" y="546"/>
      <point x="253" y="546" type="qcurve"/>
      <point x="326" y="546"/>
      <point x="446" y="504"/>
      <point x="493" y="468" type="qcurve"/>
      <point x="390" y="353" type="line"/>
      <point x="365" y="374"/>
      <point x="276" y="410"/>
      <point x="245" y="410" type="qcurve"/>
      <point x="233" y="410"/>
      <point x="217" y="397"/>
      <point x="217" y="387" type="qcurve"/>
      <point x="217" y="369"/>
      <point x="249" y="352"/>
      <point x="332" y="328" type="qcurve"/>
      <point x="409" y="306"/>
      <point x="497" y="236"/>
      <point x="497" y="179" type="qcurve"/>
      <point x="497" y="97"/>
      <point x="360" y="-10"/>
      <point x="253" y="-10" type="qcurve"/>
      <point x="166" y="-10"/>
      <point x="37" y="43"/>
    </contour>
    <contour>
      <point x="252" y="-87" type="line"/>
      <point x="169" y="-80" type="line"/>
      <point x="236" y="24" type="line"/>
      <point x="335" y="24" type="line"/>
    </contour>
    <contour>
      <point x="392" y="-139" type="qcurve"/>
      <point x="392" y="-163"/>
      <point x="356" y="-213"/>
      <point x="324" y="-228" type="qcurve"/>
      <point x="293" y="-241"/>
      <point x="215" y="-248"/>
      <point x="172" y="-247" type="qcurve"/>
      <point x="161" y="-156" type="line"/>
      <point x="188" y="-156"/>
      <point x="247" y="-142"/>
      <point x="247" y="-125" type="qcurve"/>
      <point x="247" y="-110"/>
      <point x="215" y="-96"/>
      <point x="190" y="-96" type="qcurve"/>
      <point x="169" y="-82" type="line"/>
      <point x="169" y="-80" type="line"/>
      <point x="272" y="-39" type="line"/>
      <point x="334" y="-39"/>
      <point x="392" y="-98"/>
    </contour>
  </outline>
</glyph>
<glyph name="scaron" format="2">
  <advance width="507"/>
  <unicode hex="0161"/>
  <outline>
    <contour>
      <point x="1" y="83" type="qcurve"/>
      <point x="119" y="184" type="line"/>
      <point x="156" y="150"/>
      <point x="236" y="129"/>
      <point x="270" y="129" type="qcurve"/>
      <point x="284" y="129"/>
      <point x="301" y="142"/>
      <point x="301" y="153" type="qcurve"/>
      <point x="301" y="168"/>
      <point x="268" y="182"/>
      <point x="202" y="199" type="qcurve"/>
      <point x="123" y="219"/>
      <point x="24" y="302"/>
      <point x="24" y="372" type="qcurve"/>
      <point x="24" y="453"/>
      <point x="166" y="546"/>
      <point x="253" y="546" type="qcurve"/>
      <point x="326" y="546"/>
      <point x="446" y="504"/>
      <point x="493" y="468" type="qcurve"/>
      <point x="390" y="353" type="line"/>
      <point x="365" y="374"/>
      <point x="276" y="410"/>
      <point x="245" y="410" type="qcurve"/>
      <point x="233" y="410"/>
      <point x="217" y="397"/>
      <point x="217" y="387" type="qcurve"/>
      <point x="217" y="369"/>
      <point x="249" y="352"/>
      <point x="332" y="328" type="qcurve"/>
      <point x="409" y="306"/>
      <point x="497" y="236"/>
      <point x="497" y="179" type="qcurve"/>
      <point x="497" y="97"/>
      <point x="360" y="-10"/>
      <point x="253" y="-10" type="qcurve"/>
      <point x="166" y="-10"/>
      <point x="37" y="43"/>
    </contour>
    <contour>
      <point x="281" y="723" type="line"/>
      <point x="251" y="723" type="line"/>
      <point x="411" y="819" type="line"/>
      <point x="483" y="757" type="line"/>
      <point x="317" y="615" type="line"/>
      <point x="215" y="615" type="line"/>
      <point x="49" y="757" type="line"/>
      <point x="121" y="819" type="line"/>
    </contour>
  </outline>
</glyph>
<glyph name="tcaron" format="2">
  <advance width="666"/>
  <unicode hex="0165"/>
  <outline>
    <contour>
      <point x="356" y="670" type="line"/>
      <point x="356" y="0" type="line"/>
      <point x="153" y="0" type="line"/>
      <point x="153" y="670" type="line"/>
    </contour>
    <contour>
      <point x="444" y="535" type="line"/>
      <point x="444" y="365" type="line"/>
      <point x="70" y="365" type="line"/>
      <point x="70" y="535" type="line"/>
    </contour>
    <contour>
      <point x="436" y="571" type="qcurve"/>
      <point x="384" y="635" type="line"/>
      <point x="428" y="652"/>
      <point x="470" y="680"/>
      <point x="470" y="697" type="qcurve"/>
      <point x="470" y="707"/>
      <point x="455" y="717"/>
      <point x="442" y="724" type="qcurve"/>
      <point x="419" y="735"/>
      <point x="397" y="765"/>
      <point x="397" y="789" type="qcurve"/>
      <point x="397" y="829"/>
      <point x="450" y="866"/>
      <point x="489" y="866" type="qcurve"/>
      <point x="538" y="866"/>
      <point x="606" y="812"/>
      <point x="606" y="754" type="qcurve"/>
      <point x="606" y="681"/>
      <point x="515" y="592"/>
    </contour>
  </outline>
</glyph>
<glyph name="Tbar" format="2">
  <advance width="714"/>
  <unicode hex="0166"/>
  <outline>
    <contour>
      <point x="462" y="0" type="line"/>
      <point x="246" y="0" type="line"/>
      <point x="246" y="651" type="line"/>
      <point x="462" y="651" type="line"/>
    </contour>
    <contour>
      <point x="684" y="516" type="line"/>
      <point x="30" y="516" type="line"/>
      <point x="30" y="700" type="line"/>
      <point x="684" y="700" type="line"/>
    </contour>
    <contour>
      <point x="541" y="270" type="line"/>
      <point x="173" y="270" type="line"/>
      <point x="173" y="410" type="line"/>
      <point x="541" y="410" type="line"/>
    </contour>
  </outline>
</glyph>
<glyph name="tbar" format="2">
  <advance width="409"/>
  <unicode hex="0167"/>
  <outline>
    <contour>
      <point x="301" y="670" type="line"/>
      <point x="301" y="0" type="line"/>
      <point x="98" y="0" type="line"/>
      <point x="98" y="670" type="line"/>
    </contour>
    <contour>
      <point x="389" y="535" type="line"/>
      <point x="389" y="365" type="line"/>
      <point x="15" y="365" type="line"/>
      <point x="15" y="535" type="line"/>
    </contour>
    <contour>
      <point x="386" y="133" type="line"/>
      <point x="18" y="133" type="line"/>
      <point x="18" y="273" type="line"/>
      <point x="386" y="273" type="line"/>
    </contour>
  </outline>
</glyph>
<glyph name="Utilde" format="2">
  <advance width="784"/>
  <unicode hex="0168"/>
  <outline>
    <contour>
      <point x="491" y="700" type="line"/>
      <point x="704" y="700" type="line"/>
      <point x="704" y="269" type="line"/>
      <point x="704" y="149"/>
      <point x="528" y="-6"/>
      <point x="392" y="-6" type="qcurve"/>
      <point x="256" y="-6"/>
      <point x="80" y="149"/>
      <point x="80" y="269" type="qcurve"/>
      <point x="80" y="700" type="line"/>
      <point x="298" y="700" type="line"/>
      <point x="298" y="278" type="line"/>
      <point x="298" y="234"/>
      <point x="351" y="178"/>
      <point x="392" y="178" type="qcurve"/>
      <point x="435" y="178"/>
      <point x="491" y="234"/>
      <point x="491" y="278" type="qcurve"/>
    </contour>
    <contour>
      <point x="309" y="771" type="qcurve"/>
      <point x="192" y="771" type="line"/>
      <point x="192" y="846"/>
      <point x="265" y="934"/>
      <point x="328" y="934" type="qcurve"/>
      <point x="343" y="934"/>
      <point x="377" y="925"/>
      <point x="409" y="911" type="qcurve"/>
      <point x="430" y="902"/>
      <point x="447" y="894"/>
      <point x="454" y="894" type="qcurve"/>
      <point x="467" y="894"/>
      <point x="480" y="916"/>
      <point x="479" y="934" type="qcurve"/>
      <point x="595" y="934" type="line"/>
      <point x="595" y="864"/>
      <point x="527" y="770"/>
      <point x="473" y="770" type="qcurve"/>
      <point x="456" y="770"/>
      <point x="417" y="780"/>
      <point x="380" y="794" type="qcurve"/>
      <point x="359" y="802"/>
      <point x="342" y="810"/>
      <point x="336" y="810" type="qcurve"/>
      <point x="324" y="810"/>
      <point x="309" y="789"/>
    </contour>
  </outline>
</glyph>
<glyph name="Ubreve" format="2">
  <advance width="784"/>
  <unicode hex="016C"/>
  <outline>
    <contour>
      <point x="491" y="700" type="line"/>
      <point x="704" y="700" type="line"/>
      <point x="704" y="269" type="line"/>
      <point x="704" y="149"/>
      <point x="528" y="-6"/>
      <point x="392" y="-6" type="qcurve"/>
      <point x="256" y="-6"/>
      <point x="80" y="149"/>
      <point x="80" y="269" type="qcurve"/>
      <point x="80" y="700" type="line"/>
      <point x="298" y="700" type="line"/>
      <point x="298" y="278" type="line"/>
      <point x="298" y="234"/>
      <point x="351" y="178"/>
      <point x="392" y="178" type="qcurve"/>
      <point x="435" y="178"/>
      <point x="491" y="234"/>
      <point x="491" y="278" type="qcurve"/>
    </contour>
    <contour>
      <point x="392" y="770" type="qcurve"/>
      <point x="319" y="770"/>
      <point x="215" y="857"/>
      <point x="200" y="934" type="qcurve"/>
      <point x="324" y="946" type="line"/>
      <point x="333" y="920"/>
      <point x="371" y="891"/>
      <point x="392" y="891" type="qcurve"/>
      <point x="413" y="891"/>
      <point x="451" y="920"/>
      <point x="460" y="946" type="qcurve"/>
      <point x="584" y="934" type="line"/>
      <point x="569" y="857"/>
      <point x="465" y="770"/>
    </contour>
  </outline>
</glyph>
<glyph name="Uogonek" format="2">
  <advance width="774"/>
  <unicode hex="0172"/>
  <outline>
    <contour>
      <point x="420" y="-7" type="qcurve"/>
      <point x="249" y="-7"/>
      <point x="80" y="158"/>
      <point x="80" y="269" type="qcurve"/>
      <point x="80" y="700" type="line"/>
      <point x="298" y="700" type="line"/>
      <point x="298" y="278" type="line"/>
      <point x="298" y="234"/>
      <point x="351" y="178"/>
      <point x="392" y="178" type="qcurve"/>
      <point x="435" y="178"/>
      <point x="491" y="234"/>
      <point x="491" y="278" type="qcurve"/>
      <point x="491" y="700" type="line"/>
      <point x="704" y="700" type="line"/>
      <point x="704" y="269" type="line"/>
      <point x="704" y="173"/>
      <point x="591" y="37"/>
      <point x="501" y="8" type="qcurve"/>
      <point x="474" y="-1"/>
      <point x="444" y="-48"/>
      <point x="444" y="-71" type="qcurve"/>
      <point x="444" y="-81"/>
      <point x="456" y="-93"/>
      <point x="467" y="-93" type="qcurve"/>
      <point x="476" y="-93"/>
      <point x="488" y="-82"/>
      <point x="496" y="-70" type="qcurve"/>
      <point x="567" y="-141" type="line"/>
      <point x="551" y="-167"/>
      <point x="487" y="-211"/>
      <point x="447" y="-211" type="qcurve"/>
      <point x="391" y="-211"/>
      <point x="318" y="-149"/>
      <point x="318" y="-99" type="qcurve"/>
      <point x="318" y="-73"/>
      <point x="338" y="-24"/>
      <point x="378" y="18" type="qcurve"/>
      <point x="452" y="3" type="line"/>
      <point x="442" y="-3"/>
      <point x="432" y="-7"/>
    </contour>
  </outline>
</glyph>
<glyph name="uogonek" format="2">
  <advance width="669"/>
  <unicode hex="0173"/>
  <outline>
    <contour>
      <point x="326" y="154" type="qcurve"/>
      <point x="356" y="154"/>
      <point x="394" y="190"/>
      <point x="394" y="217" type="qcurve"/>
      <point x="394" y="535" type="line"/>
      <point x="597" y="535" type="line"/>
      <point x="597" y="0" type="line"/>
      <point x="411" y="0" type="line"/>
      <point x="399" y="108" type="line"/>
      <point x="437" y="120" type="line"/>
      <point x="421" y="63"/>
      <point x="315" y="-11"/>
      <point x="249" y="-11" type="qcurve"/>
      <point x="158" y="-11"/>
      <point x="60" y="101"/>
      <point x="60" y="205" type="qcurve"/>
      <point x="60" y="535" type="line"/>
      <point x="263" y="535" type="line"/>
      <point x="263" y="222" type="line"/>
      <point x="263" y="189"/>
      <point x="296" y="154"/>
    </contour>
    <contour>
      <point x="507" y="-219" type="qcurve"/>
      <point x="451" y="-219"/>
      <point x="378" y="-152"/>
      <point x="378" y="-102" type="qcurve"/>
      <point x="378" y="-50"/>
      <point x="463" y="26"/>
      <point x="553" y="50" type="qcurve"/>
      <point x="564" y="44" type="line"/>
      <point x="597" y="0" type="line"/>
      <point x="559" y="-9"/>
      <point x="504" y="-49"/>
      <point x="504" y="-74" type="qcurve"/>
      <point x="504" y="-84"/>
      <point x="516" y="-96"/>
      <point x="527" y="-96" type="qcurve"/>
      <point x="536" y="-96"/>
      <point x="548" y="-85"/>
      <point x="556" y="-73" type="qcurve"/>
      <point x="636" y="-132" type="line"/>
      <point x="618" y="-162"/>
      <point x="550" y="-219"/>
    </contour>
  </outline>
</glyph>
<glyph name="wcircumflex" format="2">
  <advance width="859"/>
  <unicode hex="0175"/>
  <outline>
    <contour>
      <point x="638" y="535" type="line"/>
      <point x="854" y="535" type="line"/>
      <point x="671" y="0" type="line"/>
      <point x="517" y="0" type="line"/>
      <point x="425" y="248" type="line"/>
      <point x="429" y="248" type="line"/>
      <point x="331" y="0" type="line"/>
      <point x="177" y="0" type="line"/>
      <point x="5" y="535" type="line"/>
      <point x="221" y="535" type="line"/>
      <point x="298" y="226" type="line"/>
      <point x="278" y="230" type="line"/>
      <point x="366" y="470" type="line"/>
      <point x="484" y="470" type="line"/>
      <point x="582" y="230" type="line"/>
      <point x="562" y="227" type="line"/>
    </contour>
    <contour>
      <point x="574" y="615" type="line"/>
      <point x="414" y="711" type="line"/>
      <point x="444" y="711" type="line"/>
      <point x="284" y="615" type="line"/>
      <point x="212" y="677" type="line"/>
      <point x="378" y="819" type="line"/>
      <point x="480" y="819" type="line"/>
      <point x="646" y="677" type="line"/>
    </contour>
  </outline>
</glyph>
<glyph name="Ycircumflex" format="2">
  <advance width="710"/>
  <unicode hex="0176"/>
  <outline>
    <contour>
      <point x="496" y="700" type="line"/>
      <point x="730" y="700" type="line"/>
      <point x="459" y="289" type="line"/>
      <point x="474" y="357" type="line"/>
      <point x="474" y="0" type="line"/>
      <point x="256" y="0" type="line"/>
      <point x="256" y="349" type="line"/>
      <point x="263" y="300" type="line"/>
      <point x="-20" y="700" type="line"/>
      <point x="220" y="700" type="line"/>
      <point x="436" y="390" type="line"/>
      <point x="301" y="393" type="line"/>
    </contour>
    <contour>
      <point x="494" y="777" type="line"/>
      <point x="341" y="863" type="line"/>
      <point x="371" y="863" type="line"/>
      <point x="218" y="777" type="line"/>
      <point x="150" y="845" type="line"/>
      <point x="305" y="971" type="line"/>
      <point x="407" y="971" type="line"/>
      <point x="562" y="845" type="line"/>
    </contour>
  </outline>
</glyph>
<glyph name="ycircumflex" format="2">
  <advance width="649"/>
  <unicode hex="0177"/>
  <outline>
    <contour>
      <point x="348" y="187" type="qcurve"/>
      <point x="257" y="0" type="line"/>
      <point x="5" y="535" type="line"/>
      <point x="231" y="535" type="line"/>
      <point x="305" y="357" type="line"/>
      <point x="329" y="300"/>
      <point x="348" y="214"/>
    </contour>
    <contour>
      <point x="317" y="-230" type="line"/>
      <point x="121" y="-230" type="line"/>
      <point x="254" y="83" type="line"/>
      <point x="298" y="196" type="line"/>
      <point x="307" y="218"/>
      <point x="316" y="239"/>
      <point x="325" y="261" type="qcurve"/>
      <point x="418" y="535" type="line"/>
      <point x="644" y="535" type="line"/>
      <point x="411" y="0" type="line"/>
    </contour>
    <contour>
      <point x="470" y="615" type="line"/>
      <point x="310" y="711" type="line"/>
      <point x="340" y="711" type="line"/>
      <point x="180" y="615" type="line"/>
      <point x="108" y="677" type="line"/>
      <point x="274" y="819" type="line"/>
      <point x="376" y="819" type="line"/>
      <point x="542" y="677" type="line"/>
    </contour>
  </outline>
</glyph>
<glyph name="Zacute" format="2">
  <advance width="701"/>
  <unicode hex="0179"/>
  <outline>
    <contour>
      <point x="86" y="700" type="line"/>
      <point x="630" y="700" type="line"/>
      <point x="630" y="562" type="line"/>
      <point x="273" y="87" type="line"/>
      <point x="180" y="182" type="line"/>
      <point x="641" y="182" type="line"/>
      <point x="641" y="0" type="line"/>
      <point x="60" y="0" type="line"/>
      <point x="60" y="139" type="line"/>
      <point x="419" y="613" type="line"/>
      <point x="511" y="506" type="line"/>
      <point x="86" y="506" type="line"/>
    </contour>
    <contour>
      <point x="538" y="892" type="line"/>
      <point x="310" y="770" type="line"/>
      <point x="250" y="863" type="line"/>
      <point x="455" y="1017" type="line"/>
    </contour>
  </outline>
</glyph>
<glyph name="zacute" format="2">
  <advance width="599"/>
  <unicode hex="017A"/>
  <outline>
    <contour>
      <point x="262" y="160" type="line"/>
      <point x="543" y="160" type="line"/>
      <point x="543" y="0" type="line"/>
      <point x="50" y="0" type="line"/>
      <point x="50" y="96" type="line"/>
      <point x="341" y="458" type="line"/>
      <point x="341" y="375" type="line"/>
      <point x="50" y="375" type="line"/>
      <point x="50" y="535" type="line"/>
      <point x="533" y="535" type="line"/>
      <point x="533" y="431" type="line"/>
      <point x="266" y="84" type="line"/>
    </contour>
    <contour>
      <point x="455" y="737" type="line"/>
      <point x="227" y="615" type="line"/>
      <point x="169" y="704" type="line"/>
      <point x="375" y="858" type="line"/>
    </contour>
  </outline>
</glyph>
<glyph name="Zdotaccent" format="2">
  <advance width="701"/>
  <unicode hex="017B"/>
  <outline>
    <contour>
      <point x="86" y="700" type="line"/>
      <point x="630" y="700" type="line"/>
      <point x="630" y="562" type="line"/>
      <point x="273" y="87" type="line"/>
      <point x="180" y="182" type="line"/>
      <point x="641" y="182" type="line"/>
      <point x="641" y="0" type="line"/>
      <point x="60" y="0" type="line"/>
      <point x="60" y="139" type="line"/>
      <point x="419" y="613" type="line"/>
      <point x="511" y="506" type="line"/>
      <point x="86" y="506" type="line"/>
    </contour>
    <contour>
      <point x="466" y="866" type="qcurve"/>
      <point x="466" y="824"/>
      <point x="404" y="770"/>
      <point x="350" y="770" type="qcurve"/>
      <point x="296" y="770"/>
      <point x="236" y="820"/>
      <point x="236" y="866" type="qcurve"/>
      <point x="236" y="908"/>
      <point x="297" y="962"/>
      <point x="350" y="962" type="qcurve"/>
      <point x="405" y="962"/>
      <point x="466" y="912"/>
    </contour>
  </outline>
</glyph>
<glyph name="zdotaccent" format="2">
  <advance width="599"/>
  <unicode hex="017C"/>
  <outline>
    <contour>
      <point x="262" y="160" type="line"/>
      <point x="543" y="160" type="line"/>
      <point x="543" y="0" type="line"/>
      <point x="50" y="0" type="line"/>
      <point x="50" y="96" type="line"/>
      <point x="341" y="458" type="line"/>
      <point x="341" y="375" type="line"/>
      <point x="50" y="375" type="line"/>
      <point x="50" y="535" type="line"/>
      <point x="533" y="535" type="line"/>
      <point x="533" y="431" type="line"/>
      <point x="266" y="84" type="line"/>
    </contour>
    <contour>
      <point x="412" y="711" type="qcurve"/>
      <point x="412" y="669"/>
      <point x="350" y="615"/>
      <point x="296" y="615" type="qcurve"/>
      <point x="242" y="615"/>
      <point x="182" y="665"/>
      <point x="182" y="711" type="qcurve"/>
      <point x="182" y="753"/>
      <point x="244" y="807"/>
      <point x="296" y="807" type="qcurve"/>
      <point x="350" y="807"/>
      <point x="412" y="757"/>
    </contour>
  </outline>
</glyph>
<glyph name="Zcaron" format="2">
  <advance width="701"/>
  <unicode hex="017D"/>
  <outline>
    <contour>
      <point x="86" y="700" type="line"/>
      <point x="630" y="700" type="line"/>
      <point x="630" y="562" type="line"/>
      <point x="273" y="87" type="line"/>
      <point x="180" y="182" type="line"/>
      <point x="641" y="182" type="line"/>
      <point x="641" y="0" type="line"/>
      <point x="60" y="0" type="line"/>
      <point x="60" y="139" type="line"/>
      <point x="419" y="613" type="line"/>
      <point x="511" y="506" type="line"/>
      <point x="86" y="506" type="line"/>
    </contour>
    <contour>
      <point x="496" y="974" type="line"/>
      <point x="336" y="878" type="line"/>
      <point x="366" y="878" type="line"/>
      <point x="206" y="974" type="line"/>
      <point x="134" y="912" type="line"/>
      <point x="300" y="770" type="line"/>
      <point x="402" y="770" type="line"/>
      <point x="568" y="912" type="line"/>
    </contour>
  </outline>
</glyph>
<glyph name="zcaron" format="2">
  <advance width="599"/>
  <unicode hex="017E"/>
  <outline>
    <contour>
      <point x="262" y="160" type="line"/>
      <point x="543" y="160" type="line"/>
      <point x="543" y="0" type="line"/>
      <point x="50" y="0" type="line"/>
      <point x="50" y="96" type="line"/>
      <point x="341" y="458" type="line"/>
      <point x="341" y="375" type="line"/>
      <point x="50" y="375" type="line"/>
      <point x="50" y="535" type="line"/>
      <point x="533" y="535" type="line"/>
      <point x="533" y="431" type="line"/>
      <point x="266" y="84" type="line"/>
    </contour>
    <contour>
      <point x="312" y="723" type="line"/>
      <point x="282" y="723" type="line"/>
      <point x="442" y="819" type="line"/>
      <point x="514" y="757" type="line"/>
      <point x="348" y="615" type="line"/>
      <point x="246" y="615" type="line"/>
      <point x="80" y="757" type="line"/>
      <point x="152" y="819" type="line"/>
    </contour>
  </outline>
</glyph>
<glyph name="uni018F" format="2">
  <advance width="764"/>
  <unicode hex="018F"/>
  <outline>
    <contour>
      <point x="724" y="350" type="qcurve"/>
      <point x="724" y="201"/>
      <point x="523" y="-10"/>
      <point x="382" y="-10" type="qcurve"/>
      <point x="246" y="-10"/>
      <point x="47" y="174"/>
      <point x="40" y="313" type="qcurve"/>
      <point x="40" y="427" type="line"/>
      <point x="678" y="427" type="line"/>
      <point x="687" y="261" type="line"/>
      <point x="274" y="261" type="line"/>
      <point x="291" y="225"/>
      <point x="351" y="190"/>
      <point x="382" y="190" type="qcurve"/>
      <point x="435" y="190"/>
      <point x="504" y="268"/>
      <point x="504" y="351" type="qcurve"/>
      <point x="504" y="424"/>
      <point x="424" y="510"/>
      <point x="359" y="510" type="qcurve"/>
      <point x="303" y="510"/>
      <point x="226" y="483"/>
      <point x="178" y="450" type="qcurve"/>
      <point x="101" y="621" type="line"/>
      <point x="173" y="668"/>
      <point x="290" y="710"/>
      <point x="379" y="710" type="qcurve"/>
      <point x="521" y="710"/>
      <point x="724" y="499"/>
    </contour>
  </outline>
</glyph>
<glyph name="Uhorn" format="2">
  <advance width="953"/>
  <unicode hex="01AF"/>
  <outline>
    <contour>
      <point x="491" y="700" type="line"/>
      <point x="704" y="700" type="line"/>
      <point x="704" y="269" type="line"/>
      <point x="704" y="149"/>
      <point x="528" y="-6"/>
      <point x="392" y="-6" type="qcurve"/>
      <point x="256" y="-6"/>
      <point x="80" y="149"/>
      <point x="80" y="269" type="qcurve"/>
      <point x="80" y="700" type="line"/>
      <point x="298" y="700" type="line"/>
      <point x="298" y="278" type="line"/>
      <point x="298" y="234"/>
      <point x="351" y="178"/>
      <point x="392" y="178" type="qcurve"/>
      <point x="435" y="178"/>
      <point x="491" y="234"/>
      <point x="491" y="278" type="qcurve"/>
    </contour>
    <contour>
      <point x="622" y="578" type="qcurve"/>
      <point x="622" y="700" type="line"/>
      <point x="667" y="700"/>
      <point x="711" y="767"/>
      <point x="711" y="834" type="qcurve"/>
      <point x="863" y="834" type="line"/>
      <point x="863" y="724"/>
      <point x="737" y="578"/>
    </contour>
  </outline>
</glyph>
<glyph name="uni01C5" format="2">
  <advance width="1388"/>
  <unicode hex="01C5"/>
  <outline>
    <contour>
      <point x="80" y="700" type="line"/>
      <point x="388" y="700" type="line"/>
      <point x="546" y="700"/>
      <point x="750" y="503"/>
      <point x="750" y="350" type="qcurve"/>
      <point x="750" y="197"/>
      <point x="546" y="0"/>
      <point x="388" y="0" type="qcurve"/>
      <point x="80" y="0" type="line"/>
    </contour>
    <contour>
      <point x="259" y="184" type="line"/>
      <point x="383" y="184" type="line"/>
      <point x="448" y="184"/>
      <point x="532" y="278"/>
      <point x="532" y="350" type="qcurve"/>
      <point x="532" y="422"/>
      <point x="448" y="516"/>
      <point x="383" y="516" type="qcurve"/>
      <point x="256" y="516" type="line"/>
      <point x="296" y="565" type="line"/>
      <point x="296" y="133" type="line"/>
    </contour>
    <contour>
      <point x="1051" y="160" type="line"/>
      <point x="1332" y="160" type="line"/>
      <point x="1332" y="0" type="line"/>
      <point x="839" y="0" type="line"/>
      <point x="839" y="96" type="line"/>
      <point x="1130" y="458" type="line"/>
      <point x="1130" y="375" type="line"/>
      <point x="839" y="375" type="line"/>
      <point x="839" y="535" type="line"/>
      <point x="1322" y="535" type="line"/>
      <point x="1322" y="431" type="line"/>
      <point x="1055" y="84" type="line"/>
    </contour>
    <contour>
      <point x="1100" y="723" type="line"/>
      <point x="1070" y="723" type="line"/>
      <point x="1230" y="819" type="line"/>
      <point x="1302" y="757" type="line"/>
      <point x="1136" y="615" type="line"/>
      <point x="1034" y="615" type="line"/>
      <point x="868" y="757" type="line"/>
      <point x="940" y="819" type="line"/>
    </contour>
  </outline>
</glyph>
<glyph name="uni01C6" format="2">
  <advance width="1268"/>
  <unicode hex="01C6"/>
  <outline>
    <contour>
      <point x="405" y="740" type="line"/>
      <point x="609" y="740" type="line"/>
      <point x="609" y="0" type="line"/>
      <point x="426" y="0" type="line"/>
      <point x="410" y="118" type="line"/>
      <point x="451" y="109" type="line"/>
      <point x="441" y="57"/>
      <point x="332" y="-11"/>
      <point x="258" y="-11" type="qcurve"/>
      <point x="159" y="-11"/>
      <point x="30" y="144"/>
      <point x="30" y="267" type="qcurve"/>
      <point x="30" y="388"/>
      <point x="161" y="546"/>
      <point x="263" y="546" type="qcurve"/>
      <point x="331" y="546"/>
      <point x="437" y="473"/>
      <point x="450" y="418" type="qcurve"/>
      <point x="405" y="404" type="line"/>
    </contour>
    <contour>
      <point x="229" y="267" type="qcurve"/>
      <point x="229" y="213"/>
      <point x="276" y="154"/>
      <point x="319" y="154" type="qcurve"/>
      <point x="363" y="154"/>
      <point x="410" y="213"/>
      <point x="410" y="267" type="qcurve"/>
      <point x="410" y="321"/>
      <point x="363" y="380"/>
      <point x="319" y="380" type="qcurve"/>
      <point x="276" y="380"/>
      <point x="229" y="321"/>
    </contour>
    <contour>
      <point x="931" y="160" type="line"/>
      <point x="1212" y="160" type="line"/>
      <point x="1212" y="0" type="line"/>
      <point x="719" y="0" type="line"/>
      <point x="719" y="96" type="line"/>
      <point x="1010" y="458" type="line"/>
      <point x="1010" y="375" type="line"/>
      <point x="719" y="375" type="line"/>
      <point x="719" y="535" type="line"/>
      <point x="1202" y="535" type="line"/>
      <point x="1202" y="431" type="line"/>
      <point x="935" y="84" type="line"/>
    </contour>
    <contour>
      <point x="980" y="723" type="line"/>
      <point x="950" y="723" type="line"/>
      <point x="1110" y="819" type="line"/>
      <point x="1182" y="757" type="line"/>
      <point x="1016" y="615" type="line"/>
      <point x="914" y="615" type="line"/>
      <point x="748" y="757" type="line"/>
      <point x="820" y="819" type="line"/>
    </contour>
  </outline>
</glyph>
<glyph name="uni01C7" format="2">
  <advance width="1298"/>
  <unicode hex="01C7"/>
  <outline>
    <contour>
      <point x="190" y="184" type="line"/>
      <point x="596" y="184" type="line"/>
      <point x="596" y="0" type="line"/>
      <point x="80" y="0" type="line"/>
      <point x="80" y="700" type="line"/>
      <point x="296" y="700" type="line"/>
      <point x="296" y="78" type="line"/>
    </contour>
    <contour>
      <point x="881" y="-10" type="qcurve"/>
      <point x="796" y="-10"/>
      <point x="680" y="55"/>
      <point x="647" y="115" type="qcurve"/>
      <point x="766" y="238" type="line"/>
      <point x="783" y="212"/>
      <point x="825" y="179"/>
      <point x="849" y="179" type="qcurve"/>
      <point x="873" y="179"/>
      <point x="902" y="212"/>
      <point x="902" y="240" type="qcurve"/>
      <point x="902" y="700" type="line"/>
      <point x="1110" y="700" type="line"/>
      <point x="1110" y="213" type="line"/>
      <point x="1110" y="106"/>
      <point x="976" y="-10"/>
    </contour>
    <contour>
      <point x="1218" y="700" type="line"/>
      <point x="1218" y="516" type="line"/>
      <point x="773" y="516" type="line"/>
      <point x="773" y="700" type="line"/>
    </contour>
  </outline>
</glyph>
<glyph name="uni01C8" format="2">
  <advance width="985"/>
  <unicode hex="01C8"/>
  <outline>
    <contour>
      <point x="190" y="184" type="line"/>
      <point x="596" y="184" type="line"/>
      <point x="596" y="0" type="line"/>
      <point x="80" y="0" type="line"/>
      <point x="80" y="700" type="line"/>
      <point x="296" y="700" type="line"/>
      <point x="296" y="78" type="line"/>
    </contour>
    <contour>
      <point x="899" y="535" type="line"/>
      <point x="899" y="23" type="line"/>
      <point x="899" y="-111"/>
      <point x="775" y="-219"/>
      <point x="650" y="-219" type="qcurve"/>
      <point x="573" y="-62" type="line"/>
      <point x="649" y="-62"/>
      <point x="696" y="-11"/>
      <point x="696" y="71" type="qcurve"/>
      <point x="696" y="535" type="line"/>
    </contour>
    <contour>
      <point x="910" y="692" type="qcurve"/>
      <point x="910" y="650"/>
      <point x="848" y="596"/>
      <point x="795" y="596" type="qcurve"/>
      <point x="741" y="596"/>
      <point x="680" y="646"/>
      <point x="680" y="692" type="qcurve"/>
      <point x="680" y="734"/>
      <point x="742" y="788"/>
      <point x="795" y="788" type="qcurve"/>
      <point x="849" y="788"/>
      <point x="910" y="738"/>
    </contour>
  </outline>
</glyph>
<glyph name="uni01CA" format="2">
  <advance width="1479"/>
  <unicode hex="01CA"/>
  <outline>
    <contour>
      <point x="519" y="570" type="qcurve"/>
      <point x="519" y="700" type="line"/>
      <point x="727" y="700" type="line"/>
      <point x="727" y="0" type="line"/>
      <point x="532" y="0" type="line"/>
      <point x="177" y="490" type="line"/>
      <point x="258" y="466" type="line"/>
      <point x="270" y="374"/>
      <point x="278" y="283"/>
      <point x="278" y="191" type="qcurve"/>
      <point x="278" y="0" type="line"/>
      <point x="70" y="0" type="line"/>
      <point x="70" y="700" type="line"/>
      <point x="263" y="700" type="line"/>
      <point x="585" y="255" type="line"/>
      <point x="539" y="269" type="line"/>
      <point x="527" y="369"/>
      <point x="518" y="470"/>
    </contour>
    <contour>
      <point x="1062" y="-10" type="qcurve"/>
      <point x="977" y="-10"/>
      <point x="861" y="55"/>
      <point x="828" y="115" type="qcurve"/>
      <point x="947" y="238" type="line"/>
      <point x="964" y="212"/>
      <point x="1006" y="179"/>
      <point x="1030" y="179" type="qcurve"/>
      <point x="1054" y="179"/>
      <point x="1083" y="212"/>
      <point x="1083" y="240" type="qcurve"/>
      <point x="1083" y="700" type="line"/>
      <point x="1291" y="700" type="line"/>
      <point x="1291" y="213" type="line"/>
      <point x="1291" y="106"/>
      <point x="1157" y="-10"/>
    </contour>
    <contour>
      <point x="1399" y="700" type="line"/>
      <point x="1399" y="516" type="line"/>
      <point x="954" y="516" type="line"/>
      <point x="954" y="700" type="line"/>
    </contour>
  </outline>
</glyph>
<glyph name="uni01CB" format="2">
  <advance width="1166"/>
  <unicode hex="01CB"/>
  <outline>
    <contour>
      <point x="519" y="570" type="qcurve"/>
      <point x="519" y="700" type="line"/>
      <point x="727" y="700" type="line"/>
      <point x="727" y="0" type="line"/>
      <point x="532" y="0" type="line"/>
      <point x="177" y="490" type="line"/>
      <point x="258" y="466" type="line"/>
      <point x="270" y="374"/>
      <point x="278" y="283"/>
      <point x="278" y="191" type="qcurve"/>
      <point x="278" y="0" type="line"/>
      <point x="70" y="0" type="line"/>
      <point x="70" y="700" type="line"/>
      <point x="263" y="700" type="line"/>
      <point x="585" y="255" type="line"/>
      <point x="539" y="269" type="line"/>
      <point x="527" y="369"/>
      <point x="518" y="470"/>
    </contour>
    <contour>
      <point x="1080" y="535" type="line"/>
      <point x="1080" y="23" type="line"/>
      <point x="1080" y="-111"/>
      <point x="956" y="-219"/>
      <point x="831" y="-219" type="qcurve"/>
      <point x="754" y="-62" type="line"/>
      <point x="830" y="-62"/>
      <point x="877" y="-11"/>
      <point x="877" y="71" type="qcurve"/>
      <point x="877" y="535" type="line"/>
    </contour>
    <contour>
      <point x="1091" y="692" type="qcurve"/>
      <point x="1091" y="650"/>
      <point x="1029" y="596"/>
      <point x="976" y="596" type="qcurve"/>
      <point x="922" y="596"/>
      <point x="861" y="646"/>
      <point x="861" y="692" type="qcurve"/>
      <point x="861" y="734"/>
      <point x="923" y="788"/>
      <point x="976" y="788" type="qcurve"/>
      <point x="1030" y="788"/>
      <point x="1091" y="738"/>
    </contour>
  </outline>
</glyph>
<glyph name="uni01CF" format="2">
  <advance width="602"/>
  <unicode hex="01CF"/>
  <outline>
    <contour>
      <point x="414" y="700" type="qcurve"/>
      <point x="414" y="0" type="line"/>
      <point x="198" y="0" type="line"/>
      <point x="198" y="700" type="line"/>
      <point x="225" y="700"/>
      <point x="387" y="700"/>
    </contour>
    <contour>
      <point x="537" y="700" type="line"/>
      <point x="537" y="525" type="line"/>
      <point x="75" y="525" type="line"/>
      <point x="75" y="700" type="line"/>
    </contour>
    <contour>
      <point x="537" y="175" type="line"/>
      <point x="537" y="0" type="line"/>
      <point x="75" y="0" type="line"/>
      <point x="75" y="175" type="line"/>
    </contour>
    <contour>
      <point x="446" y="974" type="line"/>
      <point x="286" y="878" type="line"/>
      <point x="316" y="878" type="line"/>
      <point x="156" y="974" type="line"/>
      <point x="84" y="912" type="line"/>
      <point x="250" y="770" type="line"/>
      <point x="352" y="770" type="line"/>
      <point x="518" y="912" type="line"/>
    </contour>
  </outline>
</glyph>
<glyph name="uni01D1" format="2">
  <advance width="834"/>
  <unicode hex="01D1"/>
  <outline>
    <contour>
      <point x="417" y="720" type="qcurve"/>
      <point x="582" y="720"/>
      <point x="794" y="514"/>
      <point x="794" y="355" type="qcurve"/>
      <point x="794" y="196"/>
      <point x="582" y="-10"/>
      <point x="417" y="-10" type="qcurve"/>
      <point x="252" y="-10"/>
      <point x="40" y="196"/>
      <point x="40" y="355" type="qcurve"/>
      <point x="40" y="514"/>
      <point x="252" y="720"/>
    </contour>
    <contour>
      <point x="417" y="190" type="qcurve"/>
      <point x="485" y="190"/>
      <point x="574" y="283"/>
      <point x="574" y="355" type="qcurve"/>
      <point x="574" y="427"/>
      <point x="485" y="520"/>
      <point x="417" y="520" type="qcurve"/>
      <point x="349" y="520"/>
      <point x="260" y="427"/>
      <point x="260" y="355" type="qcurve"/>
      <point x="260" y="283"/>
      <point x="349" y="190"/>
    </contour>
    <contour>
      <point x="562" y="974" type="line"/>
      <point x="402" y="878" type="line"/>
      <point x="432" y="878" type="line"/>
      <point x="272" y="974" type="line"/>
      <point x="200" y="912" type="line"/>
      <point x="366" y="770" type="line"/>
      <point x="468" y="770" type="line"/>
      <point x="634" y="912" type="line"/>
    </contour>
  </outline>
</glyph>
<glyph name="uni01D3" format="2">
  <advance width="784"/>
  <unicode hex="01D3"/>
  <outline>
    <contour>
      <point x="491" y="700" type="line"/>
      <point x="704" y="700" type="line"/>
      <point x="704" y="269" type="line"/>
      <point x="704" y="149"/>
      <point x="528" y="-6"/>
      <point x="392" y="-6" type="qcurve"/>
      <point x="256" y="-6"/>
      <point x="80" y="149"/>
      <point x="80" y="269" type="qcurve"/>
      <point x="80" y="700" type="line"/>
      <point x="298" y="700" type="line"/>
      <point x="298" y="278" type="line"/>
      <point x="298" y="234"/>
      <point x="351" y="178"/>
      <point x="392" y="178" type="qcurve"/>
      <point x="435" y="178"/>
      <point x="491" y="234"/>
      <point x="491" y="278" type="qcurve"/>
    </contour>
    <contour>
      <point x="537" y="974" type="line"/>
      <point x="377" y="878" type="line"/>
      <point x="407" y="878" type="line"/>
      <point x="247" y="974" type="line"/>
      <point x="175" y="912" type="line"/>
      <point x="341" y="770" type="line"/>
      <point x="443" y="770" type="line"/>
      <point x="609" y="912" type="line"/>
    </contour>
  </outline>
</glyph>
<glyph name="Gcaron" format="2">
  <advance width="793"/>
  <unicode hex="01E6"/>
  <outline>
    <contour>
      <point x="40" y="355" type="qcurve"/>
      <point x="40" y="514"/>
      <point x="254" y="720"/>
      <point x="430" y="720" type="qcurve"/>
      <point x="521" y="720"/>
      <point x="666" y="655"/>
      <point x="712" y="607" type="qcurve"/>
      <point x="584" y="471" type="line"/>
      <point x="554" y="499"/>
      <point x="480" y="536"/>
      <point x="427" y="536" type="qcurve"/>
      <point x="356" y="536"/>
      <point x="262" y="434"/>
      <point x="262" y="355" type="qcurve"/>
      <point x="262" y="276"/>
      <point x="360" y="174"/>
      <point x="436" y="174" type="qcurve"/>
      <point x="487" y="174"/>
      <point x="554" y="237"/>
      <point x="554" y="285" type="qcurve"/>
      <point x="554" y="314" type="line"/>
      <point x="582" y="266" type="line"/>
      <point x="404" y="266" type="line"/>
      <point x="404" y="418" type="line"/>
      <point x="748" y="418" type="line"/>
      <point x="750" y="401"/>
      <point x="753" y="313"/>
      <point x="753" y="299" type="qcurve"/>
      <point x="753" y="164"/>
      <point x="562" y="-10"/>
      <point x="414" y="-10" type="qcurve"/>
      <point x="234" y="-10"/>
      <point x="40" y="196"/>
    </contour>
    <contour>
      <point x="564" y="974" type="line"/>
      <point x="404" y="878" type="line"/>
      <point x="434" y="878" type="line"/>
      <point x="274" y="974" type="line"/>
      <point x="202" y="912" type="line"/>
      <point x="368" y="770" type="line"/>
      <point x="470" y="770" type="line"/>
      <point x="636" y="912" type="line"/>
    </contour>
  </outline>
</glyph>
<glyph name="uni01F2" format="2">
  <advance width="1346"/>
  <unicode hex="01F2"/>
  <outline>
    <contour>
      <point x="80" y="700" type="line"/>
      <point x="388" y="700" type="line"/>
      <point x="546" y="700"/>
      <point x="750" y="503"/>
      <point x="750" y="350" type="qcurve"/>
      <point x="750" y="197"/>
      <point x="546" y="0"/>
      <point x="388" y="0" type="qcurve"/>
      <point x="80" y="0" type="line"/>
    </contour>
    <contour>
      <point x="259" y="184" type="line"/>
      <point x="383" y="184" type="line"/>
      <point x="448" y="184"/>
      <point x="532" y="278"/>
      <point x="532" y="350" type="qcurve"/>
      <point x="532" y="422"/>
      <point x="448" y="516"/>
      <point x="383" y="516" type="qcurve"/>
      <point x="256" y="516" type="line"/>
      <point x="296" y="565" type="line"/>
      <point x="296" y="133" type="line"/>
    </contour>
    <contour>
      <point x="1009" y="160" type="line"/>
      <point x="1290" y="160" type="line"/>
      <point x="1290" y="0" type="line"/>
      <point x="797" y="0" type="line"/>
      <point x="797" y="96" type="line"/>
      <point x="1088" y="458" type="line"/>
      <point x="1088" y="375" type="line"/>
      <point x="797" y="375" type="line"/>
      <point x="797" y="535" type="line"/>
      <point x="1280" y="535" type="line"/>
      <point x="1280" y="431" type="line"/>
      <point x="1013" y="84" type="line"/>
    </contour>
  </outline>
</glyph>
<glyph name="Aringacute" format="2">
  <advance width="690"/>
  <unicode hex="01FA"/>
  <outline>
    <contour>
      <point x="327" y="496" type="qcurve"/>
      <point x="361" y="496" type="line"/>
      <point x="348" y="433"/>
      <point x="326" y="367"/>
      <point x="302" y="306" type="qcurve"/>
      <point x="190" y="0" type="line"/>
      <point x="-20" y="0" type="line"/>
      <point x="261" y="700" type="line"/>
      <point x="431" y="700" type="line"/>
      <point x="710" y="0" type="line"/>
      <point x="496" y="0" type="line"/>
      <point x="384" y="306" type="line"/>
      <point x="361" y="368"/>
      <point x="340" y="433"/>
    </contour>
    <contour>
      <point x="346" y="104" type="line"/>
      <point x="120" y="104" type="line"/>
      <point x="183" y="251" type="line"/>
      <point x="346" y="251" type="line"/>
    </contour>
    <contour>
      <point x="565" y="104" type="line"/>
      <point x="346" y="104" type="line"/>
      <point x="346" y="251" type="line"/>
      <point x="508" y="251" type="line"/>
    </contour>
    <contour>
      <point x="494" y="800" type="qcurve"/>
      <point x="494" y="746"/>
      <point x="406" y="665"/>
      <point x="346" y="665" type="qcurve"/>
      <point x="286" y="665"/>
      <point x="196" y="746"/>
      <point x="196" y="800" type="qcurve"/>
      <point x="196" y="860"/>
      <point x="284" y="946"/>
      <point x="346" y="946" type="qcurve"/>
      <point x="406" y="946"/>
      <point x="494" y="860"/>
    </contour>
    <contour>
      <point x="310" y="800" type="qcurve"/>
      <point x="310" y="785"/>
      <point x="332" y="764"/>
      <point x="346" y="764" type="qcurve"/>
      <point x="360" y="764"/>
      <point x="380" y="785"/>
      <point x="380" y="800" type="qcurve"/>
      <point x="380" y="816"/>
      <point x="360" y="837"/>
      <point x="346" y="837" type="qcurve"/>
      <point x="332" y="837"/>
      <point x="310" y="816"/>
    </contour>
    <contour>
      <point x="509" y="1087" type="line"/>
      <point x="281" y="965" type="line"/>
      <point x="221" y="1058" type="line"/>
      <point x="426" y="1212" type="line"/>
    </contour>
  </outline>
</glyph>
<glyph name="uni0200" format="2">
  <advance width="690"/>
  <unicode hex="0200"/>
  <outline>
    <contour>
      <point x="327" y="496" type="qcurve"/>
      <point x="361" y="496" type="line"/>
      <point x="348" y="433"/>
      <point x="326" y="367"/>
      <point x="302" y="306" type="qcurve"/>
      <point x="190" y="0" type="line"/>
      <point x="-20" y="0" type="line"/>
      <point x="261" y="700" type="line"/>
      <point x="431" y="700" type="line"/>
      <point x="710" y="0" type="line"/>
      <point x="496" y="0" type="line"/>
      <point x="384" y="306" type="line"/>
      <point x="361" y="368"/>
      <point x="340" y="433"/>
    </contour>
    <contour>
      <point x="346" y="104" type="line"/>
      <point x="120" y="104" type="line"/>
      <point x="183" y="251" type="line"/>
      <point x="346" y="251" type="line"/>
    </contour>
    <contour>
      <point x="565" y="104" type="line"/>
      <point x="346" y="104" type="line"/>
      <point x="346" y="251" type="line"/>
      <point x="508" y="251" type="line"/>
    </contour>
    <contour>
      <point x="266" y="879" type="line"/>
      <point x="208" y="790" type="line"/>
      <point x="-20" y="912" type="line"/>
      <point x="60" y="1033" type="line"/>
    </contour>
    <contour>
      <point x="536" y="879" type="line"/>
      <point x="478" y="790" type="line"/>
      <point x="250" y="912" type="line"/>
      <point x="330" y="1033" type="line"/>
    </contour>
  </outline>
</glyph>
<glyph name="uni0201" format="2">
  <advance width="679"/>
  <unicode hex="0201"/>
  <outline>
    <contour>
      <point x="410" y="535" type="line"/>
      <point x="609" y="535" type="line"/>
      <point x="609" y="0" type="line"/>
      <point x="405" y="0" type="line"/>
      <point x="405" y="131" type="line"/>
      <point x="450" y="127" type="line"/>
      <point x="429" y="69"/>
      <point x="333" y="-9"/>
      <point x="261" y="-9" type="qcurve"/>
      <point x="161" y="-9"/>
      <point x="30" y="147"/>
      <point x="30" y="268" type="qcurve"/>
      <point x="30" y="391"/>
      <point x="159" y="546"/>
      <point x="263" y="546" type="qcurve"/>
      <point x="336" y="546"/>
      <point x="428" y="470"/>
      <point x="451" y="416" type="qcurve"/>
      <point x="410" y="417" type="line"/>
    </contour>
    <contour>
      <point x="229" y="268" type="qcurve"/>
      <point x="229" y="214"/>
      <point x="276" y="156"/>
      <point x="319" y="156" type="qcurve"/>
      <point x="363" y="156"/>
      <point x="410" y="214"/>
      <point x="410" y="268" type="qcurve"/>
      <point x="410" y="322"/>
      <point x="363" y="381"/>
      <point x="319" y="381" type="qcurve"/>
      <point x="276" y="381"/>
      <point x="229" y="322"/>
    </contour>
    <contour>
      <point x="268" y="701" type="line"/>
      <point x="210" y="612" type="line"/>
      <point x="-18" y="734" type="line"/>
      <point x="62" y="855" type="line"/>
    </contour>
    <contour>
      <point x="538" y="701" type="line"/>
      <point x="480" y="612" type="line"/>
      <point x="252" y="734" type="line"/>
      <point x="332" y="855" type="line"/>
    </contour>
  </outline>
</glyph>
<glyph name="uni0203" format="2">
  <advance width="679"/>
  <unicode hex="0203"/>
  <outline>
    <contour>
      <point x="410" y="535" type="line"/>
      <point x="609" y="535" type="line"/>
      <point x="609" y="0" type="line"/>
      <point x="405" y="0" type="line"/>
      <point x="405" y="131" type="line"/>
      <point x="450" y="127" type="line"/>
      <point x="429" y="69"/>
      <point x="333" y="-9"/>
      <point x="261" y="-9" type="qcurve"/>
      <point x="161" y="-9"/>
      <point x="30" y="147"/>
      <point x="30" y="268" type="qcurve"/>
      <point x="30" y="391"/>
      <point x="159" y="546"/>
      <point x="263" y="546" type="qcurve"/>
      <point x="336" y="546"/>
      <point x="428" y="470"/>
      <point x="451" y="416" type="qcurve"/>
      <point x="410" y="417" type="line"/>
    </contour>
    <contour>
      <point x="229" y="268" type="qcurve"/>
      <point x="229" y="214"/>
      <point x="276" y="156"/>
      <point x="319" y="156" type="qcurve"/>
      <point x="363" y="156"/>
      <point x="410" y="214"/>
      <point x="410" y="268" type="qcurve"/>
      <point x="410" y="322"/>
      <point x="363" y="381"/>
      <point x="319" y="381" type="qcurve"/>
      <point x="276" y="381"/>
      <point x="229" y="322"/>
    </contour>
    <contour>
      <point x="320" y="791" type="qcurve"/>
      <point x="392" y="791"/>
      <point x="496" y="704"/>
      <point x="512" y="627" type="qcurve"/>
      <point x="388" y="615" type="line"/>
      <point x="378" y="641"/>
      <point x="340" y="670"/>
      <point x="320" y="670" type="qcurve"/>
      <point x="298" y="670"/>
      <point x="260" y="641"/>
      <point x="252" y="615" type="qcurve"/>
      <point x="128" y="627" type="line"/>
      <point x="142" y="704"/>
      <point x="246" y="791"/>
    </contour>
  </outline>
</glyph>
<glyph name="uni0204" format="2">
  <advance width="668"/>
  <unicode hex="0204"/>
  <outline>
    <contour>
      <point x="287" y="0" type="line"/>
      <point x="80" y="0" type="line"/>
      <point x="80" y="700" type="line"/>
      <point x="287" y="700" type="line"/>
    </contour>
    <contour>
      <point x="621" y="0" type="line"/>
      <point x="183" y="0" type="line"/>
      <point x="183" y="175" type="line"/>
      <point x="621" y="175" type="line"/>
    </contour>
    <contour>
      <point x="566" y="272" type="line"/>
      <point x="183" y="272" type="line"/>
      <point x="183" y="436" type="line"/>
      <point x="566" y="436" type="line"/>
    </contour>
    <contour>
      <point x="603" y="525" type="line"/>
      <point x="183" y="525" type="line"/>
      <point x="183" y="700" type="line"/>
      <point x="603" y="700" type="line"/>
    </contour>
    <contour>
      <point x="281" y="879" type="line"/>
      <point x="223" y="790" type="line"/>
      <point x="-5" y="912" type="line"/>
      <point x="75" y="1033" type="line"/>
    </contour>
    <contour>
      <point x="551" y="879" type="line"/>
      <point x="493" y="790" type="line"/>
      <point x="265" y="912" type="line"/>
      <point x="345" y="1033" type="line"/>
    </contour>
  </outline>
</glyph>
<glyph name="uni0208" format="2">
  <advance width="602"/>
  <unicode hex="0208"/>
  <outline>
    <contour>
      <point x="414" y="700" type="qcurve"/>
      <point x="414" y="0" type="line"/>
      <point x="198" y="0" type="line"/>
      <point x="198" y="700" type="line"/>
      <point x="225" y="700"/>
      <point x="387" y="700"/>
    </contour>
    <contour>
      <point x="537" y="700" type="line"/>
      <point x="537" y="525" type="line"/>
      <point x="75" y="525" type="line"/>
      <point x="75" y="700" type="line"/>
    </contour>
    <contour>
      <point x="537" y="175" type="line"/>
      <point x="537" y="0" type="line"/>
      <point x="75" y="0" type="line"/>
      <point x="75" y="175" type="line"/>
    </contour>
    <contour>
      <point x="223" y="879" type="line"/>
      <point x="165" y="790" type="line"/>
      <point x="-63" y="912" type="line"/>
      <point x="17" y="1033" type="line"/>
    </contour>
    <contour>
      <point x="493" y="879" type="line"/>
      <point x="435" y="790" type="line"/>
      <point x="207" y="912" type="line"/>
      <point x="287" y="1033" type="line"/>
    </contour>
  </outline>
</glyph>
<glyph name="uni0209" format="2">
  <advance width="323"/>
  <unicode hex="0209"/>
  <outline>
    <contour>
      <point x="263" y="535" type="line"/>
      <point x="263" y="0" type="line"/>
      <point x="60" y="0" type="line"/>
      <point x="60" y="535" type="line"/>
    </contour>
    <contour>
      <point x="74" y="723" type="line"/>
      <point x="16" y="634" type="line"/>
      <point x="-212" y="756" type="line"/>
      <point x="-132" y="877" type="line"/>
    </contour>
    <contour>
      <point x="344" y="723" type="line"/>
      <point x="286" y="634" type="line"/>
      <point x="58" y="756" type="line"/>
      <point x="138" y="877" type="line"/>
    </contour>
  </outline>
</glyph>
<glyph name="uni020F" format="2">
  <advance width="660"/>
  <unicode hex="020F"/>
  <outline>
    <contour>
      <point x="331" y="546" type="qcurve"/>
      <point x="461" y="546"/>
      <point x="630" y="389"/>
      <point x="630" y="268" type="qcurve"/>
      <point x="630" y="147"/>
      <point x="461" y="-10"/>
      <point x="331" y="-10" type="qcurve"/>
      <point x="200" y="-10"/>
      <point x="30" y="147"/>
      <point x="30" y="268" type="qcurve"/>
      <point x="30" y="389"/>
      <point x="200" y="546"/>
    </contour>
    <contour>
      <point x="331" y="160" type="qcurve"/>
      <point x="372" y="160"/>
      <point x="425" y="221"/>
      <point x="425" y="268" type="qcurve"/>
      <point x="425" y="316"/>
      <point x="372" y="377"/>
      <point x="331" y="377" type="qcurve"/>
      <point x="289" y="377"/>
      <point x="235" y="316"/>
      <point x="235" y="268" type="qcurve"/>
      <point x="235" y="221"/>
      <point x="289" y="160"/>
    </contour>
    <contour>
      <point x="330" y="791" type="qcurve"/>
      <point x="403" y="791"/>
      <point x="507" y="704"/>
      <point x="522" y="627" type="qcurve"/>
      <point x="398" y="615" type="line"/>
      <point x="389" y="641"/>
      <point x="351" y="670"/>
      <point x="330" y="670" type="qcurve"/>
      <point x="309" y="670"/>
      <point x="271" y="641"/>
      <point x="262" y="615" type="qcurve"/>
      <point x="138" y="627" type="line"/>
      <point x="153" y="704"/>
      <point x="257" y="791"/>
    </contour>
  </outline>
</glyph>
<glyph name="uni0212" format="2">
  <advance width="697"/>
  <unicode hex="0212"/>
  <outline>
    <contour>
      <point x="649" y="477" type="qcurve"/>
      <point x="649" y="368"/>
      <point x="508" y="233"/>
      <point x="398" y="233" type="qcurve"/>
      <point x="195" y="233" type="line"/>
      <point x="195" y="383" type="line"/>
      <point x="364" y="383" type="line"/>
      <point x="401" y="383"/>
      <point x="439" y="424"/>
      <point x="439" y="460" type="qcurve"/>
      <point x="439" y="493"/>
      <point x="400" y="530"/>
      <point x="360" y="530" type="qcurve"/>
      <point x="198" y="530" type="line"/>
      <point x="272" y="630" type="line"/>
      <point x="272" y="0" type="line"/>
      <point x="70" y="0" type="line"/>
      <point x="70" y="700" type="line"/>
      <point x="398" y="700" type="line"/>
      <point x="508" y="700"/>
      <point x="649" y="574"/>
    </contour>
    <contour>
      <point x="259" y="316" type="line"/>
      <point x="480" y="341" type="line"/>
      <point x="678" y="0" type="line"/>
      <point x="437" y="0" type="line"/>
    </contour>
    <contour>
      <point x="334" y="946" type="qcurve"/>
      <point x="407" y="946"/>
      <point x="511" y="859"/>
      <point x="526" y="782" type="qcurve"/>
      <point x="402" y="770" type="line"/>
      <point x="393" y="796"/>
      <point x="355" y="825"/>
      <point x="334" y="825" type="qcurve"/>
      <point x="313" y="825"/>
      <point x="275" y="796"/>
      <point x="266" y="770" type="qcurve"/>
      <point x="142" y="782" type="line"/>
      <point x="157" y="859"/>
      <point x="261" y="946"/>
    </contour>
  </outline>
</glyph>
<glyph name="uni0214" format="2">
  <advance width="784"/>
  <unicode hex="0214"/>
  <outline>
    <contour>
      <point x="491" y="700" type="line"/>
      <point x="704" y="700" type="line"/>
      <point x="704" y="269" type="line"/>
      <point x="704" y="149"/>
      <point x="528" y="-6"/>
      <point x="392" y="-6" type="qcurve"/>
      <point x="256" y="-6"/>
      <point x="80" y="149"/>
      <point x="80" y="269" type="qcurve"/>
      <point x="80" y="700" type="line"/>
      <point x="298" y="700" type="line"/>
      <point x="298" y="278" type="line"/>
      <point x="298" y="234"/>
      <point x="351" y="178"/>
      <point x="392" y="178" type="qcurve"/>
      <point x="435" y="178"/>
      <point x="491" y="234"/>
      <point x="491" y="278" type="qcurve"/>
    </contour>
    <contour>
      <point x="318" y="879" type="line"/>
      <point x="260" y="790" type="line"/>
      <point x="32" y="912" type="line"/>
      <point x="112" y="1033" type="line"/>
    </contour>
    <contour>
      <point x="588" y="879" type="line"/>
      <point x="530" y="790" type="line"/>
      <point x="302" y="912" type="line"/>
      <point x="382" y="1033" type="line"/>
    </contour>
  </outline>
</glyph>
<glyph name="uni0215" format="2">
  <advance width="669"/>
  <unicode hex="0215"/>
  <outline>
    <contour>
      <point x="326" y="154" type="qcurve"/>
      <point x="356" y="154"/>
      <point x="394" y="190"/>
      <point x="394" y="217" type="qcurve"/>
      <point x="394" y="535" type="line"/>
      <point x="597" y="535" type="line"/>
      <point x="597" y="0" type="line"/>
      <point x="411" y="0" type="line"/>
      <point x="399" y="108" type="line"/>
      <point x="437" y="120" type="line"/>
      <point x="421" y="63"/>
      <point x="315" y="-11"/>
      <point x="249" y="-11" type="qcurve"/>
      <point x="158" y="-11"/>
      <point x="60" y="101"/>
      <point x="60" y="205" type="qcurve"/>
      <point x="60" y="535" type="line"/>
      <point x="263" y="535" type="line"/>
      <point x="263" y="222" type="line"/>
      <point x="263" y="189"/>
      <point x="296" y="154"/>
    </contour>
    <contour>
      <point x="279" y="701" type="line"/>
      <point x="221" y="612" type="line"/>
      <point x="-7" y="734" type="line"/>
      <point x="73" y="855" type="line"/>
    </contour>
    <contour>
      <point x="549" y="701" type="line"/>
      <point x="491" y="612" type="line"/>
      <point x="263" y="734" type="line"/>
      <point x="343" y="855" type="line"/>
    </contour>
  </outline>
</glyph>
<glyph name="uni0217" format="2">
  <advance width="669"/>
  <unicode hex="0217"/>
  <outline>
    <contour>
      <point x="326" y="154" type="qcurve"/>
      <point x="356" y="154"/>
      <point x="394" y="190"/>
      <point x="394" y="217" type="qcurve"/>
      <point x="394" y="535" type="line"/>
      <point x="597" y="535" type="line"/>
      <point x="597" y="0" type="line"/>
      <point x="411" y="0" type="line"/>
      <point x="399" y="108" type="line"/>
      <point x="437" y="120" type="line"/>
      <point x="421" y="63"/>
      <point x="315" y="-11"/>
      <point x="249" y="-11" type="qcurve"/>
      <point x="158" y="-11"/>
      <point x="60" y="101"/>
      <point x="60" y="205" type="qcurve"/>
      <point x="60" y="535" type="line"/>
      <point x="263" y="535" type="line"/>
      <point x="263" y="222" type="line"/>
      <point x="263" y="189"/>
      <point x="296" y="154"/>
    </contour>
    <contour>
      <point x="328" y="791" type="qcurve"/>
      <point x="402" y="791"/>
      <point x="506" y="704"/>
      <point x="520" y="627" type="qcurve"/>
      <point x="396" y="615" type="line"/>
      <point x="388" y="641"/>
      <point x="350" y="670"/>
      <point x="328" y="670" type="qcurve"/>
      <point x="308" y="670"/>
      <point x="270" y="641"/>
      <point x="260" y="615" type="qcurve"/>
      <point x="136" y="627" type="line"/>
      <point x="152" y="704"/>
      <point x="256" y="791"/>
    </contour>
  </outline>
</glyph>
<glyph name="uni022A" format="2">
  <advance width="834"/>
  <unicode hex="022A"/>
  <outline>
    <contour>
      <point x="417" y="720" type="qcurve"/>
      <point x="582" y="720"/>
      <point x="794" y="514"/>
      <point x="794" y="355" type="qcurve"/>
      <point x="794" y="196"/>
      <point x="582" y="-10"/>
      <point x="417" y="-10" type="qcurve"/>
      <point x="252" y="-10"/>
      <point x="40" y="196"/>
      <point x="40" y="355" type="qcurve"/>
      <point x="40" y="514"/>
      <point x="252" y="720"/>
    </contour>
    <contour>
      <point x="417" y="190" type="qcurve"/>
      <point x="485" y="190"/>
      <point x="574" y="283"/>
      <point x="574" y="355" type="qcurve"/>
      <point x="574" y="427"/>
      <point x="485" y="520"/>
      <point x="417" y="520" type="qcurve"/>
      <point x="349" y="520"/>
      <point x="260" y="427"/>
      <point x="260" y="355" type="qcurve"/>
      <point x="260" y="283"/>
      <point x="349" y="190"/>
    </contour>
    <contour>
      <point x="391" y="856" type="qcurve"/>
      <point x="391" y="812"/>
      <point x="337" y="756"/>
      <point x="291" y="756" type="qcurve"/>
      <point x="243" y="756"/>
      <point x="191" y="808"/>
      <point x="191" y="856" type="qcurve"/>
      <point x="191" y="900"/>
      <point x="245" y="956"/>
      <point x="291" y="956" type="qcurve"/>
      <point x="339" y="956"/>
      <point x="391" y="905"/>
    </contour>
    <contour>
      <point x="662" y="856" type="qcurve"/>
      <point x="662" y="812"/>
      <point x="608" y="756"/>
      <point x="562" y="756" type="qcurve"/>
      <point x="514" y="756"/>
      <point x="462" y="808"/>
      <point x="462" y="856" type="qcurve"/>
      <point x="462" y="900"/>
      <point x="516" y="956"/>
      <point x="562" y="956" type="qcurve"/>
      <point x="610" y="956"/>
      <point x="662" y="905"/>
    </contour>
    <contour>
      <point x="594" y="1036" type="line"/>
      <point x="260" y="1036" type="line"/>
      <point x="260" y="1156" type="line"/>
      <point x="594" y="1156" type="line"/>
    </contour>
  </outline>
</glyph>
<glyph name="uni0230" format="2">
  <advance width="834"/>
  <unicode hex="0230"/>
  <outline>
    <contour>
      <point x="417" y="720" type="qcurve"/>
      <point x="582" y="720"/>
      <point x="794" y="514"/>
      <point x="794" y="355" type="qcurve"/>
      <point x="794" y="196"/>
      <point x="582" y="-10"/>
      <point x="417" y="-10" type="qcurve"/>
      <point x="252" y="-10"/>
      <point x="40" y="196"/>
      <point x="40" y="355" type="qcurve"/>
      <point x="40" y="514"/>
      <point x="252" y="720"/>
    </contour>
    <contour>
      <point x="417" y="190" type="qcurve"/>
      <point x="485" y="190"/>
      <point x="574" y="283"/>
      <point x="574" y="355" type="qcurve"/>
      <point x="574" y="427"/>
      <point x="485" y="520"/>
      <point x="417" y="520" type="qcurve"/>
      <point x="349" y="520"/>
      <point x="260" y="427"/>
      <point x="260" y="355" type="qcurve"/>
      <point x="260" y="283"/>
      <point x="349" y="190"/>
    </contour>
    <contour>
      <point x="534" y="866" type="qcurve"/>
      <point x="534" y="824"/>
      <point x="472" y="770"/>
      <point x="419" y="770" type="qcurve"/>
      <point x="365" y="770"/>
      <point x="304" y="820"/>
      <point x="304" y="866" type="qcurve"/>
      <point x="304" y="908"/>
      <point x="366" y="962"/>
      <point x="419" y="962" type="qcurve"/>
      <point x="473" y="962"/>
      <point x="534" y="912"/>
    </contour>
    <contour>
      <point x="586" y="1025" type="line"/>
      <point x="252" y="1025" type="line"/>
      <point x="252" y="1145" type="line"/>
      <point x="586" y="1145" type="line"/>
    </contour>
  </outline>
</glyph>
<glyph name="uni0237" format="2">
  <advance width="263"/>
  <unicode hex="0237"/>
  <outline>
    <contour>
      <point x="242" y="535" type="line"/>
      <point x="242" y="23" type="line"/>
      <point x="242" y="-111"/>
      <point x="118" y="-219"/>
      <point x="-7" y="-219" type="qcurve"/>
      <point x="-84" y="-62" type="line"/>
      <point x="-8" y="-62"/>
      <point x="39" y="-11"/>
      <point x="39" y="71" type="qcurve"/>
      <point x="39" y="535" type="line"/>
    </contour>
  </outline>
</glyph>
<glyph name="uni0259" format="2">
  <advance width="586"/>
  <unicode hex="0259"/>
  <outline>
    <contour>
      <point x="137" y="329" type="qcurve"/>
      <point x="44" y="460" type="line"/>
      <point x="100" y="503"/>
      <point x="203" y="535"/>
      <point x="257" y="535" type="qcurve"/>
      <point x="397" y="535"/>
      <point x="556" y="378"/>
      <point x="556" y="257" type="qcurve"/>
      <point x="556" y="136"/>
      <point x="403" y="-21"/>
      <point x="285" y="-21" type="qcurve"/>
      <point x="167" y="-21"/>
      <point x="24" y="136"/>
      <point x="24" y="257" type="qcurve"/>
      <point x="25" y="299" type="line"/>
      <point x="444" y="299" type="line"/>
      <point x="467" y="204" type="line"/>
      <point x="186" y="204" type="line"/>
      <point x="205" y="224" type="line"/>
      <point x="205" y="206" type="line"/>
      <point x="205" y="177"/>
      <point x="246" y="142"/>
      <point x="281" y="142" type="qcurve"/>
      <point x="325" y="142"/>
      <point x="371" y="195"/>
      <point x="371" y="241" type="qcurve"/>
      <point x="371" y="295"/>
      <point x="302" y="361"/>
      <point x="234" y="361" type="qcurve"/>
      <point x="204" y="361"/>
      <point x="161" y="346"/>
    </contour>
  </outline>
</glyph>
<glyph name="uni02BC" format="2">
  <advance width="205"/>
  <unicode hex="02BC"/>
  <outline>
    <contour>
      <point x="50" y="432" type="line"/>
      <point x="68" y="700" type="line"/>
      <point x="266" y="700" type="line"/>
      <point x="180" y="432" type="line"/>
    </contour>
  </outline>
</glyph>
<glyph name="uni02BE" format="2">
  <advance width="219"/>
  <unicode hex="02BE"/>
  <outline>
    <contour>
      <point x="45" y="513" type="qcurve"/>
      <point x="45" y="609" type="line"/>
      <point x="57" y="609"/>
      <point x="73" y="625"/>
      <point x="73" y="637" type="qcurve"/>
      <point x="73" y="650"/>
      <point x="57" y="667"/>
      <point x="45" y="667" type="qcurve"/>
      <point x="45" y="763" type="line"/>
      <point x="98" y="763"/>
      <point x="174" y="689"/>
      <point x="174" y="637" type="qcurve"/>
      <point x="174" y="586"/>
      <point x="97" y="513"/>
    </contour>
  </outline>
</glyph>
<glyph name="uni02BF" format="2">
  <advance width="219"/>
  <unicode hex="02BF"/>
  <outline>
    <contour>
      <point x="174" y="609" type="qcurve"/>
      <point x="174" y="513" type="line"/>
      <point x="122" y="513"/>
      <point x="45" y="586"/>
      <point x="45" y="637" type="qcurve"/>
      <point x="45" y="689"/>
      <point x="121" y="763"/>
      <point x="174" y="763" type="qcurve"/>
      <point x="174" y="667" type="line"/>
      <point x="162" y="667"/>
      <point x="146" y="650"/>
      <point x="146" y="637" type="qcurve"/>
      <point x="146" y="625"/>
      <point x="162" y="609"/>
    </contour>
  </outline>
</glyph>
<glyph name="caron" format="2">
  <advance width="396"/>
  <unicode hex="02C7"/>
  <outline>
    <contour>
      <point x="213" y="685" type="line"/>
      <point x="183" y="685" type="line"/>
      <point x="343" y="781" type="line"/>
      <point x="415" y="719" type="line"/>
      <point x="249" y="577" type="line"/>
      <point x="147" y="577" type="line"/>
      <point x="-19" y="719" type="line"/>
      <point x="53" y="781" type="line"/>
    </contour>
  </outline>
</glyph>
<glyph name="acutecomb" format="2">
  <advance width="336"/>
  <unicode hex="0301"/>
  <outline>
    <contour>
      <point x="296" y="676" type="line"/>
      <point x="68" y="554" type="line"/>
      <point x="10" y="643" type="line"/>
      <point x="216" y="797" type="line"/>
    </contour>
  </outline>
</glyph>
<glyph name="uni0302" format="2">
  <advance width="416"/>
  <unicode hex="0302"/>
  <outline>
    <contour>
      <point x="353" y="559" type="line"/>
      <point x="193" y="655" type="line"/>
      <point x="223" y="655" type="line"/>
      <point x="63" y="559" type="line"/>
      <point x="-9" y="621" type="line"/>
      <point x="157" y="763" type="line"/>
      <point x="259" y="763" type="line"/>
      <point x="425" y="621" type="line"/>
    </contour>
  </outline>
</glyph>
<glyph name="uni0304" format="2">
  <advance width="424"/>
  <unicode hex="0304"/>
  <outline>
    <contour>
      <point x="379" y="570" type="line"/>
      <point x="45" y="570" type="line"/>
      <point x="45" y="690" type="line"/>
      <point x="379" y="690" type="line"/>
    </contour>
  </outline>
</glyph>
<glyph name="hookabovecomb" format="2">
  <unicode hex="0309"/>
  <outline>
    <contour>
      <point x="77" y="668" type="qcurve"/>
      <point x="21" y="744" type="line"/>
      <point x="35" y="768"/>
      <point x="101" y="805"/>
      <point x="141" y="805" type="qcurve"/>
      <point x="195" y="805"/>
      <point x="265" y="753"/>
      <point x="265" y="712" type="qcurve"/>
      <point x="265" y="679"/>
      <point x="235" y="631"/>
      <point x="224" y="607" type="qcurve"/>
      <point x="218" y="593"/>
      <point x="217" y="569"/>
      <point x="217" y="556" type="qcurve"/>
      <point x="102" y="556" type="line"/>
      <point x="102" y="571"/>
      <point x="102" y="598"/>
      <point x="107" y="611" type="qcurve"/>
      <point x="115" y="631"/>
      <point x="139" y="663"/>
      <point x="139" y="678" type="qcurve"/>
      <point x="139" y="686"/>
      <point x="129" y="696"/>
      <point x="119" y="696" type="qcurve"/>
      <point x="107" y="696"/>
      <point x="87" y="683"/>
    </contour>
  </outline>
</glyph>
<glyph name="uni0311" format="2">
  <unicode hex="0311"/>
  <outline>
    <contour>
      <point x="202" y="779" type="qcurve"/>
      <point x="275" y="779"/>
      <point x="379" y="692"/>
      <point x="394" y="615" type="qcurve"/>
      <point x="270" y="603" type="line"/>
      <point x="261" y="629"/>
      <point x="223" y="658"/>
      <point x="202" y="658" type="qcurve"/>
      <point x="181" y="658"/>
      <point x="143" y="629"/>
      <point x="134" y="603" type="qcurve"/>
      <point x="10" y="615" type="line"/>
      <point x="25" y="692"/>
      <point x="129" y="779"/>
    </contour>
  </outline>
</glyph>
<glyph name="uni0324" format="2">
  <unicode hex="0324"/>
  <outline>
    <contour>
      <point x="329" y="-224" type="qcurve"/>
      <point x="280" y="-224"/>
      <point x="234" y="-184"/>
      <point x="234" y="-140" type="qcurve"/>
      <point x="234" y="-113" type="line"/>
      <point x="234" y="-70"/>
      <point x="281" y="-28"/>
      <point x="332" y="-28" type="qcurve"/>
      <point x="382" y="-28"/>
      <point x="430" y="-68"/>
      <point x="430" y="-113" type="qcurve"/>
      <point x="430" y="-140" type="line"/>
      <point x="430" y="-186"/>
      <point x="384" y="-224"/>
    </contour>
    <contour>
      <point x="60" y="-224" type="qcurve"/>
      <point x="11" y="-224"/>
      <point x="-35" y="-184"/>
      <point x="-35" y="-140" type="qcurve"/>
      <point x="-35" y="-113" type="line"/>
      <point x="-35" y="-70"/>
      <point x="13" y="-28"/>
      <point x="60" y="-28" type="qcurve"/>
      <point x="114" y="-28"/>
      <point x="161" y="-67"/>
      <point x="161" y="-113" type="qcurve"/>
      <point x="161" y="-140" type="line"/>
      <point x="161" y="-186"/>
      <point x="115" y="-224"/>
    </contour>
  </outline>
</glyph>
<glyph name="uni0650" format="2">
  <advance width="500"/>
  <unicode hex="0650"/>
  <outline>
    <contour>
      <point x="20" y="-154" type="line"/>
      <point x="273" y="-88" type="line"/>
      <point x="287" y="-142" type="line"/>
      <point x="34" y="-208" type="line"/>
    </contour>
  </outline>
</glyph>
<glyph name="uni0651" format="2">
  <advance width="500"/>
  <unicode hex="0651"/>
  <outline>
    <contour>
      <point x="282" y="736" type="qcurve"/>
      <point x="282" y="793" type="line"/>
      <point x="332" y="793" type="line"/>
      <point x="332" y="736" type="line"/>
      <point x="332" y="691"/>
      <point x="281" y="635"/>
      <point x="241" y="635" type="qcurve"/>
      <point x="200" y="635"/>
      <point x="151" y="687"/>
      <point x="151" y="731" type="qcurve"/>
      <point x="151" y="768" type="line"/>
      <point x="201" y="768" type="line"/>
      <point x="201" y="731" type="line"/>
      <point x="201" y="708"/>
      <point x="221" y="685"/>
      <point x="241" y="685" type="qcurve"/>
      <point x="260" y="685"/>
      <point x="282" y="712"/>
    </contour>
    <contour>
      <point x="20" y="793" type="line"/>
      <point x="70" y="793" type="line"/>
      <point x="70" y="736" type="line"/>
      <point x="70" y="712"/>
      <point x="92" y="685"/>
      <point x="111" y="685" type="qcurve"/>
      <point x="131" y="685"/>
      <point x="151" y="708"/>
      <point x="151" y="731" type="qcurve"/>
      <point x="151" y="768" type="line"/>
      <point x="201" y="768" type="line"/>
      <point x="201" y="731" type="line"/>
      <point x="201" y="687"/>
      <point x="152" y="635"/>
      <point x="111" y="635" type="qcurve"/>
      <point x="71" y="635"/>
      <point x="20" y="691"/>
      <point x="20" y="736" type="qcurve"/>
    </contour>
  </outline>
</glyph>
<glyph name="uni06BA" format="2">
  <advance width="700"/>
  <unicode hex="06BA"/>
  <outline>
    <contour>
      <point x="131" y="38" type="qcurve"/>
      <point x="131" y="-42"/>
      <point x="237" y="-128"/>
      <point x="334" y="-128" type="qcurve"/>
      <point x="419" y="-128"/>
      <point x="535" y="-43"/>
      <point x="535" y="23" type="qcurve"/>
      <point x="535" y="66"/>
      <point x="502" y="176"/>
      <point x="468" y="246" type="qcurve"/>
      <point x="548" y="342" type="line"/>
      <point x="589" y="266"/>
      <point x="630" y="119"/>
      <point x="630" y="50" type="qcurve"/>
      <point x="630" y="-78"/>
      <point x="462" y="-230"/>
      <point x="321" y="-230" type="qcurve"/>
      <point x="183" y="-230"/>
      <point x="30" y="-94"/>
      <point x="30" y="23" type="qcurve"/>
      <point x="30" y="66"/>
      <point x="61" y="187"/>
      <point x="89" y="250" type="qcurve"/>
      <point x="33" y="228" type="line"/>
      <point x="210" y="169" type="line"/>
      <point x="177" y="223" type="line"/>
      <point x="155" y="171"/>
      <point x="131" y="75"/>
    </contour>
  </outline>
</glyph>
<glyph name="uni1E09" format="2">
  <advance width="553"/>
  <unicode hex="1E09"/>
  <outline>
    <contour>
      <point x="329" y="373" type="qcurve"/>
      <point x="284" y="373"/>
      <point x="230" y="315"/>
      <point x="230" y="269" type="qcurve"/>
      <point x="230" y="224"/>
      <point x="282" y="164"/>
      <point x="329" y="164" type="qcurve"/>
      <point x="366" y="164"/>
      <point x="416" y="187"/>
      <point x="433" y="206" type="qcurve"/>
      <point x="542" y="75" type="line"/>
      <point x="505" y="34"/>
      <point x="383" y="-10"/>
      <point x="311" y="-10" type="qcurve"/>
      <point x="189" y="-10"/>
      <point x="30" y="147"/>
      <point x="30" y="268" type="qcurve"/>
      <point x="30" y="389"/>
      <point x="189" y="546"/>
      <point x="311" y="546" type="qcurve"/>
      <point x="383" y="546"/>
      <point x="505" y="502"/>
      <point x="543" y="460" type="qcurve"/>
      <point x="433" y="330" type="line"/>
      <point x="416" y="348"/>
      <point x="366" y="373"/>
    </contour>
    <contour>
      <point x="303" y="-87" type="line"/>
      <point x="220" y="-80" type="line"/>
      <point x="287" y="24" type="line"/>
      <point x="386" y="24" type="line"/>
    </contour>
    <contour>
      <point x="443" y="-139" type="qcurve"/>
      <point x="443" y="-163"/>
      <point x="407" y="-213"/>
      <point x="375" y="-228" type="qcurve"/>
      <point x="344" y="-241"/>
      <point x="266" y="-248"/>
      <point x="223" y="-247" type="qcurve"/>
      <point x="212" y="-156" type="line"/>
      <point x="239" y="-156"/>
      <point x="298" y="-142"/>
      <point x="298" y="-125" type="qcurve"/>
      <point x="298" y="-110"/>
      <point x="266" y="-96"/>
      <point x="241" y="-96" type="qcurve"/>
      <point x="220" y="-82" type="line"/>
      <point x="220" y="-80" type="line"/>
      <point x="323" y="-39" type="line"/>
      <point x="385" y="-39"/>
      <point x="443" y="-98"/>
    </contour>
    <contour>
      <point x="467" y="737" type="line"/>
      <point x="239" y="615" type="line"/>
      <point x="181" y="704" type="line"/>
      <point x="387" y="858" type="line"/>
    </contour>
  </outline>
</glyph>
<glyph name="uni1E0C" format="2">
  <advance width="790"/>
  <unicode hex="1E0C"/>
  <outline>
    <contour>
      <point x="80" y="700" type="line"/>
      <point x="388" y="700" type="line"/>
      <point x="546" y="700"/>
      <point x="750" y="503"/>
      <point x="750" y="350" type="qcurve"/>
      <point x="750" y="197"/>
      <point x="546" y="0"/>
      <point x="388" y="0" type="qcurve"/>
      <point x="80" y="0" type="line"/>
    </contour>
    <contour>
      <point x="259" y="184" type="line"/>
      <point x="383" y="184" type="line"/>
      <point x="448" y="184"/>
      <point x="532" y="278"/>
      <point x="532" y="350" type="qcurve"/>
      <point x="532" y="422"/>
      <point x="448" y="516"/>
      <point x="383" y="516" type="qcurve"/>
      <point x="256" y="516" type="line"/>
      <point x="296" y="565" type="line"/>
      <point x="296" y="133" type="line"/>
    </contour>
    <contour>
      <point x="489" y="-160" type="qcurve"/>
      <point x="489" y="-204"/>
      <point x="425" y="-260"/>
      <point x="370" y="-260" type="qcurve"/>
      <point x="314" y="-260"/>
      <point x="251" y="-208"/>
      <point x="251" y="-160" type="qcurve"/>
      <point x="251" y="-116"/>
      <point x="315" y="-60"/>
      <point x="370" y="-60" type="qcurve"/>
      <point x="426" y="-60"/>
      <point x="489" y="-112"/>
    </contour>
  </outline>
</glyph>
